<?xml version="1.0" encoding="utf-8"?>
<!-- Generator: Adobe Illustrator 19.2.0, SVG Export Plug-In . SVG Version: 6.00 Build 0)  -->
<svg version="1.1" id="Layer_0_xA0_Imagen_1_" xmlns="http://www.w3.org/2000/svg" xmlns:xlink="http://www.w3.org/1999/xlink"
	 x="0px" y="0px" viewBox="0 0 157 148" style="enable-background:new 0 0 157 148;" xml:space="preserve">
<style type="text/css">
	.st0{fill:#E74260;}
</style>
<g>
	<path class="st0" d="M85.5,6c0,1.4,1.4,1.2,2.1,1.6c5.6,3.6,7.9,9,6.2,14.8c-1.7,5.9-6.9,9.6-13,9.5c-5.9-0.1-10.8-3.9-12.5-9.5
		c-1.7-5.8,0.6-11.2,6.2-14.8c0.7-0.5,2.1-0.3,2.1-1.6C79.5,6,82.5,6,85.5,6z M87.5,18.9c0-3.6-3-6.5-6.7-6.5
		c-3.7,0.1-6.6,3.1-6.4,6.7c0.3,3.9,2.7,5.9,6.4,6.1C84.6,25.6,87.5,22.6,87.5,18.9z"/>
	<path class="st0" d="M80.9,143c-6.2,0-12.3-0.1-18.5,0c-3.1,0.1-5-1.3-4.7-4.4c0.3-3-1.4-4-3.5-5.2c-10.5-6-18.1-14.6-22.5-25.8
		c-1-2.7-2.3-3.5-5.1-3.4c-4.7,0.2-9.3,0.1-14,0.1c-2,0-4-0.4-4.1-2.6C8.4,97.2,7.7,92.6,9,88.2c2.3-7.7,13.7-10.6,19.2-4.9
		c2.8,3,4.5,2.6,6.9-0.2c3.8-4.2,8.6-2.8,13-1.5c4.2,1.2,6.5,4.6,6.5,9.1c0.1,16.4,1.5,13.3-12.4,13.3c-4.5,0-4.1,1.5-2.5,4.5
		c3.6,6.9,8.6,12.6,15,17.1c1.9,1.3,3,2.1,4.7-0.9c3.8-6.7,13.4-7.8,18.7-2.4c2.3,2.3,3.5,2.2,5.7,0c5.3-5.4,14.9-4.2,18.7,2.5
		c1.4,2.5,2.2,2.5,4.3,1.1c6.9-4.8,12.1-10.8,15.8-18.3c1.2-2.5,1.2-3.8-2-3.4c-0.7,0.1-1.3,0.1-2,0c-3.6-0.6-8.9,2.1-10.6-1.7
		c-2.1-4.5-1.7-10.2,0-15.1c2.4-7.1,13.6-9.5,18.8-4.1c2.7,2.7,4.3,3,6.9,0c3.7-4.3,8.6-2.9,12.9-1.6c4.3,1.3,6.7,4.8,6.7,9.5
		c-0.1,15.1,1.9,13.3-12.3,12.9c-6.7-0.2-10.5,1.1-13.3,8c-3.8,9.5-11.3,16.3-20.2,21.3c-2.2,1.2-3.7,2.3-3.4,5.2
		c0.3,3.1-1.7,4.3-4.7,4.3C93.3,142.9,87.1,143,80.9,143z M15.4,93.1c-0.1,4.7-0.1,4.7,4.4,4.7c8.2,0,16.3-0.1,24.5,0
		c2.4,0,3.9-0.3,3.6-3.1c-0.3-2.4,0.8-5.3-2.2-6.6c-3.1-1.3-5.6-0.4-8,2.1c-5.9,6.1-6,5.9-12.1,0.1c-0.4-0.3-0.7-0.7-1.1-1.1
		c-2-2.3-4.5-2-6.9-1.2C15.3,88.8,15.3,91,15.4,93.1z M130.1,97.7c4.5,0,9,0,13.5,0c1,0,2.5,0.4,2.7-0.6c0.5-2.7,1.3-5.8-0.7-8.1
		c-1.8-2.1-5.3-2.5-6.7-0.7c-5.8,7.3-10.9,7.7-16.8,0.1c-1.4-1.8-4.5-1.3-6.5,0.2c-2.5,1.9-1.5,5-1.3,7.5c0.2,2.9,2.8,1.6,4.4,1.6
		C122.4,97.9,126.2,97.7,130.1,97.7z M81.2,136.2c4.3,0,8.6,0,12.9,0c1.2,0,3.1,0.7,3.1-1.4c0-2.8,1.3-6.3-2.1-8.1
		c-2.7-1.5-5.4-1-7.5,1.5c-0.8,1-1.9,1.8-2.8,2.8c-2.5,2.8-5,2.9-7.5,0.1c-1.3-1.5-2.8-2.9-4.3-4.1c-2.1-1.7-4.5-1.3-6.4,0
		c-2.9,1.9-2.1,5.1-1.7,7.8c0.3,2.6,2.9,1.3,4.5,1.4C73.2,136.3,77.2,136.2,81.2,136.2z"/>
	<path class="st0" d="M104.4,50c0.1,5.5-2.7,6.2-6.5,6.1c-11.2-0.2-22.3-0.2-33.5,0c-4,0.1-6.9-0.5-7-5.5c-4.9,2.7-8.4,6.2-11.9,9.8
		c-1.7,1.8-0.9,3.7-0.8,5.6c0.5,7.2-4.3,13.2-11.2,14c-7.2,0.8-13.7-3.6-15-10.2c-1.4-7.1,3-13.5,10.3-15.3c2.6-0.6,5.2-0.6,7.3,0.6
		c3.1,1.8,4.6,0.5,6.6-1.7c2.3-2.4,4.8-4.6,7.6-6.5c3.8-2.6,7.3-4.7,9.4-9.5c2.8-6.3,13.3-7.3,18-2.2c2.7,2.9,4,2.4,6.5-0.1
		c5.6-5.6,16.4-3.2,19,4.2c0.9,2.7,2.5,4,4.7,5.3c4.3,2.3,8.2,5.2,11.3,8.9c2,2.4,3.7,2.7,6.6,1.5c6.4-2.6,13.5,0.6,16.4,6.6
		c2.8,5.7,0.8,12.7-4.6,16.3c-5.4,3.6-12.9,2.7-17.3-2.1c-2.3-2.4-4-5.5-3.2-8.6c1.5-5.5-1.8-8.4-5.2-11.3
		C110,54.2,107.7,52.6,104.4,50z M80.8,49.3c4.5,0,9,0,13.4,0c1,0,2.5,0.4,2.7-0.6c0.7-2.7,1.3-5.7-0.7-8c-2-2.2-4.7-2.2-7.2-0.6
		c-2.8,1.9-4.2,6.1-8.1,6.1c-3.8,0-5.2-4.2-8-6.2c-2.2-1.5-4.5-1.3-6.5,0.1c-2.8,2-2,5.2-1.6,7.8c0.4,2.5,3,1.3,4.6,1.4
		C73.1,49.5,77,49.3,80.8,49.3z M31.8,73.8c3.5-0.1,6.7-3.4,6.5-6.8c-0.2-3.6-3.3-6.4-7-6.1c-3.9,0.3-6,2.6-6.2,6.4
		C24.9,70.8,28.2,73.9,31.8,73.8z M136.9,67c-0.1-3.6-3.2-6.4-6.9-6.2c-3.9,0.3-6,2.6-6.3,6.4c-0.2,3.4,3.2,6.6,6.7,6.5
		C134,73.7,137,70.6,136.9,67z"/>
	<path class="st0" d="M80.8,118.9c-7.1-0.1-13.1-6-13.2-13c-0.1-7.2,6-13.1,13.5-13.1c7.2,0.1,13.1,5.8,13.2,12.9
		C94.4,112.9,88.1,119,80.8,118.9z M87.5,106.1c0.1-3.6-2.9-6.7-6.4-6.8c-3.6-0.1-6.8,3-6.6,6.5c0.1,3.9,2.3,6.1,6.2,6.3
		C84.4,112.5,87.4,109.7,87.5,106.1z"/>
</g>
</svg>
