<?xml version="1.0" encoding="utf-8"?>
<!-- Generator: Adobe Illustrator 19.2.0, SVG Export Plug-In . SVG Version: 6.00 Build 0)  -->
<svg version="1.1" id="Capa_1" xmlns="http://www.w3.org/2000/svg" xmlns:xlink="http://www.w3.org/1999/xlink" x="0px" y="0px"
	 viewBox="0 0 299.9 290.1" style="enable-background:new 0 0 299.9 290.1;" xml:space="preserve">
<style type="text/css">
	.st0{fill:#E74260;}
</style>
<g>
	<path class="st0" d="M19.9,129.4c0-28.4,0.4-56.9-0.2-85.3c-0.2-10.9,4.8-17.4,13.6-22c13.7-7.1,28.7-9.7,43.9-11.1
		c26.5-2.4,52.8-1.6,78.4,6.9c19.6,6.5,23.3,12,23.3,32.2c0,39-0.1,78,0.1,117c0,3.3-2.5,8.3,4.5,8.7c7.4,0.4,5.6-4.7,5.7-8.7
		c0.1-5.6-0.4-11.3,0.2-16.8c1.1-10.6,9.6-14.6,17.5-7.8c20.7,18,41,36.4,61,55.2c6.5,6.1,6.3,14.2-0.2,20.3
		c-20.1,18.7-40.4,37.1-61,55.2c-7.4,6.4-16,2.6-17.2-7.3c-0.8-6.5-0.5-13.2-0.2-19.8c0.2-4.7-1.4-6.4-6.2-6.2
		c-9.6,0.3-19.2,0.3-28.7,0c-5.1-0.2-6.1,2.1-5.9,6.5c0.3,5.9,0.2,11.9,0,17.8c-0.2,4.8-1.7,9.3-6.6,11.3c-4.5,1.8-9,0.6-11.7-3
		c-16.1-21-38-26.5-63.1-26.8c-12.3-0.1-24.6-4.3-35.7-10.8c-7.7-4.6-11.7-10.7-11.6-20.2C20.2,186.2,19.9,157.8,19.9,129.4z
		 M134.2,158.6C115.6,175.3,99,190.1,82.4,205c-4.5,4,0.4,5.6,2.3,7.3c13.6,12.5,27.3,24.9,41.2,37.2c2.2,1.9,3.6,5.7,8.3,4.6
		c0-2.7,0-5.3,0-7.9c0.3-15.2,5.2-20.1,20.3-20.3c9.9-0.1,19.8-0.1,29.7,0c13.9,0.2,19.1,5.3,19.6,18.9c0.1,3.3-0.9,6.9,1.6,10.7
		c17.9-16.2,35.2-31.8,52.9-47.8c-17.9-16.1-35.4-31.9-54.7-49.2c0,6.7,0.2,10.9,0,15.1c-0.7,9.8-5.8,15.5-15.5,15.9
		c-12.9,0.5-25.8,0.5-38.6,0c-9.2-0.4-14.4-6-15.1-15.2C133.9,169.8,134.2,165.4,134.2,158.6z M34,114.9c0,12.6,0.4,24.5-0.2,36.4
		c-0.3,6.4,2.4,9.7,7.7,12.1c8.5,3.9,17.4,6.2,26.6,7.4c5.1,0.7,10.8,1.6,10.2,8.2c-0.7,7.7-7,6.3-12.3,5.7c-10.8-1.1-21-4.9-32-8.3
		c0,13.3,0.2,25.8-0.1,38.3c-0.1,4.3,1.8,6.8,5.3,8.5c14.1,6.8,29,9.4,47.2,10.1c-6.1-5.6-10.4-9.4-14.6-13.4
		c-8.3-8.1-8.7-16.2-0.4-23.9c19.2-17.7,38.7-35.1,58.1-52.6c3.5-3.2,7.5-5.5,12.6-3.2c5,2.3,6.2,6.6,6.4,11.4
		c0.2,6.3,0.4,12.6,0,18.8c-0.3,5.8,3.6,5.8,7.1,5.1c3.2-0.6,9,3.3,9.2-3.6c0.3-18.9,0.1-37.8,0.1-57.1
		C120.8,129.3,78.1,129.2,34,114.9z M34,58.6c0,9.4,0.8,18.4-0.2,27.2c-1.3,10.8,3.9,15.4,13.2,18.4c25,8.2,50.6,8.6,76.4,6.1
		c11.8-1.1,23.5-3.4,34.4-8.6c4-1.9,7.3-3.9,7.2-9.4c-0.3-11.1-0.1-22.3-0.1-33.7C121.3,73.2,78.3,73.1,34,58.6z M35.2,40.8
		c20.2,20.7,116.5,18.3,128.3-0.6C143,20.4,50.3,21.9,35.2,40.8z"/>
</g>
</svg>
