<?xml version="1.0" encoding="utf-8"?>
<!-- Generator: Adobe Illustrator 19.2.0, SVG Export Plug-In . SVG Version: 6.00 Build 0)  -->
<svg version="1.1" id="Capa_1" xmlns="http://www.w3.org/2000/svg" xmlns:xlink="http://www.w3.org/1999/xlink" x="0px" y="0px"
	 viewBox="0 0 187 156" style="enable-background:new 0 0 187 156;" xml:space="preserve">
<g id="upTmXm_1_">
	<g>
		<path d="M72,156c-11.1-5.6-15.5-12.5-12.8-21.7c1.2-4,4.1-7.4,6.4-11.4c-8.3-6.7-11.4-16.8-13.6-27.4C46.4,68,40.6,40.5,34.9,12.9
			c-0.3-1.6-0.8-3.2-1.3-5.2c-8.7,0-17.4,0.1-26-0.1C5.1,7.6,2.5,6.6,0,6c0-2,0-4,0-6c13,0,26,0,39,0c0.7,2,1.6,3.9,2.1,6
			c1.3,5.3,2.5,10.7,3.4,16.1c0.5,2.9,1.8,3.7,4.6,3.9c16.1,0.9,32.2,2,48.3,3.1c27.9,1.9,55.8,3.8,83.7,5.8c2,0.1,3.9,1.4,5.8,2.2
			c0,1.3,0,2.7,0,4c-0.7,1.5-1.5,2.9-2,4.4c-5.1,15.5-10.3,30.9-15.1,46.5c-1.4,4.5-3.5,6.3-8.4,6.3C129.7,97.8,98.1,98,66.5,98
			c-1.8,0-3.6,0-5.4,0c1,14.2,10.2,23.1,23.6,23.2c22.5,0.1,45,0,67.5,0c9.4,0,16.4,5.2,18.4,13.7c1.9,8.2-2.4,16-11.1,20.1
			c-0.6,0.3-1,0.7-1.5,1.1c-3,0-6,0-9,0c-1.1-0.6-2.2-1.3-3.3-1.9c-7.9-4.1-11.4-12.5-8.7-21c0.4-1.2,0.7-2.5,1.1-3.8
			c-15.7,0-31.2,0-46.8,0c0.7,2.1,1.4,3.8,1.7,5.6c1.9,9.2-2,15.5-13,21.2C77.3,156,74.7,156,72,156z M106.9,59
			c0-6.9,0.1-13-0.1-19.2c0-0.9-1.3-2.5-2.1-2.6c-8.7-0.7-17.4-1.2-26.6-1.7c1,7.4,1.8,14.2,3,20.9c0.2,1,1.8,2.5,2.7,2.5
			C91.3,59.1,98.8,59,106.9,59z M70.3,34.9c-7.8-0.5-15.4-1-23.4-1.5c1.9,9,3.6,17.2,5.4,25.3c7.3,0,14.1,0,21.3,0
			C72.5,50.7,71.4,43,70.3,34.9z M142.8,39.7c-9.7-0.6-18.7-1.3-27.9-1.9c0,7.3,0,14,0,20.9c8.5,0,16.6,0,25.1,0
			C141,52.7,141.8,46.6,142.8,39.7z M82.6,66.9c1,7.4,1.9,14.1,3,20.8c0.2,1,1.5,2.5,2.3,2.5c6.2,0.2,12.4,0.1,18.6,0.1
			c0-8.4,0-15.9,0-23.5C98.5,66.9,90.9,66.9,82.6,66.9z M114.7,90.4c6.5,0,12.5,0.1,18.4-0.1c1,0,2.6-1.5,2.8-2.5
			c1.2-6.8,2-13.7,3-20.8c-8.3,0-16.2,0-24.2,0C114.7,74.8,114.7,82.2,114.7,90.4z M143.5,90.4c5.9,0,11.2,0.1,16.5-0.1
			c0.8,0,2.2-0.6,2.4-1.2c2.5-7.2,4.9-14.6,7.5-22.4c-7.5,0-14-0.1-20.5,0.1c-1,0-2.8,1.4-2.9,2.4C145.3,76,144.5,82.8,143.5,90.4z
			 M147.9,59c7.8,0,15.1,0.1,22.4-0.1c1,0,2.4-1.1,2.8-2c1.7-4.7,3.2-9.6,4.9-14.8c-9.5-0.6-18.3-1.2-27.4-1.8
			C149.6,46.8,148.8,52.6,147.9,59z M54,67c1.4,7.1,2.7,13.8,4.2,20.4c0.3,1.1,1.7,2.8,2.6,2.9c5.6,0.3,11.2,0.1,17.3,0.1
			C77,82.2,75.9,74.7,74.8,67C67.8,67,61,67,54,67z M75.6,148.3c5.5,0.2,10.1-4,10.3-9.3c0.2-5.3-4.1-9.9-9.6-10.1
			c-5.5-0.2-10,4-10.3,9.3C65.8,143.5,70.2,148.1,75.6,148.3z M153.1,148.3c5.6,0.2,10-3.9,10.1-9.4c0.1-5.6-4.1-9.8-9.6-9.9
			c-5.4-0.1-9.6,3.9-9.8,9.2C143.5,143.7,147.6,148.1,153.1,148.3z"/>
	</g>
</g>
</svg>
