<?xml version="1.0" encoding="utf-8"?>
<!-- Generator: Adobe Illustrator 19.2.0, SVG Export Plug-In . SVG Version: 6.00 Build 0)  -->
<svg version="1.1" id="Capa_1" xmlns="http://www.w3.org/2000/svg" xmlns:xlink="http://www.w3.org/1999/xlink" x="0px" y="0px"
	 viewBox="0 0 300 313.2" style="enable-background:new 0 0 300 313.2;" xml:space="preserve">
<style type="text/css">
	.st0{fill:#0A0A0A;}
</style>
<g>
	<path class="st0" d="M101.8,91.1c7.9-2.2,12.7-8.2,20-8.7c9.8-0.8,19-1.1,25.7,8c2.4,3.3,4.8,6.9,10.3,1.9
		c15.2-14,28.1-13.8,45.5,0c0-3.8-0.3-7.1,0.1-10.3c1.3-11.2,9.4-19.9,20.1-21.9c10.6-2,21.8,3.6,26.6,13.3c4.7,9.5,2.7,21-4.9,28.3
		c-7.8,7.4-19.6,8.8-29.6,3.7c-2.6-1.3-4.4-5.9-8.2-2.7c-0.9,0.8-1,4.6-0.3,5c7.7,4.4,14,10.7,21.1,15.8c0.5,0.4,4.6-3.1,6.3-5.3
		c8.1-10.2,18.7-9,29-5.7c10.4,3.4,12.3,12.2,12.1,22.2c-0.3,14.7-0.2,29.4,0,44c0.1,8.5-2.8,15.8-10.9,18.5
		c-6.7,2.2-6.6,6.2-6.6,11.5c0.1,17.2,0.2,34.5,0,51.7c-0.1,12.6-5.4,17.9-18,18.3c-8.1,0.2-16.1,0.2-24.2,0
		c-12.8-0.3-18-5.4-18.1-18.2c-0.2-16.5-0.1-33-0.1-49.5c0-2.2-0.1-4.4,0-6.6c0.1-3.4-1.1-5.7-4.8-6c-5.5-0.4-3.2,3.9-3.2,6.1
		c-0.2,19.4-0.1,38.9-0.1,58.3c0,16.5-5.1,21.6-21.6,21.7c-10.6,0-21.3,0.1-31.9,0c-13-0.2-18.9-5.8-19-18.7
		c-0.2-19.8,0.1-39.6-0.2-59.4c0-2.6,2.5-7.4-2.5-7.8c-5.9-0.5-5.5,4.3-5.5,8.5c0,17.6,0.1,35.2,0,52.8
		c-0.1,13.5-5.1,18.6-18.5,18.9c-7.3,0.2-14.7,0.1-22,0c-14.8-0.2-19.8-5.2-19.9-19.8c-0.1-17.2-0.1-34.5,0-51.7
		c0-4.6,0-7.8-5.9-9.6c-8-2.5-11.6-9.5-11.5-18.2c0.1-15.8,0.2-31.6,0-47.3c-0.1-8.9,2.8-16.4,11.4-19.3c9.4-3.2,19.8-5.7,27.5,3.5
		c6.3,7.5,11.3,8.7,17.4,0.2c1.9-2.6,4.4-5.4,7.9-5.5c6.1-0.2,5.6-5.1,4.3-7.7c-2.1-4.4-4.8-0.1-7,1.1c-14.5,7.9-30.2,3.6-36.4-10
		c-6-13.1,0.6-28.1,14.4-33c9.2-3.3,17.5-1.4,24.5,5C101.9,72.2,105.2,80.1,101.8,91.1z M132.2,225.2c0,3.7-0.2,7.3,0,11
		c0.6,10.9-4.8,25.7,2.1,31.5c6.6,5.5,21,1.2,31.8,2c6.9,0.5,8.6-1.8,8.5-8.5c-0.4-23.1-0.1-46.2-0.2-69.3c0-6.8,0.6-12.4,9.2-13.4
		c5.4-0.6,8.2-4.6,8.2-10.1c0.1-20.2,0.1-40.3,0-60.5c0-7.1-4-10.5-11.1-10.8c-8.8-0.4-19.5,8.9-19.7,17.7
		c-0.3,11.4-0.1,22.7,0,34.1c0,5.2-0.9,10-7.2,10.2c-7.1,0.2-8-4.9-8-10.6c0.1-9.2-0.6-18.4,0.2-27.5c0.8-9.1-2.9-15-9.3-20.7
		c-5-4.4-10.2-3.9-15.3-2.4c-5.2,1.5-6.6,6.2-6.6,11.4c0.1,19.1,0.1,38.1,0,57.2c0,6.2,2,11,8.7,11.9c7.8,1.1,8.9,6,8.8,12.6
		C132,202.5,132.2,213.8,132.2,225.2z M99.7,126.3c-10.9,6.2-15.2,14-13.6,25c0.5,4,0.2,8.1,0,12.1c-0.2,4.2-2.6,6.9-6.9,7.1
		c-4.8,0.2-7.6-2.6-7.9-7.2c-0.3-5.8-0.6-11.8,0-17.6c1.1-10.5-6.6-15.2-13.3-19.5c-6.4-4.1-11.7,0-11.8,7.9
		C45.9,148,46,162,46,175.9c0,4.8,0.3,9.2,6.7,8.8c9.4-0.6,10.7,5.2,10.7,12.7c-0.2,15,0,30,0,45.1c0,22.5,0,22.2,22.6,22
		c7,0,8.6-2.4,8.5-8.9c-0.4-17.6-0.4-35.2,0-52.7c0.2-6.8-4-16.2,7.9-18.6c2.6-0.5,0.8-3,0.1-4.5c-3.1-6.6-2.7-13.5-2.7-20.5
		C99.7,148.7,99.7,138.1,99.7,126.3z M207.7,126.7c-3,18.8,3.2,37.4-4.4,55c-0.7,1.7,0.3,2.8,2,3c8,1,7,7.1,7.1,12.5
		c0.1,15,0,30,0,45.1c0,22.5,0,22.2,22.6,22.1c7,0,8.6-2.3,8.5-8.8c-0.4-19.4,0-38.8-0.2-58.2c-0.1-7.5,1.2-13.3,10.6-12.7
		c4.5,0.3,6.7-1.9,6.7-6.5c-0.1-15.4-0.1-30.8,0-46.2c0.1-5.6-3-6.6-7.7-6.4c-7.4,0.3-17.1,10-17.3,17.9c-0.2,6.2,0,12.5-0.1,18.7
		c-0.1,5.1-2.5,8.5-8,8.3c-4.9-0.2-7-3.4-7-8.1c0-3.7-0.5-7.4,0.1-11C222.3,140.3,217.8,132.6,207.7,126.7z M78.6,73.9
		c-5.4,0.7-9.7,3.2-10.1,9.4c-0.5,6.7,3.7,10.7,9.8,10.9c6.1,0.2,10.4-3.4,10.3-10.3C88.5,77.6,84.6,74.8,78.6,73.9z M238.2,84.2
		c-0.4-6.2-3.9-9.9-9.7-10.1c-6.3-0.2-10.4,3.1-10.5,9.9c-0.1,6.3,3.9,9.8,9.5,10C233.7,94.4,237.6,90.6,238.2,84.2z"/>
	<path class="st0" d="M153.8,79.8c-17.1,0.2-30.4-12.4-30.7-29.1C122.7,33.5,136,20,153.3,20c16.8,0,30.1,13.1,30.2,29.7
		C183.6,66.5,170.7,79.6,153.8,79.8z M169.4,51.4c0.9-8.3-6.2-16.6-14.9-17.3c-8.1-0.6-16,5.7-17.2,13.9
		c-1.2,8.3,5.6,16.8,14.3,17.8C160,66.9,168.5,60,169.4,51.4z"/>
</g>
</svg>
