<?xml version="1.0" encoding="utf-8"?>
<!-- Generator: Adobe Illustrator 19.2.0, SVG Export Plug-In . SVG Version: 6.00 Build 0)  -->
<svg version="1.1" id="Capa_1" xmlns="http://www.w3.org/2000/svg" xmlns:xlink="http://www.w3.org/1999/xlink" x="0px" y="0px"
	 viewBox="0 0 133 175" style="enable-background:new 0 0 133 175;" xml:space="preserve">
<g id="_x33_dyTDT_1_">
	<g>
		<path d="M133,131c0,14.6,0,29.3,0,44c-44.3,0-88.7,0-133,0c0-14.7,0-29.3,0-44c3.3-7.6,10.3-7,17.1-6.9c0-2.6,0-4.4,0-6.2
			c0-29.5,0-59,0-88.5c0-8.9,2.6-11.7,11.3-12.3c0.5,0,0.9-0.3,1.7-0.5C30,10.4,29.4,3.9,36,0c20.3,0,40.7,0,61,0
			c6.7,3.9,5.9,10.7,5.9,16.9c10.8,1,13,3.3,13,13.6c0,29.3,0,58.6,0,88c0,1.8,0,3.6,0,5.7C123,123.9,129.7,123.5,133,131z
			 M84.2,124c0-2.4,0-4.2,0-6c0-25.7,0-51.3,0-77c0-1.3-0.4-2.9,0.1-4c0.7-1.4,2.1-2.6,3.2-3.8c1.1,1.2,2.6,2.3,3.3,3.7
			c0.5,1.1,0.1,2.6,0.1,3.9c0,25.8,0,51.7,0,77.5c0,1.8,0,3.6,0,5.5c6.3,0,12,0,18.1,0c0-1.6,0-2.9,0-4.2c0-30-0.1-60,0.1-90
			c0-4.8-1.6-5.9-6.1-5.8c-24.3,0.2-48.7,0.2-73,0c-4.7,0-6.3,1.1-6.3,6.1c0.2,29.8,0.1,59.6,0.1,89.5c0,1.4,0.2,2.9,0.3,4.4
			c6,0,11.7,0,17.7,0c0-2.2,0-4,0-5.8c0-25.7,0-51.3,0-77c0-1.2-0.4-2.5,0.1-3.5c0.8-1.5,2.1-2.8,3.2-4.2c1.1,1.4,2.5,2.7,3.2,4.3
			c0.5,1.1,0.1,2.6,0.1,4c0,25.5,0,51,0,76.5c0,1.9,0,3.8,0,5.9c5.2,0,9.6,0,14.4,0c0-2.1,0-3.9,0-5.7c0-25.8,0-51.7,0-77.5
			c0-1.3-0.4-2.8,0.1-4c0.6-1.3,1.9-2.3,2.9-3.5c1.2,1.1,2.8,2,3.5,3.4c0.6,1.2,0.2,2.9,0.2,4.4c0,25.7,0,51.3,0,77
			c0,1.9,0,3.8,0,5.8C74.9,124,79.2,124,84.2,124z M66.5,168.4c18,0,36-0.1,53.9,0.1c4.2,0,6-1.2,5.9-5.6c-0.3-8.8-0.2-17.6,0-26.5
			c0.1-4-1.3-5.6-5.5-5.5c-36.3,0.1-72.6,0.1-108.8,0c-4.3,0-5.5,1.6-5.4,5.6c0.2,8.7,0.2,17.3,0,26c-0.1,4.5,1.3,6.2,6,6.1
			C30.6,168.3,48.6,168.4,66.5,168.4z M37.4,16.9c19.6,0,38.9,0,58.3,0c0.9-10.2,0.9-10.2-8.5-10.2c-13.8,0-27.6,0-41.4,0
			c-9.3,0-9.3,0-8.7,9.4C37.1,16.2,37.2,16.3,37.4,16.9z"/>
		<path d="M111.9,149.3c0,1.5,0,3,0,4.5c-0.1,5.3-1.7,6.9-6.8,7.1c-0.2,0-0.3,0-0.5,0c-15.8,0.3-16.3-0.3-15.3-16.1
			c0.3-4.3,2.3-6.4,6.6-6.3c2.7,0.1,5.3,0,8,0c6.9,0.1,8,1.2,8,8.3C111.9,147.6,111.9,148.4,111.9,149.3z M104.7,153.8
			c0-3.1,0-5.8,0-8.4c-3.1,0-5.8,0-8.4,0c0,3,0,5.6,0,8.4C99.2,153.8,101.8,153.8,104.7,153.8z"/>
		<path d="M66.3,160.8c-1.8,0-4,0.6-5.4-0.1c-2-1.1-3.6-3.2-5.2-4.9c-0.2-0.2-0.1-0.6-0.1-1c-0.1-18-1.5-16.5,17.5-16.2
			c3.1,0,4.9,2,5,5.1c0.1,3,0,6,0,9c0,6.8-1.3,8-8.2,8.1C68.6,160.8,67.4,160.8,66.3,160.8C66.3,160.8,66.3,160.8,66.3,160.8z
			 M71,145.4c-3.2,0-5.9,0-8.6,0c0,3,0,5.5,0,8.4c3,0,5.7,0,8.6,0C71,151,71,148.4,71,145.4z"/>
		<path d="M44.1,149.4c0,1.7-0.1,3.3,0,5c0.2,4.4-2.1,6.4-6.4,6.4c-3.3,0-6.7,0-10,0c-3.7,0-6-1.7-6-5.7c0-3.7,0-7.3,0-11
			c0-3.7,2-5.5,5.5-5.6c2-0.1,4,0,6,0C44,138.5,44.1,138.6,44.1,149.4z M28.5,145.3c0,3.1,0,5.7,0,8.5c3,0,5.7,0,8.5,0
			c0-3,0-5.7,0-8.5C34.1,145.3,31.5,145.3,28.5,145.3z"/>
	</g>
</g>
</svg>
