<?xml version="1.0" encoding="utf-8"?>
<!-- Generator: Adobe Illustrator 19.2.0, SVG Export Plug-In . SVG Version: 6.00 Build 0)  -->
<svg version="1.1" id="Capa_1" xmlns="http://www.w3.org/2000/svg" xmlns:xlink="http://www.w3.org/1999/xlink" x="0px" y="0px"
	 viewBox="0 0 176 194" style="enable-background:new 0 0 176 194;" xml:space="preserve">
<g id="qy6aPN_1_">
	<g>
		<path d="M73,194c-2.1-5.1-1.2-6.6,4.2-6.7c8.9-0.1,17.8-0.1,26.7,0c5.4,0.1,6.3,1.8,4,6.7C96.3,194,84.7,194,73,194z"/>
		<path d="M0,51c2.4,0,4.9-0.6,7.1,0c7.6,2.1,15.2,4.5,22.7,7.2c1.6,0.6,2.6,3,3.9,4.5c-2,0.5-4.2,1.8-5.9,1.3
			c-9.3-2.8-18.5-6-27.8-9C0,53.7,0,52.3,0,51z"/>
		<path d="M176,55c-9.7,3.2-19.4,6.5-29.2,9.5c-1.2,0.4-3-1.2-4.5-1.8c0.8-1.4,1.3-3.7,2.5-4.1c8.7-3,17.6-5.8,26.5-8.4
			c1.4-0.4,3.1,0.5,4.7,0.8C176,52.3,176,53.7,176,55z"/>
		<path d="M93,0c0.3,9.1,0.7,18.1,0.8,27.2c0,0.9-1.9,2.3-3,2.5c-0.8,0.1-2.8-1.4-2.8-2.1c0.2-9.2,0.6-18.4,1-27.6
			C90.3,0,91.7,0,93,0z"/>
		<path d="M90,164.6c-7,0-14,0.1-21,0c-5.6-0.1-6.7-1.4-6.3-6.9c1-13.3-2-25.3-10.1-36.1c-11-14.6-11.4-35.1-1.5-50.7
			C61.5,54.5,80.9,46.3,100,50.2c18.1,3.7,33,18.9,36,36.6c2.2,12.6-0.4,24.1-7.7,34.6c-7.7,11-11.9,22.9-10.5,36.6
			c0.5,5.1-1,6.5-6.3,6.6C104.4,164.7,97.2,164.6,90,164.6z M91.2,161.4c3.2,2,5.5,1.3,6.7-2.4c3.9-1,7.9-2,11.9-3.1
			c1.6-19.9,3.4-25.5,12.7-39.3c11.1-16.4,8.2-37.6-6.7-50.5C100.9,53.4,78.5,53.8,64.1,67C49.6,80.4,48,101.4,59,117.9
			c4.5,6.7,7.4,14.8,10,22.6c1.7,5.1,1.4,10.7,2,16.6c2.3,0,4.8-0.6,6.8,0.2c1.7,0.6,2.9,2.7,4.4,4.2c1.9-0.1,3.7-0.2,5.6-0.3
			C88.9,161.2,90,161.3,91.2,161.4z"/>
		<path d="M90.6,178.9c-6.8,0-13.7,0.2-20.5-0.2c-1.8-0.1-3.4-2.1-5.1-3.2c1.7-1.1,3.4-3.1,5.2-3.2c13.7-0.3,27.3-0.2,41,0
			c1.6,0,3.2,1.9,4.8,3c-1.6,1.2-3.2,3.3-4.9,3.4C104.3,179.1,97.5,178.9,90.6,178.9z"/>
		<path d="M164.6,144.4c-2.9,1.2-4.9,2.7-6.2,2.3c-8.3-2.4-16.4-5.2-24.5-8.2c-1.1-0.4-1.6-2.7-2.4-4.2c1.5-0.6,3.3-2.1,4.5-1.7
			c8.1,2.4,16.1,5.2,24.1,8.1C161.3,141.1,162.2,142.4,164.6,144.4z"/>
		<path d="M17.7,147.4c-1-0.8-2.8-1.5-2.9-2.5c-0.1-1.3,0.8-3.5,1.8-3.9c8.4-3.1,16.9-6,25.4-8.6c1-0.3,3,1.1,3.7,2.3
			c0.4,0.7-0.7,3.2-1.6,3.5C35.5,141.3,26.8,144.2,17.7,147.4z"/>
		<path d="M82.2,161.4c-1.9-21.5-5.4-42.8-11.6-63.5c-0.4-1.5,0.8-3.4,1.3-5.1c1.4,0.5,3.3,0.5,4.2,1.5c6.1,7,12.5,8.7,21.2,5.5
			c1-0.4,2.4,0.1,3.6,0.1c-0.5,1.8-1,3.7-1.6,5.5c-6.3,0.9-12.6,1.8-19,2.7c1.2,6,3.1,12.9,4.1,19.9c1.5,11,2.3,22.1,3.3,33.1
			C85.9,161.2,84,161.3,82.2,161.4z"/>
		<path d="M91.2,161.4c1.8-14.1,3.4-28.3,5.3-42.4c0.6-4.6,1.8-9.1,2.8-13.7c0.5-1.8,1-3.7,1.6-5.5c0.5-1.2,0.7-2.7,1.5-3.6
			c1.2-1.4,2.9-2.5,4.4-3.7c0.6,2,2.1,4.1,1.7,5.8c-1.7,8.3-4.5,16.4-5.9,24.7c-2,11.9-3.2,24-4.7,36
			C96.6,162.6,94.4,163.3,91.2,161.4z"/>
	</g>
</g>
</svg>
