<?xml version="1.0" encoding="utf-8"?>
<!-- Generator: Adobe Illustrator 19.2.0, SVG Export Plug-In . SVG Version: 6.00 Build 0)  -->
<svg version="1.1" id="Capa_1" xmlns="http://www.w3.org/2000/svg" xmlns:xlink="http://www.w3.org/1999/xlink" x="0px" y="0px"
	 viewBox="0 0 244 138" style="enable-background:new 0 0 244 138;" xml:space="preserve">
<g id="Zmuls5_1_">
	<g>
		<path d="M127,0c2.7,2.7,6.2,5.1,8,8.3c3.3,6.1,0.5,13.4-6.1,16.9c-2.3,1.2-3,2.5-3,4.9c0.2,7.1,0.1,14.3,0.1,21.7
			c10.9,2.1,19.5,7.6,25.5,17.3c13.8-7.7,27.4-15.4,40.9-23.1c0.7-0.4,1.1-1.8,1.3-2.8c0.9-8.1,4.5-12.5,11.4-13.6
			c6.1-1,12.2,2.4,14.5,8.1c2.3,5.6,0.5,11.9-4.3,15.7c-5.3,4-11.8,3.6-17.8-1.2c-0.4-0.3-0.8-0.5-1.3-0.8
			C182.3,59.2,168.4,67,154.3,75c0.6,2.5,1.1,4.7,1.5,6.8c22,0,31.5,13.4,32.6,29.3c4.7,0,9.5,0,14.3,0c4.6,0,9.3,0,14,0
			c2.6-7.4,7-11.8,15.2-11.3c6.1,0.4,9.1,4.7,12,9.2c0,2.7,0,5.3,0,8c-0.1,0.1-0.4,0.1-0.4,0.2c-6.8,11.7-16.4,12.5-24.9,2.3
			c-0.8-1-2.4-1.7-3.7-1.7c-8.3-0.2-16.6-0.2-24.9,0c-1.2,0-3.1,0.9-3.5,1.9c-3.9,10-11.6,15.4-21.5,18.4c-26.7,0-53.3,0-80,0
			c-9.3-3-16.4-8.4-19.3-18.3c-0.3-1-2.8-1.9-4.3-1.9c-10.3-0.2-20.6,0-30.9-0.1c-2.7,0-4.4,0.5-6.1,3.1c-3.4,5.1-8.9,7.3-14.3,5
			C6.2,124.1,3.3,120,0,117c0-2.7,0-5.3,0-8c2.9-4.5,6-8.8,12.1-9.2c8.2-0.5,12.6,3.9,15.1,11.1c12.6,0,25.1,0,37.5,0
			c4.8-14.3,7.7-17.3,21.1-22.1c0.3-2.6,0.8-5.4,0.8-8.2c0-1-0.8-2.4-1.7-2.9c-10.2-6-20.4-11.9-30.8-17.5c-1.5-0.8-4.3-0.2-6.2,0.5
			c-7.5,3-15.8-0.4-18.4-7.9c-2.6-7.5,1.8-15.5,9.7-17.4c8.8-2.2,17.5,5.3,16.3,14.4c-0.4,2.9,0.4,4.1,2.8,5.4
			c10,5.6,19.9,11.3,29.4,16.7c4.7-4.9,8.5-10.3,13.6-13.9c5.1-3.5,11.6-5.1,18.3-7.9c0-6.4,0.1-13.8-0.1-21.3c0-1-0.7-2.2-1.5-2.8
			c-12.3-9.3-12-18.3,0.9-26C121.7,0,124.3,0,127,0z M124.8,131.7c11.2,0,22.3,0,33.5,0c0.3,0,0.7,0,1,0c13.4-0.5,23.3-10.7,22.3-23
			c-1.1-13-12.1-21.7-25.6-19.6c-5.1,0.8-6.3-1.1-6.8-5.6c-1.7-14.2-12.7-24.7-26.4-25.4c-17.1-1-31.1,12.8-30,29.9
			c0.3,4.9-0.5,7.3-5.9,7.8c-3.2,0.3-6.7,2.2-9.3,4.3c-5.8,4.5-7.6,12.6-5.1,19.5c2.6,7.3,9.2,12,17.8,12.1
			C101.8,131.8,113.3,131.7,124.8,131.7z M122.5,20.2c3.8,0.1,7.1-2.9,7.3-6.6c0.1-3.7-3-7-6.8-7.2c-3.8-0.2-7,2.9-7.2,6.7
			C115.7,17.1,118.6,20.1,122.5,20.2z M214,43c0.1-3.9-2.8-7-6.7-7.1c-3.9-0.1-7.1,2.9-7.3,6.7c-0.1,3.7,3.1,7.1,6.8,7.2
			C210.6,50,213.9,46.8,214,43z M13.5,106.1c-3.8,0-7,3.2-7,7c0,3.8,3.1,7,7,7c3.9,0,6.9-3,6.9-6.9
			C20.4,109.3,17.3,106.1,13.5,106.1z M230.5,120c3.8,0,7-3.1,7-6.9c0-3.8-3.1-7-6.9-7.1c-3.8,0-7,3.1-7,6.9
			C223.6,116.9,226.6,120,230.5,120z M49.2,48.4c0-3.9-3.1-6.8-7-6.8c-3.8,0.1-7,3.2-7,7c0,3.7,3.3,6.8,7.1,6.8
			C46.2,55.4,49.2,52.3,49.2,48.4z"/>
	</g>
</g>
</svg>
