<?xml version="1.0" encoding="utf-8"?>
<!-- Generator: Adobe Illustrator 19.2.0, SVG Export Plug-In . SVG Version: 6.00 Build 0)  -->
<svg version="1.1" id="Capa_1" xmlns="http://www.w3.org/2000/svg" xmlns:xlink="http://www.w3.org/1999/xlink" x="0px" y="0px"
	 viewBox="0 0 108 162" style="enable-background:new 0 0 108 162;" xml:space="preserve">
<style type="text/css">
	.st0{fill:#FFFFFF;}
</style>
<g id="IBxQlb_1_">
	<g>
		<path class="st0" d="M0,12C0,8,0,4,0,0c36,0,72,0,108,0C94,8.1,85.8,20.6,81.1,35.6c-5,15.7-4.6,31.7-2.6,47.9
			c1.7,14,7.4,24.6,21.2,30c1.1,0.4,2,2.9,2,4.4c0.2,12.3,0,24.6,0.1,36.9c0,2.4,0.8,4.8,1.2,7.2c-24.3,0-48.7,0-73,0
			c0.7-2.3,1.9-4.6,1.9-6.9c0.1-23.5,0.1-46.9,0-70.4c0-3.3,0.3-5.2,4.3-6.2c8.6-2.3,14.5-8.1,16.5-17c1.2-5.3,2.2-10.8,2.7-16.2
			c0.8-9.8,1.2-19.6,1.3-29.4c0-1.7-2-4.6-3.4-4.8c-3.3-0.6-3.8,2.3-3.9,5c0,1,0.1,2,0,3c-1.1,13.1-1.7,26.2-3.4,39.2
			c-1.2,9.2-8,14-17.2,14.1c-9.7,0.1-16.4-4.5-17.7-13.9C9.1,44.7,8.4,30.9,7.4,17.1C7,10.6,5.9,9.6,0,12z M24.8,39.2
			c-0.5,0-0.9,0-1.4,0c0-7.6,0-15.3,0-22.9c0-2.6-0.3-5.4-3.8-5.2c-3.5,0.2-3.5,2.9-3.5,5.5c0.4,15,0.7,29.9,1.4,44.9
			c0.1,1.9,2.1,5,3.6,5.2c3.6,0.5,3.8-2.7,3.8-5.5C24.7,53.8,24.8,46.5,24.8,39.2z M33.2,39.1c-0.4,0-0.8,0-1.2,0
			c0,7.8-0.2,15.6,0.2,23.4c0.1,1.5,2.3,2.9,3.5,4.4c1.2-1.3,2.6-2.5,3.5-4c0.6-1.1,0.3-2.6,0.3-3.9c0.4-14,0.8-27.9,1.2-41.9
			c0.1-2.7,0.3-5.8-3.5-6c-4.1-0.2-4,3.2-4,6.1C33.2,24.5,33.2,31.8,33.2,39.1z"/>
		<path class="st0" d="M27,162c-9,0-17.9,0-27,0c0-42.7,0-85.3,0-128c0.3,2.3,0.7,4.5,1,6.8C2,47.9,2.7,55,4.3,62
			c1.9,8.5,7.7,14,15.9,16.4c3.9,1.1,4.8,2.7,4.8,6.5c-0.2,23.5-0.1,46.9,0,70.4C24.9,157.5,26.3,159.7,27,162z"/>
		<path d="M103,162c-0.4-2.4-1.2-4.8-1.2-7.2c-0.1-12.3,0-24.6-0.1-36.9c0-1.5-0.9-3.9-2-4.4c-13.8-5.3-19.5-16-21.2-30
			c-2-16.2-2.4-32.2,2.6-47.9C85.8,20.6,94,8.1,108,0c0.3,1.2,1,2.3,1,3.5c0,52.8,0,105.7,0,158.5C107,162,105,162,103,162z
			 M101.4,15.8c-0.6-0.3-1.2-0.6-1.9-0.9C96,21.6,91.7,28,89.1,35c-6.8,18.4-5.8,37.3-1.6,56.1c1.6,7.2,6.6,11.9,13.9,15
			C101.4,75.6,101.4,45.7,101.4,15.8z"/>
		<path d="M27,162c-0.7-2.3-2.1-4.5-2.1-6.8c-0.2-23.5-0.2-46.9,0-70.4c0-3.8-0.9-5.4-4.8-6.5C11.9,76,6.1,70.5,4.3,62
			C2.7,55,2,47.9,1,40.8c-0.3-2.3-0.7-4.5-1-6.8c0-7.3,0-14.7,0-22c5.9-2.4,7-1.4,7.4,5.1c1,13.8,1.7,27.6,3.6,41.2
			c1.3,9.5,8,14,17.7,13.9c9.2-0.1,15.9-4.9,17.2-14.1c1.7-13,2.3-26.1,3.4-39.2c0.1-1,0-2,0-3c0-2.7,0.6-5.6,3.9-5
			c1.5,0.3,3.4,3.2,3.4,4.8c-0.1,9.8-0.5,19.6-1.3,29.4c-0.4,5.4-1.5,10.9-2.7,16.2c-2,8.9-7.9,14.7-16.5,17c-4,1.1-4.3,2.9-4.3,6.2
			c0.1,23.5,0.1,46.9,0,70.4c0,2.3-1.2,4.6-1.9,6.9C29,162,28,162,27,162z"/>
		<path d="M24.8,39.2c0,7.3,0,14.6,0,21.9c0,2.8-0.2,6-3.8,5.5c-1.5-0.2-3.5-3.4-3.6-5.2c-0.7-14.9-1-29.9-1.4-44.9
			c-0.1-2.6,0-5.3,3.5-5.5c3.5-0.2,3.8,2.6,3.8,5.2c0.1,7.6,0,15.3,0,22.9C23.8,39.2,24.3,39.2,24.8,39.2z"/>
		<path d="M33.2,39.1c0-7.3,0-14.6,0-21.9c0-2.8-0.1-6.2,4-6.1c3.7,0.2,3.5,3.3,3.5,6C40.3,31,39.9,45,39.5,59
			c0,1.3,0.2,2.9-0.3,3.9c-0.8,1.5-2.3,2.7-3.5,4c-1.2-1.5-3.4-2.9-3.5-4.4c-0.4-7.8-0.2-15.6-0.2-23.4
			C32.4,39.1,32.8,39.1,33.2,39.1z"/>
		<path class="st0" d="M101.4,15.8c0,29.9,0,59.7,0,90.4c-7.3-3.1-12.3-7.9-13.9-15c-4.1-18.8-5.2-37.7,1.6-56.1
			C91.7,28,96,21.6,99.6,15C100.2,15.2,100.8,15.5,101.4,15.8z"/>
	</g>
</g>
</svg>
