<?xml version="1.0" encoding="utf-8"?>
<!-- Generator: Adobe Illustrator 19.1.0, SVG Export Plug-In . SVG Version: 6.00 Build 0)  -->
<svg version="1.1" id="Layer_1" xmlns="http://www.w3.org/2000/svg" xmlns:xlink="http://www.w3.org/1999/xlink" x="0px" y="0px"
	 viewBox="0 0 946 584" style="enable-background:new 0 0 946 584;" xml:space="preserve">
<style type="text/css">
	.st0{fill:#CACACA;}
	.st1{clip-path:url(#SVGID_2_);fill:#D7D7D7;}
	.st2{clip-path:url(#SVGID_2_);}
	.st3{fill:#A09F9F;}
	.st4{fill:#FFFFFF;stroke:#C3C3C3;stroke-miterlimit:10;}
	.st5{fill:#818181;}
	.st6{fill:#FFFFFF;stroke:#67A5A8;stroke-miterlimit:10;}
	.st7{fill:none;stroke:#67A5A8;stroke-miterlimit:10;}
	.st8{fill:#FFFFFF;stroke:#98C8C8;stroke-width:0.7375;stroke-miterlimit:10;}
	.st9{fill:#98C8C8;stroke:#FFFFFF;stroke-width:0.7375;stroke-miterlimit:10;}
	.st10{fill:#FFFFFF;}
	.st11{fill:none;stroke:#797979;stroke-width:1.3191;stroke-miterlimit:10;}
	.st12{fill:#797979;}
	.st13{fill:#F2A73B;}
	.st14{fill:url(#XMLID_2_);}
	.st15{fill:#F1A640;}
	.st16{opacity:0.6;}
	.st17{fill:url(#XMLID_3_);}
	.st18{fill:url(#XMLID_4_);}
	.st19{fill:url(#XMLID_5_);}
	.st20{fill:url(#XMLID_6_);}
	.st21{fill:url(#XMLID_7_);}
	.st22{fill:url(#XMLID_8_);}
	.st23{fill:url(#XMLID_9_);}
	.st24{fill:url(#XMLID_10_);}
	.st25{fill:url(#XMLID_11_);}
	.st26{fill:#87B25E;}
	.st27{fill:none;stroke:#C7C8C9;stroke-linecap:round;stroke-miterlimit:10;}
	.st28{fill:#575757;}
	.st29{fill:#DFDCDA;stroke:#C7C9CA;stroke-width:1.0389;stroke-miterlimit:10;}
	.st30{fill:#6E7071;}
	.st31{clip-path:url(#SVGID_6_);fill:#D7D7D7;}
	.st32{clip-path:url(#SVGID_6_);}
	.st33{fill:url(#XMLID_12_);}
	.st34{fill:url(#XMLID_13_);}
	.st35{fill:url(#XMLID_14_);}
	.st36{fill:url(#XMLID_15_);}
	.st37{fill:url(#XMLID_16_);}
	.st38{fill:url(#XMLID_17_);}
	.st39{fill:url(#XMLID_18_);}
	.st40{fill:url(#XMLID_19_);}
	.st41{fill:url(#XMLID_20_);}
	.st42{fill:url(#XMLID_21_);}
	.st43{fill:#F69321;}
	.st44{fill:#F9C88E;}
	.st45{fill:#FFFFFF;stroke:#E0E0DF;stroke-width:1.2736;stroke-miterlimit:10;}
	.st46{fill:#474547;}
	.st47{fill:#F4F4F4;}
	.st48{fill:#F19644;stroke:#E68324;stroke-miterlimit:10;}
	.st49{fill:#FFFFFF;stroke:#B0B0B0;stroke-width:0.25;stroke-miterlimit:10;}
	.st50{fill:#EEEBE7;}
	.st51{fill:none;stroke:#686969;stroke-width:0.3528;stroke-miterlimit:10;}
	.st52{fill:none;stroke:#686969;stroke-width:0.5383;stroke-miterlimit:10;}
	.st53{fill:#595A5C;}
	.st54{fill:#454545;}
	.st55{fill:#555555;}
	.st56{fill:none;stroke:#6B6C6C;stroke-width:0.5;stroke-miterlimit:10;}
	.st57{fill:none;stroke:#6B6C6C;stroke-width:0.5411;stroke-miterlimit:10;}
	.st58{fill:none;stroke:#6B6C6C;stroke-width:0.3974;stroke-miterlimit:10;}
	.st59{fill:#848484;}
	.st60{clip-path:url(#SVGID_8_);fill:#D7D7D7;}
	.st61{clip-path:url(#SVGID_8_);}
	.st62{font-family:'Roboto-Medium';}
	.st63{font-size:9.7266px;}
	.st64{font-family:'Roboto-Regular';}
	.st65{font-family:'FontAwesome';}
	.st66{fill:url(#XMLID_22_);}
	.st67{fill:url(#XMLID_23_);}
	.st68{fill:url(#XMLID_24_);}
	.st69{fill:url(#XMLID_25_);}
	.st70{fill:url(#XMLID_26_);}
	.st71{fill:url(#XMLID_27_);}
	.st72{fill:url(#XMLID_28_);}
	.st73{fill:url(#XMLID_29_);}
	.st74{fill:url(#XMLID_30_);}
	.st75{fill:url(#XMLID_31_);}
	.st76{font-family:'Roboto-Bold';}
	.st77{font-size:8.4297px;}
	.st78{font-size:8.6742px;}
	.st79{fill:none;}
	.st80{font-family:'FranklinGothic-Book';}
	.st81{font-size:11.3226px;}
	.st82{fill:#EFEFF0;}
	.st83{font-size:12.0543px;}
	.st84{font-size:10.8489px;}
	.st85{fill:#68A8AB;}
	.st86{font-size:13.2598px;}
	.st87{fill:#454646;}
	.st88{fill:#8B8E91;}
	.st89{font-size:9.6435px;}
	.st90{fill:#6E6D6E;}
	.st91{fill:#FFFFFF;stroke:#E0E0DF;stroke-width:0.7553;stroke-miterlimit:10;}
	.st92{fill:#E0EDEC;}
	.st93{fill:#6E6F72;}
	.st94{fill:#C9CBCC;}
	.st95{clip-path:url(#SVGID_10_);fill:#D7D7D7;}
	.st96{clip-path:url(#SVGID_10_);}
	.st97{fill:url(#XMLID_32_);}
	.st98{fill:url(#XMLID_33_);}
	.st99{fill:url(#XMLID_34_);}
	.st100{fill:url(#XMLID_35_);}
	.st101{fill:url(#XMLID_36_);}
	.st102{fill:url(#XMLID_37_);}
	.st103{fill:url(#XMLID_38_);}
	.st104{fill:url(#XMLID_39_);}
	.st105{fill:url(#XMLID_40_);}
	.st106{fill:url(#XMLID_41_);}
	.st107{opacity:0.87;}
	.st108{clip-path:url(#SVGID_12_);fill:#4A4A4A;}
	.st109{fill:#FFFFFF;stroke:#D7D7D7;stroke-width:2;stroke-miterlimit:10;}
	.st110{fill:#E48125;}
	.st111{fill:#FFFFFF;stroke:#D1D2D3;stroke-width:1.0021;stroke-miterlimit:10;}
	.st112{fill:#FFFFFF;stroke:#D1D2D3;stroke-width:1.0734;stroke-miterlimit:10;}
	.st113{fill:none;stroke:#595A5C;stroke-width:1.1239;stroke-miterlimit:10;}
	.st114{fill:#FFFFFF;stroke:#D1D2D3;stroke-width:0.8975;stroke-miterlimit:10;}
	.st115{fill:#B4B4B4;}
	.st116{fill:#FFFFFF;stroke:#B3B3B3;stroke-width:0.75;stroke-miterlimit:10;}
	.st117{fill:none;stroke:#808080;stroke-width:0.25;stroke-miterlimit:10;}
	.st118{clip-path:url(#SVGID_14_);fill:#D7D7D7;}
	.st119{clip-path:url(#SVGID_14_);}
	.st120{fill:#67A5A8;}
	.st121{fill:url(#XMLID_42_);}
	.st122{fill:url(#XMLID_43_);}
	.st123{fill:url(#XMLID_44_);}
	.st124{fill:url(#XMLID_45_);}
	.st125{fill:url(#XMLID_46_);}
	.st126{fill:url(#XMLID_47_);}
	.st127{fill:url(#XMLID_48_);}
	.st128{fill:url(#XMLID_49_);}
	.st129{fill:url(#XMLID_50_);}
	.st130{fill:url(#XMLID_51_);}
	.st131{clip-path:url(#SVGID_18_);fill:#D7D7D7;}
	.st132{clip-path:url(#SVGID_18_);}
	.st133{fill:url(#XMLID_52_);}
	.st134{fill:url(#XMLID_53_);}
	.st135{fill:url(#XMLID_54_);}
	.st136{fill:url(#XMLID_55_);}
	.st137{fill:url(#XMLID_56_);}
	.st138{fill:url(#XMLID_57_);}
	.st139{fill:url(#XMLID_58_);}
	.st140{fill:url(#XMLID_59_);}
	.st141{fill:url(#XMLID_60_);}
	.st142{fill:url(#XMLID_61_);}
	.st143{fill:#69B9BD;}
	.st144{fill:none;stroke:#B4B6B8;stroke-width:1.7593;stroke-miterlimit:10;}
	.st145{fill:#5A5A5D;}
	.st146{fill:none;stroke:#D2D3D3;stroke-width:0.7618;stroke-miterlimit:10;}
	.st147{fill:#67ADB1;}
	.st148{clip-path:url(#SVGID_24_);}
	.st149{clip-path:url(#SVGID_24_);fill:none;stroke:#D2D3D3;stroke-width:0.8871;stroke-miterlimit:10;}
	.st150{fill:#F59222;}
	.st151{fill:#DFDCDA;stroke:#C7C9CA;stroke-width:0.8921;stroke-miterlimit:10;}
	.st152{clip-path:url(#SVGID_26_);fill:#D7D7D7;}
	.st153{clip-path:url(#SVGID_26_);}
	.st154{fill:url(#XMLID_62_);}
	.st155{fill:url(#XMLID_63_);}
	.st156{fill:url(#XMLID_64_);}
	.st157{fill:url(#XMLID_65_);}
	.st158{fill:url(#XMLID_66_);}
	.st159{fill:url(#XMLID_67_);}
	.st160{fill:url(#XMLID_68_);}
	.st161{fill:url(#XMLID_69_);}
	.st162{fill:url(#XMLID_70_);}
	.st163{fill:url(#XMLID_71_);}
	.st164{clip-path:url(#SVGID_30_);}
	.st165{fill:#F5F6F7;}
	.st166{fill:#FFFFFF;stroke:#E6E6E5;stroke-miterlimit:10;}
	.st167{fill:#FFEFDD;}
	.st168{fill:#898989;}
	.st169{fill:#676767;stroke:#E6E6E5;stroke-width:1.1239;stroke-miterlimit:10;}
	.st170{fill:#68BBBE;}
	.st171{fill:none;stroke:#D34550;stroke-width:1.1239;stroke-miterlimit:10;}
	.st172{fill:#67AEB2;}
	.st173{fill:#FFFFFF;stroke:#D1D2D3;stroke-width:1.1239;stroke-miterlimit:10;}
	.st174{fill:none;stroke:#818181;stroke-width:1.1239;stroke-miterlimit:10;}
	.st175{fill:#CFCFCE;}
	.st176{fill:none;stroke:#989798;stroke-width:2.2477;stroke-miterlimit:10;}
	.st177{fill:#EC704F;}
	.st178{fill:#FFFFFF;stroke:#B3B3B3;stroke-miterlimit:10;}
	.st179{fill:#989898;}
	.st180{fill:#D34550;}
	.st181{fill:#85C442;}
	.st182{fill:none;stroke:#FFFFFF;stroke-width:2.2477;stroke-miterlimit:10;}
	.st183{fill:#D1D2D3;}
	.st184{fill:none;stroke:#D1D2D3;stroke-width:2.2477;stroke-miterlimit:10;}
	.st185{fill:#FFFFFF;stroke:#E6E6E5;stroke-width:3;stroke-miterlimit:10;}
	.st186{clip-path:url(#SVGID_34_);fill:#D7D7D7;}
	.st187{clip-path:url(#SVGID_34_);}
	.st188{fill:url(#XMLID_72_);}
	.st189{fill:url(#XMLID_73_);}
	.st190{fill:url(#XMLID_74_);}
	.st191{fill:url(#XMLID_75_);}
	.st192{fill:url(#XMLID_76_);}
	.st193{fill:url(#XMLID_77_);}
	.st194{fill:url(#XMLID_78_);}
	.st195{fill:url(#XMLID_79_);}
	.st196{fill:url(#XMLID_80_);}
	.st197{fill:url(#XMLID_81_);}
	.st198{fill:#676868;}
	.st199{fill:none;stroke:#CDCBCA;stroke-miterlimit:10;}
	.st200{fill:none;stroke:#CDCBCA;stroke-width:0.907;stroke-miterlimit:10;}
	.st201{fill:#5590CC;}
	.st202{fill:none;stroke:#FFFFFF;stroke-width:1.748;stroke-linecap:round;stroke-miterlimit:10;}
	.st203{fill:#F4F5F6;}
	.st204{fill:#D1D2D2;}
	.st205{fill:#969696;}
	.st206{fill:none;stroke:#DDDDDC;stroke-miterlimit:10;}
	.st207{fill:none;stroke:#D1D2D2;stroke-miterlimit:10;}
	.st208{fill:#454647;}
	.st209{fill:#49A3A7;}
	.st210{opacity:0.5;}
	.st211{fill:none;stroke:#010101;stroke-width:1.3195;stroke-miterlimit:10;}
	.st212{fill:none;stroke:#E09FBF;stroke-width:1.3195;stroke-miterlimit:10;}
	.st213{fill:#E09FBF;}
	.st214{opacity:0.75;}
	.st215{opacity:0.75;fill:#E09FBF;}
	.st216{fill:none;stroke:#A2D7BC;stroke-width:1.3195;stroke-miterlimit:10;}
	.st217{fill:#A2D7BC;}
	.st218{opacity:0.75;fill:#A2D7BC;}
	.st219{opacity:0.75;fill:#BC9FCB;}
	.st220{fill:none;stroke:#BC9FCB;stroke-width:1.3195;stroke-miterlimit:10;}
	.st221{fill:#BC9FCB;}
	.st222{fill:none;stroke:#C0DE9F;stroke-width:1.3195;stroke-miterlimit:10;}
	.st223{fill:#C0DE9F;}
	.st224{opacity:0.75;fill:#C0DE9F;}
	.st225{opacity:0.75;fill:#9EBEDC;}
	.st226{fill:none;stroke:#9EBEDC;stroke-width:1.3195;stroke-miterlimit:10;}
	.st227{fill:#9EBEDC;}
	.st228{opacity:0.75;fill:#DEBE9E;}
	.st229{fill:none;stroke:#DEBE9E;stroke-width:1.3195;stroke-miterlimit:10;}
	.st230{fill:#DEBE9E;}
	.st231{opacity:0.75;fill:#010101;}
	.st232{fill:none;stroke:#010101;stroke-miterlimit:10;}
	.st233{clip-path:url(#SVGID_40_);fill:#FFFFFF;}
	.st234{clip-path:url(#SVGID_40_);fill:none;stroke:#CDCBCA;stroke-width:0.662;stroke-miterlimit:10;}
	.st235{clip-path:url(#SVGID_40_);}
	.st236{fill:#CDCBCA;}
	.st237{clip-path:url(#SVGID_40_);fill:#454647;}
	.st238{clip-path:url(#SVGID_40_);fill:none;stroke:#676868;stroke-width:0.662;stroke-miterlimit:10;}
	.st239{fill:none;stroke:#D1D2D2;stroke-width:0.6639;stroke-miterlimit:10;}
	.st240{fill:none;stroke:#676868;stroke-width:0.662;stroke-miterlimit:10;}
	.st241{clip-path:url(#SVGID_40_);fill:none;stroke:#D1D2D2;stroke-width:0.6639;stroke-miterlimit:10;}
</style>
<g>
	<defs>
		<path id="SVGID_7_" d="M939.4,582.6H5.2c-1.7,0-3-1.3-3-3V5.3c0-1.7,1.3-3,3-3h934.2c1.7,0,3,1.3,3,3v574.3
			C942.4,581.3,941,582.6,939.4,582.6z"/>
	</defs>
	<use xlink:href="#SVGID_7_"  style="overflow:visible;fill:#FFFFFF;"/>
	<clipPath id="SVGID_2_">
		<use xlink:href="#SVGID_7_"  style="overflow:visible;"/>
	</clipPath>
	<rect x="-15.5" y="-1" class="st1" width="975.2" height="34.9"/>
	<g class="st2">
		<circle class="st3" cx="23.1" cy="18.3" r="4.1"/>
		<circle class="st3" cx="38.8" cy="18.3" r="4.1"/>
		<circle class="st3" cx="54.4" cy="18.3" r="4.1"/>
	</g>
	<use xlink:href="#SVGID_7_"  style="overflow:visible;fill:none;stroke:#D3D3D3;stroke-width:1.1757;stroke-miterlimit:10;"/>
</g>
<rect x="2" y="75" class="st5" width="941" height="0"/>
<g>
	<line class="st11" x1="47.8" y1="55" x2="54.4" y2="55"/>
	<line class="st11" x1="47.8" y1="60.2" x2="54.4" y2="60.2"/>
	<line class="st11" x1="47.8" y1="57.6" x2="54.4" y2="57.6"/>
</g>
<text transform="matrix(1 0 0 1 63.9673 61.2451)" class="st12 st62 st63">Dashboard</text>
<text transform="matrix(1 0 0 1 752.1167 60.5947)" class="st12 st64 st63">Help</text>
<text transform="matrix(1 0 0 1 814.144 60.5947)"><tspan x="0" y="0" class="st12 st64 st63">yourpeopledemo </tspan><tspan x="75" y="0" class="st12 st65 st63"></tspan></text>
<g>
	<g id="XMLID_285_">
		<polygon id="XMLID_286_" class="st13" points="475.5,57.1 479.3,45.4 473.5,48.4 468.2,56.2 474.7,58.5 		"/>
	</g>
	<g id="XMLID_283_">
		<linearGradient id="XMLID_2_" gradientUnits="userSpaceOnUse" x1="477.1544" y1="57.2257" x2="472.6818" y2="48.814">
			<stop  offset="0" style="stop-color:#F2A73B"/>
			<stop  offset="1" style="stop-color:#FFFFFF"/>
		</linearGradient>
		<polygon id="XMLID_284_" class="st14" points="475.5,57.1 479.3,45.4 473.5,48.4 468.2,56.2 474.7,58.5 		"/>
	</g>
	<g id="XMLID_278_">
		<polygon id="XMLID_282_" class="st15" points="475.1,63.7 479.9,63.7 481.4,68.2 486.2,68.2 482,63 482.2,62.6 478.7,58.2 
			478.7,58.3 478.9,56.9 487.9,46.8 480.7,47.3 471.9,55 		"/>
		<g id="XMLID_279_" class="st16">
			
				<linearGradient id="XMLID_3_" gradientUnits="userSpaceOnUse" x1="-7918.2793" y1="1081.2693" x2="-7917.4438" y2="1080.5681" gradientTransform="matrix(0.9287 -0.3707 0.3707 0.9287 7433.2969 -3875.1267)">
				<stop  offset="8.510050e-02" style="stop-color:#FFFFFF"/>
				<stop  offset="1" style="stop-color:#EC8923"/>
			</linearGradient>
			<polygon id="XMLID_281_" class="st17" points="479.9,63.7 481.6,63.7 480,64.1 			"/>
			
				<linearGradient id="XMLID_4_" gradientUnits="userSpaceOnUse" x1="-7918.8403" y1="1082.9059" x2="-7916.0874" y2="1082.9059" gradientTransform="matrix(0.9287 -0.3707 0.3707 0.9287 7433.2969 -3875.1267)">
				<stop  offset="0" style="stop-color:#EC8923"/>
				<stop  offset="9.893174e-02" style="stop-color:#ED8F2F"/>
				<stop  offset="0.2785" style="stop-color:#F0A14F"/>
				<stop  offset="0.5183" style="stop-color:#F4BD84"/>
				<stop  offset="0.8059" style="stop-color:#FAE3CB"/>
				<stop  offset="1" style="stop-color:#FFFFFF"/>
			</linearGradient>
			<polygon id="XMLID_280_" class="st18" points="481.4,68.2 482.4,63.4 482,63 			"/>
		</g>
	</g>
	<g id="XMLID_271_">
		<polygon id="XMLID_277_" class="st15" points="475.1,63.7 468.6,60.8 467.1,57.7 461.3,55.9 456.9,55.3 462.2,55.3 464.9,53.1 
			471.9,55 		"/>
		
			<linearGradient id="XMLID_5_" gradientUnits="userSpaceOnUse" x1="-955.5754" y1="258.7855" x2="-954.7437" y2="259.1048" gradientTransform="matrix(-0.9973 7.380000e-02 7.380000e-02 0.9973 -509.9524 -132.2425)">
			<stop  offset="0" style="stop-color:#FFFFFF"/>
			<stop  offset="1" style="stop-color:#EC8923"/>
		</linearGradient>
		<polygon id="XMLID_275_" class="st19" points="461.4,55.8 461.7,55.4 462.1,55.3 		"/>
		
			<linearGradient id="XMLID_6_" gradientUnits="userSpaceOnUse" x1="-959.5615" y1="261.5587" x2="-959.2352" y2="256.8923" gradientTransform="matrix(-0.9973 7.380000e-02 7.380000e-02 0.9973 -509.9524 -132.2425)">
			<stop  offset="0" style="stop-color:#FFFFFF"/>
			<stop  offset="1" style="stop-color:#F2A73B"/>
		</linearGradient>
		<polygon id="XMLID_273_" class="st20" points="466.5,57.5 464.9,53.3 467.1,57.7 		"/>
		
			<linearGradient id="XMLID_7_" gradientUnits="userSpaceOnUse" x1="-964.5934" y1="258.9457" x2="-962.3941" y2="264.9882" gradientTransform="matrix(-0.9973 7.380000e-02 7.380000e-02 0.9973 -509.9524 -132.2425)">
			<stop  offset="0" style="stop-color:#FFFFFF;stop-opacity:0.3"/>
			<stop  offset="1" style="stop-color:#EC8923"/>
		</linearGradient>
		<polygon id="XMLID_272_" class="st21" points="471.9,55 468.6,60.8 471.3,54.9 		"/>
	</g>
	
		<linearGradient id="XMLID_8_" gradientUnits="userSpaceOnUse" x1="465.5143" y1="257.0053" x2="464.2674" y2="256.5515" gradientTransform="matrix(0.9973 -7.380000e-02 7.380000e-02 0.9973 -2.6059 -169.4328)">
		<stop  offset="0" style="stop-color:#FFFFFF"/>
		<stop  offset="1" style="stop-color:#EC8923"/>
	</linearGradient>
	<polygon id="XMLID_270_" class="st22" points="478.9,56.9 480.6,47.6 479.6,56.2 	"/>
	
		<linearGradient id="XMLID_9_" gradientUnits="userSpaceOnUse" x1="-7920.4048" y1="1076.5917" x2="-7919.6738" y2="1077.4558" gradientTransform="matrix(0.9287 -0.3707 0.3707 0.9287 7433.2969 -3875.1267)">
		<stop  offset="0" style="stop-color:#EC8923"/>
		<stop  offset="0.8995" style="stop-color:#FFFFFF"/>
	</linearGradient>
	<polygon id="XMLID_269_" class="st23" points="475.2,63.6 479.1,58.7 478.7,58.2 	"/>
</g>
<circle class="st26" cx="793.9" cy="57.2" r="10.7"/>
<text transform="matrix(1 0 0 1 788.1743 60.5947)" class="st10 st76 st77">YD</text>
<rect x="2.3" y="75" class="st43" width="940" height="31.4"/>
<text transform="matrix(1 0 0 1 99.0947 95.6455)" class="st44 st62 st78">Offer Letter</text>
<text transform="matrix(1 0 0 1 176.8892 95.6455)" class="st44 st62 st78">Employee Handbook</text>
<polygon class="st10" points="129.3,109 122.7,103.2 116,109 "/>
<path class="st48" d="M836.8,495.7H716.4c-1.1,0-2-0.9-2-2V465c0-1.1,0.9-2,2-2h120.4c1.1,0,2,0.9,2,2v28.6
	C838.8,494.8,837.9,495.7,836.8,495.7z"/>
<rect x="714.8" y="475.7" class="st79" width="123.4" height="14.3"/>
<text transform="matrix(1 0 0 1 754.8687 483.2686)" class="st10 st80 st81">ENROLL</text>
<rect x="112.1" y="170.6" class="st82" width="721.7" height="40.9"/>
<g>
	<line class="st45" x1="112.3" y1="169.9" x2="833.1" y2="169.9"/>
</g>
<g>
	<line class="st45" x1="112.3" y1="352.1" x2="833.1" y2="352.1"/>
</g>
<g>
	<line class="st45" x1="112.3" y1="281" x2="834.3" y2="281"/>
</g>
<g>
	<text transform="matrix(1 0 0 1 133.0576 150.1836)" class="st46 st62 st83">Enroll or decline medical insurance</text>
</g>
<circle class="st45" cx="144.1" cy="318.4" r="8.1"/>
<rect x="193.1" y="294.7" class="st79" width="152.7" height="25.5"/>
<text transform="matrix(1 0 0 1 193.0566 302.8164)"><tspan x="0" y="0" class="st53 st62 st84">Choice Plus HSA 25-200...</tspan><tspan x="0" y="15.7" class="st5 st64 st84">United HMO (HSA Compatible)</tspan></text>
<rect x="193.1" y="328.6" class="st79" width="147.1" height="12.3"/>
<text transform="matrix(1 0 0 1 193.0566 336.6914)" class="st85 st64 st84">View Plan Details</text>
<rect x="375.1" y="310.4" class="st79" width="48.2" height="21.3"/>
<text transform="matrix(1 0 0 1 382.8916 318.5625)" class="st53 st64 st84">$2,000</text>
<rect x="612.5" y="310.4" class="st79" width="48.2" height="21.3"/>
<text transform="matrix(1 0 0 1 620.3354 318.5625)" class="st53 st64 st84">$3,000</text>
<rect x="773.1" y="310.1" class="st79" width="42.6" height="21.3"/>
<text transform="matrix(1 0 0 1 773.6992 320.0088)" class="st62 st86">$62.00</text>
<rect x="679.6" y="304.4" class="st79" width="68.9" height="32.6"/>
<text transform="matrix(1 0 0 1 701.8823 312.5312)"><tspan x="0" y="0" class="st53 st64 st84">$100 </tspan><tspan x="-12.7" y="15.7" class="st53 st64 st84">(into HSA)</tspan></text>
<rect x="452.2" y="310.4" class="st79" width="48.2" height="21.3"/>
<text transform="matrix(1 0 0 1 453.1372 318.5625)" class="st53 st64 st84">$25 / $20</text>
<rect x="534.4" y="310.1" class="st79" width="48.2" height="21.3"/>
<text transform="matrix(1 0 0 1 551.4971 318.2012)" class="st53 st64 st84">0%</text>
<rect x="126.4" y="185" class="st79" width="39.3" height="12.1"/>
<text transform="matrix(1 0 0 1 126.3564 193.1426)" class="st87 st62 st84">Select</text>
<rect x="193.1" y="185" class="st79" width="124.6" height="12.1"/>
<text transform="matrix(1 0 0 1 193.0566 193.1426)" class="st87 st62 st84">Plan &amp; Carrier</text>
<rect x="361" y="185" class="st79" width="77.7" height="12.1"/>
<text transform="matrix(1 0 0 1 373.939 193.1426)" class="st87 st62 st84">Deductible</text>
<g>
	<rect x="437.5" y="177.3" class="st79" width="77.7" height="35"/>
	<text transform="matrix(1 0 0 1 457.1499 185.4707)"><tspan x="0" y="0" class="st87 st62 st84">Co-pay/ </tspan><tspan x="-6.4" y="13.3" class="st87 st62 st84">RX Co-Pay</tspan></text>
</g>
<g>
	<rect x="519.7" y="177.3" class="st79" width="77.7" height="35"/>
	<text transform="matrix(1 0 0 1 550.1064 185.4707)"><tspan x="0" y="0" class="st87 st62 st84">Co- </tspan><tspan x="-15.6" y="13.3" class="st87 st62 st84">Insurance</tspan></text>
</g>
<g>
	<rect x="597.8" y="177.3" class="st79" width="77.7" height="35"/>
	<text transform="matrix(1 0 0 1 619.4956 185.4707)"><tspan x="0" y="0" class="st87 st62 st84">Out-of-  </tspan><tspan x="-11.6" y="13.3" class="st87 st62 st84">Pocket Max</tspan></text>
</g>
<g>
	<rect x="681.5" y="177.3" class="st79" width="65.2" height="35"/>
	<text transform="matrix(1 0 0 1 691.292 185.4707)"><tspan x="0" y="0" class="st87 st62 st84">Employer </tspan><tspan x="7.4" y="13.3" class="st87 st62 st84">Bonus</tspan></text>
</g>
<rect x="756.1" y="177.3" class="st79" width="76.7" height="35"/>
<text transform="matrix(1 0 0 1 770.4922 185.4707)"><tspan x="0" y="0" class="st87 st62 st84">Your Cost </tspan><tspan x="-1.7" y="13.3" class="st88 st64 st89">(Per Month)</tspan></text>
<line class="st45" x1="112.3" y1="423.1" x2="833.1" y2="423.1"/>
<circle class="st45" cx="144.1" cy="389.4" r="8.1"/>
<rect x="193.1" y="365.7" class="st79" width="152.7" height="25.5"/>
<text transform="matrix(1 0 0 1 193.0566 373.8164)"><tspan x="0" y="0" class="st53 st62 st84">Choice Plus PPO </tspan><tspan x="0" y="15.7" class="st5 st64 st84">United PPO</tspan></text>
<rect x="193.1" y="399.6" class="st79" width="147.1" height="12.3"/>
<text transform="matrix(1 0 0 1 193.0566 407.6914)" class="st85 st64 st84">View Plan Details</text>
<rect x="375.1" y="381.4" class="st79" width="48.2" height="21.3"/>
<text transform="matrix(1 0 0 1 382.8916 389.5625)" class="st53 st64 st84">$2,000</text>
<rect x="612.5" y="381.4" class="st79" width="48.2" height="21.3"/>
<text transform="matrix(1 0 0 1 620.3354 389.5625)" class="st53 st64 st84">$2,000</text>
<rect x="773.1" y="381.1" class="st79" width="42.6" height="21.3"/>
<text transform="matrix(1 0 0 1 773.6992 391.0088)" class="st62 st86">$73.00</text>
<rect x="679.6" y="375.4" class="st79" width="68.9" height="32.6"/>
<text transform="matrix(1 0 0 1 710.5063 383.5312)" class="st53 st64 st84">–</text>
<rect x="452.2" y="381.4" class="st79" width="48.2" height="21.3"/>
<text transform="matrix(1 0 0 1 456.1831 389.5625)" class="st53 st64 st84">$35 / 10</text>
<rect x="534.4" y="381.1" class="st79" width="48.2" height="21.3"/>
<text transform="matrix(1 0 0 1 551.4971 389.2012)" class="st53 st64 st84">0%</text>
<path class="st29" d="M693.4,495.7H496.4c-1.1,0-2-0.9-2-2V465c0-1.1,0.9-2,2-2h196.9c1.1,0,2,0.9,2,2v28.6
	C695.4,494.8,694.5,495.7,693.4,495.7z"/>
<rect x="494.8" y="476.1" class="st79" width="200.2" height="18.9"/>
<text transform="matrix(1 0 0 1 509.9204 483.6387)" class="st90 st80 st81">DECLINE MEDICAL INSURANCE</text>
<line class="st91" x1="112.4" y1="423.7" x2="112.4" y2="170.2"/>
<line class="st91" x1="833.1" y1="423.7" x2="833.1" y2="170.2"/>
<rect x="113.4" y="211.1" class="st82" width="721.8" height="69.9"/>
<rect x="103.3" y="210.6" class="st92" width="739.5" height="76.5"/>
<line class="st45" x1="175.6" y1="169.5" x2="175.6" y2="351.5"/>
<line class="st45" x1="362.4" y1="169.5" x2="362.4" y2="351.5"/>
<line class="st45" x1="437.2" y1="169.5" x2="437.2" y2="351.5"/>
<line class="st45" x1="516.7" y1="169.5" x2="516.7" y2="351.5"/>
<line class="st45" x1="596.3" y1="169.5" x2="596.3" y2="351.5"/>
<line class="st45" x1="675.8" y1="169.5" x2="675.8" y2="351.5"/>
<line class="st45" x1="753" y1="169.5" x2="753" y2="351.5"/>
<rect x="193.1" y="227.8" class="st79" width="147.1" height="25.5"/>
<text transform="matrix(1 0 0 1 193.0566 235.9141)"><tspan x="0" y="0" class="st53 st62 st84">Signature Value HMO 10-20</tspan><tspan x="0" y="15.7" class="st5 st64 st84">United HMO</tspan></text>
<rect x="193.1" y="261.7" class="st79" width="147.1" height="25.5"/>
<text transform="matrix(1 0 0 1 193.0566 269.791)" class="st85 st64 st84">View Plan Details</text>
<rect x="375.1" y="242.6" class="st79" width="48.2" height="21.3"/>
<text transform="matrix(1 0 0 1 393.0942 250.7832)" class="st53 st64 st84">$0</text>
<rect x="612.5" y="242.6" class="st79" width="48.2" height="21.3"/>
<text transform="matrix(1 0 0 1 620.3354 250.7832)" class="st53 st64 st84">$1,500</text>
<rect x="773.1" y="242.6" class="st79" width="42.6" height="21.3"/>
<text transform="matrix(1 0 0 1 773.6992 252.5908)" class="st62 st86">$51.00</text>
<rect x="690" y="242.6" class="st79" width="48.2" height="21.3"/>
<text transform="matrix(1 0 0 1 709.8306 250.7832)" class="st53 st64 st84">—</text>
<rect x="452.2" y="242.6" class="st79" width="48.2" height="21.3"/>
<text transform="matrix(1 0 0 1 453.1372 250.7832)" class="st53 st64 st84">$10 / $15</text>
<rect x="534.4" y="242.6" class="st79" width="48.2" height="21.3"/>
<text transform="matrix(1 0 0 1 551.4971 250.7832)" class="st53 st64 st84">0%</text>
<g>
	<circle class="st45" cx="144.1" cy="248.8" r="8.1"/>
	<circle class="st93" cx="144.1" cy="248.8" r="3.3"/>
</g>
<g>
	<g>
		<path class="st94" d="M842.8,210.6V287H103.3v-76.5H842.8 M844.1,209.3h-1.3H103.3H102v1.3V287v1.3h1.3h739.5h1.3V287v-76.5V209.3
			L844.1,209.3z"/>
	</g>
</g>
<line class="st45" x1="175.6" y1="240.5" x2="175.6" y2="422.5"/>
<line class="st45" x1="362.4" y1="240.5" x2="362.4" y2="422.5"/>
<line class="st45" x1="437.2" y1="240.5" x2="437.2" y2="422.5"/>
<line class="st45" x1="516.7" y1="240.5" x2="516.7" y2="422.5"/>
<line class="st45" x1="596.3" y1="240.5" x2="596.3" y2="422.5"/>
<line class="st45" x1="675.8" y1="240.5" x2="675.8" y2="422.5"/>
<line class="st45" x1="753" y1="240.5" x2="753" y2="422.5"/>
</svg>
