<?xml version="1.0" encoding="utf-8"?>
<!-- Generator: Adobe Illustrator 16.0.0, SVG Export Plug-In . SVG Version: 6.00 Build 0)  -->
<!DOCTYPE svg PUBLIC "-//W3C//DTD SVG 1.1//EN" "http://www.w3.org/Graphics/SVG/1.1/DTD/svg11.dtd">
<svg version="1.1" id="Layer_1" xmlns="http://www.w3.org/2000/svg" xmlns:xlink="http://www.w3.org/1999/xlink" x="0px" y="0px"
	 width="188.5px" height="71px" viewBox="0 0 188.5 71" enable-background="new 0 0 188.5 71" xml:space="preserve">
<g>
	<path fill="#FFFFFF" d="M4.255,26.967c-0.026-0.112,0.046-0.203,0.161-0.203h11.162c0.114,0,0.227,0.091,0.251,0.203l5.061,24.539
		c0.022,0.112,0.062,0.11,0.086,0l5.281-24.539c0.024-0.112,0.137-0.203,0.252-0.203h9.763c0.114,0,0.229,0.091,0.256,0.203
		l5.723,24.763c0.026,0.112,0.067,0.112,0.091,0l5.336-24.763c0.024-0.112,0.137-0.203,0.252-0.203H58.14
		c0.114,0,0.186,0.091,0.161,0.203L49.056,66.55c-0.026,0.113-0.142,0.204-0.256,0.204H37.25c-0.116,0-0.231-0.091-0.257-0.204
		l-6.056-24.986c-0.027-0.11-0.071-0.11-0.099,0l-6.109,24.988c-0.028,0.111-0.143,0.202-0.257,0.202h-10.77
		c-0.116,0-0.229-0.091-0.255-0.204L4.255,26.967z"/>
	<path opacity="0.9" fill="#E74360" d="M69.256,19.248c-4.139,0-7.5-3.355-7.5-7.501c0-4.146,3.361-7.501,7.5-7.501
		c4.14,0,7.501,3.354,7.501,7.501C76.757,15.893,73.396,19.248,69.256,19.248z"/>
	<path fill="#FFFFFF" d="M65.433,26.972c0-0.114,0.093-0.208,0.208-0.208h7.827c0.115,0,0.208,0.094,0.208,0.208l1.667,39.573
		c0,0.116-0.093,0.209-0.208,0.209h-11.16c-0.116,0-0.208-0.093-0.208-0.209L65.433,26.972z"/>
	<path fill="#FFFFFF" d="M83.788,26.972c0-0.114,0.093-0.208,0.208-0.208h12.501c0.114,0,0.254,0.081,0.311,0.181l12.602,22.179
		c0.057,0.1,0.104,0.088,0.104-0.027V26.972c0-0.114,0.093-0.208,0.209-0.208h9.596c0.114,0,0.208,0.094,0.208,0.208v39.573
		c0,0.116-0.094,0.209-0.208,0.209H108.66c-0.117,0-0.257-0.081-0.314-0.181L93.959,41.82c-0.058-0.099-0.105-0.088-0.105,0.028
		v24.696c0,0.116-0.094,0.209-0.208,0.209h-9.649c-0.116,0-0.208-0.093-0.208-0.209V26.972z"/>
	<path opacity="0.9" fill="#E74360" d="M133.512,19.248c-4.14,0-7.501-3.355-7.501-7.501c0-4.146,3.361-7.501,7.501-7.501
		c4.142,0,7.501,3.354,7.501,7.501C141.013,15.893,137.653,19.248,133.512,19.248z"/>
	<path fill="#FFFFFF" d="M129.688,26.972c0-0.114,0.093-0.208,0.209-0.208h7.826c0.114,0,0.209,0.094,0.209,0.208l1.666,39.573
		c0,0.116-0.094,0.209-0.208,0.209h-11.16c-0.116,0-0.208-0.093-0.208-0.209L129.688,26.972z"/>
	<path fill="#FFFFFF" d="M148.041,26.972c0-0.114,0.093-0.208,0.209-0.208h11.104c0.114,0,0.208,0.094,0.208,0.208v15.412
		c0,0.114,0.056,0.134,0.126,0.043l11.772-15.497c0.069-0.091,0.219-0.166,0.335-0.166h11.553c0.113,0,0.149,0.073,0.077,0.163
		l-14.395,18.241c-0.071,0.091-0.074,0.24-0.006,0.333l15.191,21.083c0.067,0.094,0.028,0.17-0.086,0.17h-12.838
		c-0.116,0-0.263-0.076-0.327-0.171L159.681,50.2c-0.065-0.094-0.118-0.078-0.118,0.038v16.307c0,0.116-0.094,0.209-0.208,0.209
		H148.25c-0.116,0-0.209-0.093-0.209-0.209V26.972z"/>
</g>
</svg>
