<?xml version="1.0" encoding="utf-8"?>
<!-- Generator: Adobe Illustrator 19.2.0, SVG Export Plug-In . SVG Version: 6.00 Build 0)  -->
<svg version="1.1" id="Layer_1" xmlns="http://www.w3.org/2000/svg" xmlns:xlink="http://www.w3.org/1999/xlink" x="0px" y="0px"
	 viewBox="0 0 188.5 71" style="enable-background:new 0 0 188.5 71;" xml:space="preserve">
<style type="text/css">
	.st0{opacity:0.9;fill:#E74360;enable-background:new    ;}
</style>
<g>
	<path d="M4.3,27c0-0.1,0-0.2,0.2-0.2h11.2c0.1,0,0.2,0.1,0.3,0.2l5.1,24.5c0,0.1,0.1,0.1,0.1,0L26.3,27c0-0.1,0.1-0.2,0.3-0.2h9.8
		c0.1,0,0.2,0.1,0.3,0.2l5.7,24.8c0,0.1,0.1,0.1,0.1,0L47.7,27c0-0.1,0.1-0.2,0.3-0.2h10.2c0.1,0,0.2,0.1,0.2,0.2l-9.2,39.6
		c0,0.1-0.1,0.2-0.3,0.2H37.2c-0.1,0-0.2-0.1-0.3-0.2l-6.1-25c0-0.1-0.1-0.1-0.1,0l-6.1,25c0,0.1-0.1,0.2-0.3,0.2H13.7
		c-0.1,0-0.2-0.1-0.3-0.2L4.3,27z"/>
	<path class="st0" d="M69.3,19.2c-4.1,0-7.5-3.4-7.5-7.5s3.4-7.5,7.5-7.5c4.1,0,7.5,3.4,7.5,7.5C76.8,15.9,73.4,19.2,69.3,19.2z"/>
	<path d="M65.4,27c0-0.1,0.1-0.2,0.2-0.2h7.8c0.1,0,0.2,0.1,0.2,0.2l1.7,39.6c0,0.1-0.1,0.2-0.2,0.2H64c-0.1,0-0.2-0.1-0.2-0.2
		L65.4,27z"/>
	<path d="M83.8,27c0-0.1,0.1-0.2,0.2-0.2h12.5c0.1,0,0.3,0.1,0.3,0.2l12.6,22.2c0.1,0.1,0.1,0.1,0.1,0V27c0-0.1,0.1-0.2,0.2-0.2h9.6
		c0.1,0,0.2,0.1,0.2,0.2v39.6c0,0.1-0.1,0.2-0.2,0.2h-10.7c-0.1,0-0.3-0.1-0.3-0.2L94,41.8c-0.1-0.1-0.1-0.1-0.1,0v24.7
		c0,0.1-0.1,0.2-0.2,0.2H84c-0.1,0-0.2-0.1-0.2-0.2L83.8,27L83.8,27z"/>
	<path class="st0" d="M133.5,19.2c-4.1,0-7.5-3.4-7.5-7.5s3.4-7.5,7.5-7.5c4.1,0,7.5,3.4,7.5,7.5C141,15.9,137.7,19.2,133.5,19.2z"
		/>
	<path d="M129.7,27c0-0.1,0.1-0.2,0.2-0.2h7.8c0.1,0,0.2,0.1,0.2,0.2l1.7,39.6c0,0.1-0.1,0.2-0.2,0.2h-11.2c-0.1,0-0.2-0.1-0.2-0.2
		L129.7,27z"/>
	<path d="M148,27c0-0.1,0.1-0.2,0.2-0.2h11.1c0.1,0,0.2,0.1,0.2,0.2v15.4c0,0.1,0.1,0.1,0.1,0l11.8-15.5c0.1-0.1,0.2-0.2,0.3-0.2
		h11.6c0.1,0,0.1,0.1,0.1,0.2L169,45.2c-0.1,0.1-0.1,0.2,0,0.3l15.2,21.1c0.1,0.1,0,0.2-0.1,0.2h-12.8c-0.1,0-0.3-0.1-0.3-0.2
		l-11.3-16.4c-0.1-0.1-0.1-0.1-0.1,0v16.3c0,0.1-0.1,0.2-0.2,0.2h-11.1c-0.1,0-0.2-0.1-0.2-0.2V27z"/>
</g>
</svg>
