<?xml version="1.0" encoding="utf-8"?>
<!-- Generator: Adobe Illustrator 19.2.0, SVG Export Plug-In . SVG Version: 6.00 Build 0)  -->
<svg version="1.1" id="Capa_1" xmlns="http://www.w3.org/2000/svg" xmlns:xlink="http://www.w3.org/1999/xlink" x="0px" y="0px"
	 viewBox="0 0 287 277" style="enable-background:new 0 0 287 277;" xml:space="preserve">
<style type="text/css">
	.st0{fill:#E74260;stroke:#E74260;stroke-width:5;stroke-miterlimit:10;}
</style>
<g>
	<path class="st0" d="M144.2,56.1c6.8,0,13.7,0.1,20.5,0c3.4-0.1,4.9,1.4,4.8,4.8c-0.1,5.7,0.1,11.3-0.1,17
		c-0.1,2.3,0.6,3.8,2.9,4.6c0.9,0.3,1.9,0.7,2.6,1.4c6.7,6.6,12.8,4.4,19.9-0.1c12.1-7.6,9.7-8.5,17.2,4.4
		c5.5,9.5,10.9,19.1,16.5,28.5c2.1,3.5,1.7,5.7-2,7.6c-4.9,2.6-9.5,5.6-14.3,8.2c-2,1.1-3.1,2.4-2.5,4.7c0.1,0.5,0.2,1,0.1,1.5
		c-2.6,10.4,3.3,15.2,11.7,19.4c11,5.6,10.1,4.5,4.2,14.8c-5.7,10-11.5,19.8-17.1,29.9c-2,3.7-4.2,4.9-7.9,2.2
		c-1.2-0.9-2.6-1.5-3.9-2.3c-4.3-2.4-8.7-6.6-13-6.6c-4.1,0-8.2,4.6-12.4,6.8c-2.1,1.1-2.2,2.6-2.2,4.5c0,5.5-0.1,11,0,16.5
		c0.1,3.6-1.4,5.1-5,5.1c-13.7-0.1-27.3-0.1-41,0c-3.7,0-5.1-1.5-5.1-5.1c0.1-5.3-0.1-10.7,0.1-16c0.1-2.3-0.6-3.7-2.9-4.5
		c-1.6-0.5-3.3-1.2-4.4-2.3c-6.2-6-11.7-3.9-18.2,0.2c-12.3,7.7-9.9,8.1-17.2-4.6c-5.5-9.5-10.9-19.1-16.5-28.5
		c-2.1-3.5-1.6-5.7,2.1-7.6c4.4-2.3,8.6-5.1,13-7.4c2.1-1.1,2.8-2.4,2.3-4.7c-0.7-3.3-1-6.7-0.3-9.9c0.9-4-0.2-6.4-4-8.2
		c-4.2-1.9-8.1-4.6-12.1-6.9c-2.5-1.4-3-3.2-1.5-5.8c7.1-12.2,14.1-24.5,21.1-36.8c1.6-2.7,3.4-3.3,6.1-1.7
		c4.7,2.8,9.5,5.4,14.2,8.4c2,1.3,3.4,1.2,5.3-0.3c2.4-1.8,4.9-3.6,7.7-4.6c4.7-1.6,5.7-4.5,5.3-9.1c-0.4-4.1,0-8.3-0.1-12.5
		c-0.1-3.8,1.3-5.4,5.3-5.3C130.5,56.2,137.4,56.1,144.2,56.1z M144.1,62.6c-4.8,0-9.7,0.2-14.5-0.1c-3.5-0.2-5.1,0.5-4.7,4.5
		c0.4,4.5,0,9,0.1,13.5c0.1,3-1.1,4.5-3.8,5.6c-5.3,1.9-10.3,4.7-14.7,8.3c-2.3,1.9-4.3,1.9-6.7,0.4c-4.1-2.6-8.4-4.8-12.4-7.4
		c-1.9-1.2-3-1.3-4.2,0.9c-5.3,9.4-10.6,18.8-16.1,28.1c-1.2,2.1-1,3.1,1.1,4.2c4.3,2.3,8.3,4.8,12.6,7.2c2.3,1.3,3.4,2.8,2.8,5.6
		c-1.1,5.9-1.1,12,0,17.9c0.5,2.8-0.4,4.4-2.7,5.7c-4.2,2.3-8.3,4.9-12.6,7.2c-2,1.1-2.6,1.9-1.3,4.2c5.5,9.3,10.9,18.7,16.2,28.1
		c1.2,2.1,2.1,2.4,4.2,1.1c4-2.6,8.4-4.8,12.5-7.4c2.4-1.5,4.4-1.6,6.8,0.3c4.4,3.6,9.4,6.4,14.7,8.3c3.1,1.1,4,3,3.9,6
		c-0.2,4.8,0.1,9.7-0.1,14.5c-0.1,2.5,0.8,3.1,3.1,3c10.7-0.1,21.3-0.1,32,0c2.4,0,3.2-0.6,3.1-3.1c-0.2-5.2,0-10.3-0.1-15.5
		c-0.1-2.7,0.8-4.4,3.4-5.4c5.3-2.1,10.2-5,14.5-8.7c2.2-1.9,4-1.6,6.3-0.3c4.4,2.7,9,5,13.3,7.9c2.6,1.7,3.5,0.9,4.8-1.4
		c5.1-9.2,10.3-18.2,15.7-27.2c1.3-2.2,1.3-3.3-1.2-4.6c-4.7-2.5-9.2-5.4-13.9-7.9c-2.4-1.3-3.3-3-2.8-5.7c0.9-5.3,1-10.6,0-15.9
		c-0.5-2.9,0.6-4.6,3.1-6c4.7-2.5,9.2-5.4,13.8-8c1.7-1,2.4-1.8,1.2-3.8c-5.6-9.5-11-19-16.4-28.6c-1-1.8-1.9-2.2-3.8-1
		c-4.7,2.9-9.5,5.5-14.2,8.3c-2.1,1.3-3.9,1.3-5.9-0.3c-4.4-3.6-9.2-6.6-14.5-8.7c-2.5-1-3.5-2.6-3.4-5.3c0.2-5-0.1-10,0.1-15
		c0.1-2.8-0.6-3.8-3.5-3.7C154.4,62.8,149.2,62.6,144.1,62.6z"/>
	<path class="st0" d="M68.3,37c7.5,0,13.7,0,20,0c2.3,0,4.6,0.3,4.7,3.2c0.1,3-2.2,3.2-4.6,3.2c-9.7,0-19.3,0-29,0
		c-1.9,0-3.8,0.1-4.5-2.2c-0.6-2.2,0.8-3.3,2.3-4.6c47.7-41.8,124.9-42,173.3-0.3c1.8,1.6,4,3.2,2,5.7c-2.3,2.8-4.4,0.7-6.4-0.9
		C198.7,18.9,167.5,9.2,132.3,12C111.2,13.6,85.6,23.3,68.3,37z"/>
	<path class="st0" d="M89.7,259.3c-2.5-4.4-5-8.8-7.6-13.1c-0.7-1.3-1.6-2.6-2.1-3.9c-0.7-1.7-0.5-3.4,1.3-4.3
		c1.8-0.9,3.3-0.3,4.3,1.3c5.3,9.2,10.6,18.4,15.9,27.7c0.8,1.3,0.5,2.6-0.5,3.7c-1.4,1.5-3,1-4.6,0.4c-9.4-3.5-18.3-7.9-26.8-13.3
		C23.8,228.5-0.1,174.3,9.1,120.7c0.4-2.4,0.7-5.5,4.3-4.8c3.5,0.8,2.5,3.7,2.1,6.1c-9.6,56.2,18.8,111.6,69.9,136.8
		c1,0.5,2.1,0.9,3.2,1.4C88.9,259.9,89.3,259.6,89.7,259.3z"/>
	<path class="st0" d="M272.1,130.9c-3.1,5.3-6.1,10.6-9.2,15.9c-1.1,2-2.5,3.9-5.1,2.3c-2.6-1.5-1.7-3.6-0.5-5.6
		c4.8-8.2,9.5-16.4,14.2-24.6c1-1.8,1.9-3.7,4.5-3.1c2.5,0.6,2.6,2.8,2.9,4.8c5.5,35.8-1.2,68.9-21.5,99.1
		c-16,23.8-37.7,40.6-64.5,50.8c-1.4,0.5-2.9,1.1-4.3,1.1c-1.4,0-2.4-1.1-2.7-2.6c-0.2-1.5,0.4-2.7,1.8-3.3c2-0.9,4-1.7,6-2.5
		c51.6-21.1,83.3-71.4,80-127c-0.1-1.8-0.4-3.5-0.6-5.3C272.8,131,272.5,130.9,272.1,130.9z"/>
	<path class="st0" d="M179,142.5c0,19.5-16,35.5-35.3,35.3c-19.2-0.2-34.8-16-34.8-35.2c0-19.5,16-35.5,35.3-35.3
		C163.4,107.4,179,123.2,179,142.5z M143.9,113.8c-15.8,0-28.5,12.7-28.6,28.5c-0.1,15.9,12.8,28.8,28.8,28.8
		c15.8,0,28.5-12.7,28.6-28.5C172.8,126.7,159.9,113.8,143.9,113.8z"/>
</g>
</svg>
