<?xml version="1.0" encoding="utf-8"?>
<!-- Generator: Adobe Illustrator 19.2.0, SVG Export Plug-In . SVG Version: 6.00 Build 0)  -->
<svg version="1.1" id="Capa_1" xmlns="http://www.w3.org/2000/svg" xmlns:xlink="http://www.w3.org/1999/xlink" x="0px" y="0px"
	 viewBox="0 0 300 337.2" style="enable-background:new 0 0 300 337.2;" xml:space="preserve">
<style type="text/css">
	.st0{fill:#E74260;}
</style>
<g>
	<path class="st0" d="M30.3,168.3c0-39.1,0-78.2,0-117.3c0-18.9,6.2-25.3,24.6-25.3c61.9,0,123.9,0,185.8,0
		c17.9,0,24.3,6.4,24.3,24.5c0,61.5-0.1,123.1,0.2,184.6c0,7.1-1.8,12.3-7,17.3c-18.3,17.3-36.2,34.9-54,52.7
		c-4.7,4.7-9.4,6.9-16.2,6.9c-44.5-0.3-89-0.1-133.5-0.2c-17.8,0-24-6.5-24-24.8C30.3,247.2,30.3,207.8,30.3,168.3z M46.5,168.2
		c0,39.1,0,78.2,0,117.3c0,5.7-0.6,10.4,8,10.3c41.4-0.4,82.8-0.2,124.3-0.1c5.5,0,7.5-1.4,7.3-7.2c-0.4-10.4-0.2-20.9-0.1-31.4
		c0.1-16.5,6.5-22.9,23.3-23.2c10.1-0.2,20.2-0.5,30.2,0.1c7.4,0.4,9.8-1.6,9.8-9.5c-0.4-57.7-0.4-115.4,0-173
		c0-8.2-2.4-10.4-10.4-10.3c-60.4,0.3-120.8,0.4-181.2-0.1c-9.9-0.1-11.2,3.5-11.1,12C46.7,91.6,46.5,129.9,46.5,168.2z
		 M234.8,249.5c-8.9,0-17.6,0-26.4,0c-3.3,0-6.4,0.6-6.4,4.9c-0.1,9.4,0,18.7,0,28.3C213.5,271.1,223.9,260.6,234.8,249.5z"/>
	<path class="st0" d="M147.7,176.6c-14.3,0-28.6-0.1-42.9,0c-7.7,0.1-11.5-3.4-11.3-11.2c0.1-4.3,0.2-8.5,0-12.8
		c-0.7-12.5,2.3-23.8,14.8-28.8c12.2-4.8,25-6.3,34.6,6.2c3.3,4.4,6.4,4.4,9.8,0c9.6-12.5,22.4-11.1,34.6-6.2
		c12.5,4.9,15,16.2,14.9,28.8c-0.3,23.9-0.1,23.9-24.2,23.9C167.8,176.6,157.7,176.6,147.7,176.6z M147.7,160.6c9.2,0,18.5,0,27.7,0
		c5.7,0,11.7,1.6,10.6-8.2c-0.8-7.7-0.5-14.5-11-15.4c-9.6-0.8-13.2,6.9-18.5,11.9c-6.4,6-11.7,6.4-17.6-0.1
		c-3.1-3.4-6.4-6.7-10-9.6c-4.8-3.8-10.4-3.1-15-0.2c-6.8,4.3-4.6,11.9-4.1,18.1c0.6,6.6,6.6,3.3,10.1,3.4
		C129.2,160.9,138.4,160.6,147.7,160.6z"/>
	<path class="st0" d="M148.7,204.6c-20.1,0-40.2,0-60.2,0c-5.7,0-11.6-0.3-11.7-7.8c-0.1-7.4,5.7-8.2,11.4-8.2
		c39.8,0,79.5,0,119.3,0c5.9,0,11.4,1.1,11.1,8.5c-0.3,6.7-5.4,7.4-10.9,7.4C188,204.6,168.4,204.6,148.7,204.6z"/>
	<path class="st0" d="M148.9,211.5c19.3,0,38.6,0,57.9,0c5.6,0,11.6,0,11.8,7.6c0.1,7.4-5.6,8.3-11.4,8.3c-39.8,0-79.5,0-119.3,0
		c-5.8,0-11.5-1-11.2-8.4c0.3-7.6,6.3-7.4,11.9-7.4C108.8,211.5,128.8,211.5,148.9,211.5z"/>
	<path class="st0" d="M147.9,59.4c17.2,0.1,31.3,14.2,30.9,30.8c-0.3,16.2-14.3,29.7-30.8,30c-16.9,0.2-31.5-13.9-31.5-30.4
		C116.5,73.2,130.8,59.3,147.9,59.4z M147.3,74.6c-8.6,0.2-15.3,7.3-14.9,15.8c0.3,8.6,7.5,15.1,16.2,14.3c8.9-0.8,14.1-5.9,14.3-15
		C163.2,81.2,155.9,74.4,147.3,74.6z"/>
	<path class="st0" d="M124.2,249.5c-12.4,0-24.7,0-37.1,0c-5.4,0-10.5-0.8-10.4-7.8c0.1-7,5.4-7.6,10.7-7.6c24.7,0,49.4,0,74.2,0
		c5.2,0,10.7,0.3,11,7.3c0.3,7.8-5.5,8.1-11.2,8.1C148.9,249.5,136.5,249.5,124.2,249.5z"/>
</g>
</svg>
