<?xml version="1.0" encoding="utf-8"?>
<!-- Generator: Adobe Illustrator 19.2.0, SVG Export Plug-In . SVG Version: 6.00 Build 0)  -->
<svg version="1.1" id="Capa_1" xmlns="http://www.w3.org/2000/svg" xmlns:xlink="http://www.w3.org/1999/xlink" x="0px" y="0px"
	 viewBox="0 0 299.7 279.7" style="enable-background:new 0 0 299.7 279.7;" xml:space="preserve">
<style type="text/css">
	.st0{fill:#0C0C0C;}
</style>
<g>
	<path class="st0" d="M59.4,195c-0.8,0.1-1.5,0.3-2.2,0.3c-25.3,2.7-25.5,2.5-32.4-22.6c-1.9-6.8-0.3-11.7,6-15
		c3.8-2,7.5-4.3,11.4-6.1c4.4-2,6.2-4.7,6.3-9.9c0.1-5.5-2.8-7.4-6.7-9.6c-20.4-11.3-22.4-18.9-10.6-39.2c2.7-4.6,6.6-6.4,11.7-5.9
		c5.3,0.5,10.6,1.3,15.9,1.8c7.9,0.7,13.1-6.5,10.1-14c-0.1-0.3-0.3-0.6-0.4-0.9c-12.3-24.3-9.2-22.2,11.8-37.5
		c5.9-4.3,11.7-3.7,17,1.6c3.3,3.3,6.8,6.4,10.4,9.4c5.9,4.9,15.6,2.2,16.7-5.2c4-27.1,9.5-21.3,28.9-22.3
		c10.5-0.5,15.4,4.2,16.6,14c0.4,3,1,5.9,1.8,8.8c1.9,6.6,10.8,9.3,16.3,5c1-0.8,2-1.8,3-2.7c16-14.3,27.4-13.3,41.1,3.5
		c3.4,4.1,3.3,8.5,1.2,13.1c-2.1,4.5-4.5,8.9-6.4,13.5c-2.8,6.7,2.6,14.1,9.8,13.7c0.7,0,1.3-0.2,2-0.3c24.7-2.7,28.4,0.1,33,24.5
		c1,5.5-0.7,9.9-5.6,12.7c-4.3,2.5-8.8,4.6-13.1,7.1c-8,4.6-7.8,13.8,0.3,18.5c0.3,0.2,0.6,0.3,0.9,0.4
		c20.5,11.5,22.4,18.7,10.7,39.3c-2.8,5-7.1,6.6-12.6,5.9c-4.9-0.6-9.9-1.2-14.9-1.7c-8-0.7-13.3,6.4-10.3,13.9
		c0.1,0.3,0.3,0.6,0.4,0.9c12.5,24.5,8.9,22.5-11.7,37.5c-5.9,4.3-11.7,3.8-17-1.5c-3-3.1-6.3-5.9-9.6-8.7
		c-6.8-5.8-16.1-3.3-17.7,5.3c-4.5,23.5-5.2,20.9-28.6,21.4c-10.5,0.3-15.4-4.1-16.7-14c-0.4-3-1-5.9-1.8-8.8
		c-1.9-6.6-10.8-9.3-16.3-5.1c-1.1,0.8-2,1.8-3,2.7c-16.1,14.3-27.5,13.4-41.1-3.5c-5.3-6.6-1.3-12.4,1.3-18.5
		c2.4-5.9,8.9-11.6,1.6-18.7C64.4,195.8,62.6,193.8,59.4,195z M64.5,181.7c1.3,0.2,3.8,0,5.7,1c9.5,5,14.7,21.4,10.1,31.1
		c-1,2.1-1.7,4.4-2.9,6.3c-3,4.8-3.4,8.4,2.4,12c5,3,8.9,6.9,14,0.2c2.6-3.4,6.3-5.9,9.4-8.9c2.5-2.4,4.9-4.2,8.8-3.6
		c17.4,2.6,22.8,7,25.5,24.1c1.2,7.5,4.8,7.8,10.7,7.8c5.7,0,9-0.8,10-7.6c0.8-6,0-13.3,5.5-17.6c10.1-7.8,24.9-6.7,34.4,2.1
		c1.2,1.1,2.7,2.1,3.6,3.4c4.7,6.6,8.8,3.4,14,0.1c5.7-3.5,5.8-6.9,2.6-11.9c-1.2-1.9-1.6-4.5-3-6.3c-9.4-11.6,0.9-18.4,5.9-26.9
		c4.7-8,11.2-5.1,17.6-4.4c2.6,0.3,5.3,0.4,7.9,1c5.2,1.1,7.2-1,9.3-5.9c3.2-7.7,1.1-11.1-5.9-14.5c-5.7-2.8-13.4-4-15.6-11.3
		c-4.1-13.1,0.8-24,13.2-30.7c1.5-0.8,2.9-1.7,4.4-2.4c4.9-2.1,7.6-4.7,4.8-10.6c-2.2-4.7-2.3-10.7-10.3-8.7
		c-4.8,1.2-9.9,1.4-14.8,2c-3.4,0.4-6.3-0.1-8.9-3c-13.5-15.1-14.1-16-5.1-33.7c3.6-7.1,2.7-10.6-3.8-15c-4.9-3.3-7.5-2.8-11.7,0.8
		c-5.6,4.8-9.3,13.3-18,12.9c-15.8-0.8-23.6-7.8-26.1-23.4c-1.1-6.9-3.7-8.4-10.2-8.5c-7.1-0.2-9.8,1.8-10.8,9.1
		c-0.8,5.6,0.1,12.6-5.6,16.4c-11.7,8-24.3,6.6-35.1-3.2c-1.5-1.3-3.1-2.6-4.4-4.1c-3-3.4-5.4-2.9-9.2-0.6
		c-7.2,4.3-9.5,8.4-4.8,16.3c3.1,5.2,7.9,10.6,5.8,17.4c-3.7,12.3-15.6,19.4-28.5,17.5c-1.6-0.2-3.4-0.2-4.9-0.6
		c-7.4-2.1-9.3,2.2-11.6,8.2c-2.5,6.6,0.4,8.9,5.4,11.3c4.2,2,8.2,4.4,12.3,6.6c2.8,1.5,4.5,3.6,5,7c2.4,18.4,0.9,21.5-15.6,30.6
		c-1.5,0.8-2.9,1.7-4.4,2.3c-4,1.6-3.8,4.3-3.2,8c1.5,8.5,5.7,11.9,14.3,9.7C56.1,182.6,59.8,182.4,64.5,181.7z"/>
	<path class="st0" d="M222.6,143c-0.8,40.8-34.7,73.2-76,72.6c-41.2-0.6-74.4-34.4-73.6-75C73.9,99.5,108.3,67,150,68.1
		C190.8,69.2,223.4,102.9,222.6,143z M193.5,183.3c24-25.1,22.2-64.2-2.8-86.8c-26.6-24.1-68.2-21.5-91,5.6
		c-20.3,24.2-19.3,62.8,2.6,80.1c0-5.4-0.1-10.3,0-15.3c0.3-9.5,4.5-17.3,13.7-19.9c8.7-2.5,18.6-4.8,25.7,4.2
		c4.3,5.4,7.8,5.9,12.2,0.1c7-9.1,16.9-6.8,25.6-4.4c9.2,2.5,13.5,10.2,13.9,19.8C193.6,171.7,193.5,176.7,193.5,183.3z
		 M114.7,178.2c0,18.9,0.7,19.6,19.6,24c9.3,2.1,18.4,2.1,27.6-0.1c18.2-4.3,19.1-5.3,19.1-23.4c0-3.3,0-6.7,0-10
		c-0.1-4.6-1-9.1-5.9-10.4c-4.7-1.2-9.3-1.4-13.7,2.8c-13.5,12.9-13.7,12.7-26.8,0.5c-0.2-0.2-0.5-0.5-0.7-0.7
		c-3.8-4.8-9.1-3.8-13.7-2.4c-4.4,1.2-5.4,5.5-5.5,9.7C114.6,171.5,114.7,174.9,114.7,178.2z"/>
	<path class="st0" d="M122,117.5c0.1-14,12.4-25.8,26.5-25.3c13.9,0.4,25.3,12,25.2,25.7c-0.1,14-12.4,25.8-26.5,25.4
		C133.3,142.8,121.9,131.2,122,117.5z M148,104.1c-7.4-0.1-14.1,6.4-14,13.8c0.1,7.4,6.9,14.2,14.2,13.5c7.8-0.7,12.8-5.1,13.4-13.2
		C162.2,110.8,155.4,104.1,148,104.1z"/>
</g>
</svg>
