<?xml version="1.0" encoding="utf-8"?>
<!-- Generator: Adobe Illustrator 19.2.0, SVG Export Plug-In . SVG Version: 6.00 Build 0)  -->
<svg version="1.1" id="Capa_1" xmlns="http://www.w3.org/2000/svg" xmlns:xlink="http://www.w3.org/1999/xlink" x="0px" y="0px"
	 viewBox="0 0 299.9 306.9" style="enable-background:new 0 0 299.9 306.9;" xml:space="preserve">
<style type="text/css">
	.st0{fill:#E74260;}
</style>
<g>
	<path class="st0" d="M281.8,154.9c-0.1,71.5-59.2,129.5-132,129.5c-73.3,0-132.2-58.3-132-130.6c0.2-71.3,59.6-129,132.5-128.9
		C223,25,281.9,83.2,281.8,154.9z M264.9,157.2c2-61.9-48.7-114-112.8-115.9c-62.3-1.9-115,47.5-117.4,110.2
		c-2.4,61.8,48,114.1,112.2,116.5C209.5,270.3,262.9,220.2,264.9,157.2z"/>
	<path class="st0" d="M110.6,163.1c-7.8,0-15.6-0.1-23.5,0c-6.1,0.1-11.9-1.1-12-8.4c-0.1-7.3,5.5-8.7,11.7-8.7
		c15.6,0,31.3-0.2,46.9,0.1c5.8,0.1,7.7-1.4,7.5-7.4c-0.4-15.3-0.1-30.5-0.2-45.8c0-6.2,1.3-11.8,8.5-11.9c7.3-0.1,8.9,5.3,8.9,11.6
		c-0.1,13.8,0.8,27.6-0.3,41.3c-0.9,10.9,3.3,12.8,12.9,12.3c13.7-0.8,27.6-0.2,41.3-0.2c6.1,0,11.9,1.1,12,8.4
		c0.1,7.3-5.5,8.7-11.7,8.7c-15.6,0-31.3,0.2-46.9-0.1c-5.8-0.1-7.7,1.4-7.5,7.4c0.4,15.3,0.1,30.5,0.2,45.8
		c0,6.2-1.3,11.8-8.5,11.9c-7.3,0.1-8.9-5.3-8.9-11.6c0.1-13.8-0.5-27.6,0.2-41.3c0.5-9.2-1.2-13.9-11.8-12.3
		C123.4,163.9,117,163.1,110.6,163.1z"/>
</g>
</svg>
