<?xml version="1.0" encoding="utf-8"?>
<!-- Generator: Adobe Illustrator 19.2.0, SVG Export Plug-In . SVG Version: 6.00 Build 0)  -->
<svg version="1.1" id="Capa_1" xmlns="http://www.w3.org/2000/svg" xmlns:xlink="http://www.w3.org/1999/xlink" x="0px" y="0px"
	 viewBox="0 0 213 276.6" style="enable-background:new 0 0 213 276.6;" xml:space="preserve">
<style type="text/css">
	.st0{fill:#E74260;stroke:#E74260;stroke-width:5;stroke-miterlimit:10;}
</style>
<g>
	<path class="st0" d="M161.1,185.3c6.8,22.2,13.6,44.1,20.3,66c0.8,2.7,1.7,5.4,2.5,8.1c0.4,1.4,0.9,3-0.5,4.2
		c-1.4,1.1-2.8,0.4-4.2-0.3c-6.2-3.3-12.5-6.3-18.5-9.9c-3.9-2.4-5.4-1.4-7.2,2.4c-2.8,6-6.2,11.8-9.3,17.7
		c-0.8,1.5-1.4,3.3-3.4,3.2c-2.3-0.1-2.6-2.1-3.2-3.9c-6.9-22.2-13.8-44.5-20.7-66.7c-1.2-4-6.1-7.2-10.2-6.8
		c-2.7,0.2-3,2.4-3.7,4.1c-9.3,20-18.6,40.1-27.9,60.2c-0.3,0.6-0.5,1.2-0.8,1.8c-0.8,1.6-1.3,3.7-3.7,3.5c-2-0.2-2.4-2-3-3.6
		c-2.3-6.3-4.9-12.4-6.8-18.7c-1.2-4-2.7-5.3-6.9-3.4c-6.2,2.8-12.8,4.8-19.2,7.2c-1.6,0.6-3.2,1.5-4.6-0.1
		c-1.4-1.6-0.4-3.1,0.3-4.6c8.5-18.4,16.9-36.9,25.6-55.2c1.8-3.9,1.4-5.2-3-5.2c-4-0.1-8-0.4-11.9-1c-7.1-1.1-11-4.9-12.2-12
		c-0.5-3.3-1-6.6-0.9-9.9c0.2-7.1-3.1-11.7-8.9-15.5c-16.2-10.5-17.1-13.7-8.4-30.7c3.4-6.6,3.3-12.4-0.1-18.9
		C2.3,80.2,3.2,76.7,19,66.6c6-3.8,9-8.6,9.3-15.9c0.7-18.7,4-22,22.6-22.6c6.9-0.2,12.2-2.6,15.6-8.8c0.2-0.4,0.5-0.8,0.8-1.3
		C77,3.5,81.2,2.2,96.9,10.4c7,3.7,13.2,3.7,20.2,0c15.9-8.3,20.1-7.1,29.7,8.1c4.2,6.6,9.4,10,17.2,9.6c0.7,0,1.3,0,2,0.1
		c14.2,0.7,18.1,4.4,19.5,18.5c0.2,2.3,0.4,4.7,0.5,7c0.2,4.7,2.2,8.3,6.1,10.8c2.2,1.5,4.4,2.9,6.7,4.4c10.6,7.1,12.1,12.6,6.6,24
		c-0.8,1.6-1.5,3.3-2.4,4.9c-3.5,5.9-3.4,11.6,0.1,17.5c1.6,2.7,2.9,5.6,4.1,8.5c2.9,7.4,1.5,12.7-4.8,17.6
		c-2.9,2.3-5.9,4.3-9.1,6.2c-4.8,3-7.2,7.1-7.3,12.8c0,3.2-0.4,6.3-0.7,9.5c-1,9-4.9,13-13.8,14.2
		C168,184.7,164.7,184.9,161.1,185.3z M95.6,203.6c-16.4,6.4-18.8,5.6-28.5-9.1c-1.2-1.9-2.2-4-4.6-5.2
		c-8.3,17.9-16.5,35.6-25.1,54.2c7.3-2.7,13.7-4.9,19.9-7.4c3.6-1.5,5.4-0.6,6.7,3.1c2.1,6.4,4.6,12.7,7.3,20
		c8.7-18.9,16.9-36.9,25.1-54.8c0.1-0.4,0.2-0.8,0.3-1.2C96.4,203.4,96,203.5,95.6,203.6z M203.1,82.3c-0.5-4.9-4.5-7.4-8.4-9.4
		c-10.5-5.5-14.9-13.8-14.8-25.6c0.1-10.9-2.2-12.7-13.3-13.6c-1.7-0.1-3.3-0.4-5-0.4c-8.3,0.1-14-3.8-18.5-10.6
		c-9.4-14.3-9.7-14.4-25.3-6.7c-7.5,3.7-14.6,3.9-21.9-0.2c-1.7-1-3.5-1.9-5.3-2.7c-8.3-3.9-11.2-3.1-16.4,4.3
		c-0.7,1-1.4,1.9-1.9,2.9c-4.6,8.7-11.6,12.8-21.7,13.2c-15.6,0.7-16,1.3-16.7,17c-0.4,9.1-4,15.6-11.9,20.5
		c-13.4,8.3-13.7,9.5-6.4,23.3c4.4,8.3,4.3,15.9,0,24.2c-7.3,13.8-7,14.8,6.5,23.3c7.6,4.8,11.3,11.1,11.8,20
		c0.9,16.1,1.1,16.5,17.3,17.5c9.7,0.6,16.1,4.7,21,12.8c7.4,12,9.4,12.5,22,5.8c8.7-4.7,16.7-4.8,25.5-0.1
		c12.9,7,14.7,6.4,22.3-5.9c4.9-7.9,11.2-12,20.6-12.5c16.4-1,16.6-1.3,17.5-17.8c0.5-8.8,4-15.2,11.6-19.6c2.7-1.6,5.3-3.5,7.8-5.4
		c3.4-2.7,4.4-6.1,2.6-10.2c-0.9-2-1.5-4.1-2.7-5.9c-6-9.4-5.9-18.7,0-28.1C201.3,89.5,202.8,86.3,203.1,82.3z M155.6,186
		c-5.5,2.3-7.5,6.8-10.2,10.8c-7.1,10.7-10.3,12-22.7,9.3c6.2,20.1,12.3,40,18.8,60.9c3.6-6.7,6.9-12.4,9.7-18.3
		c1.9-4,4.1-4.4,7.8-2.3c5.7,3.3,11.6,6.2,18.2,9.7C169.9,232.3,162.8,209.3,155.6,186z"/>
	<path class="st0" d="M184.4,106.3c0.2,42.4-34.5,77.3-77.1,77.5C64.8,184,29.9,149.5,29.6,107c-0.3-42.7,34.5-77.7,77.3-77.8
		C149.5,29.2,184.3,63.7,184.4,106.3z M106.8,178.2c39.7,0.1,72.1-31.8,72.3-71.3c0.2-39.8-31.9-72.1-71.8-72.2
		C67.5,34.6,35.1,66.5,35,106C34.8,145.9,66.8,178.1,106.8,178.2z"/>
	<path class="st0" d="M106.5,87.9c-9.8,0-19.6,0-29.4,0c-2.2,0-4.8,0-4.7-3c0.2-2.7,2.7-2.4,4.7-2.4c20,0,39.9,0,59.9,0
		c2,0,4.5-0.2,4.7,2.5c0.1,3-2.5,2.9-4.7,2.9C126.8,87.9,116.6,87.9,106.5,87.9z"/>
	<path class="st0" d="M106.7,109.2c-9.8,0-19.6,0-29.4,0c-2.2,0-4.9,0.3-4.9-2.7c0.1-3,2.9-2.6,5-2.6c19.8,0,39.6,0,59.4,0
		c2.2,0,4.9-0.3,4.9,2.7c-0.1,3-2.9,2.6-5,2.6C126.6,109.2,116.7,109.2,106.7,109.2z"/>
	<path class="st0" d="M107.1,125.1c3.3,0,6.6,0,9.9,0c1.7,0,3,0.6,3.1,2.5c0.1,2.1-1.3,2.9-3.2,2.9c-6.8,0-13.6,0-20.3,0
		c-1.7,0-2.9-0.8-2.9-2.7c0-1.8,1.2-2.6,2.9-2.6C100.2,125.1,103.7,125.1,107.1,125.1C107.1,125.1,107.1,125.1,107.1,125.1z"/>
</g>
</svg>
