<?xml version="1.0" encoding="utf-8"?>
<!-- Generator: Adobe Illustrator 19.2.0, SVG Export Plug-In . SVG Version: 6.00 Build 0)  -->
<svg version="1.1" id="Capa_1" xmlns="http://www.w3.org/2000/svg" xmlns:xlink="http://www.w3.org/1999/xlink" x="0px" y="0px"
	 viewBox="0 0 279 277" style="enable-background:new 0 0 279 277;" xml:space="preserve">
<style type="text/css">
	.st0{fill:#E74260;stroke:#E74260;stroke-width:5;stroke-miterlimit:10;}
</style>
<g>
	<path class="st0" d="M5.3,150.8c0-24.8,0-49.6,0-74.5c0-15.9,8.8-24.7,24.7-24.8c16.5,0,33-0.1,49.5,0.1c4.1,0.1,6-0.6,5.6-5.3
		c-0.5-5.5-0.2-11-0.1-16.5C85.2,17,94.1,7.5,106.9,7.3c17.8-0.3,35.7-0.3,53.5,0c12.7,0.2,21.7,9.7,21.8,22.5
		c0.1,5.5,0.3,11-0.1,16.5c-0.3,4.1,0.8,5.4,5.1,5.3c16.7-0.3,33.3-0.1,50-0.1c15.9,0,24.7,8.9,24.7,24.8c0,30.8,0,61.6,0,92.5
		c0,2.9,0.5,5.4,1.8,8.1c14.5,28.9,5.9,63.8-20.3,83c-26.1,19.1-62,16.6-85.1-6.1c-2.5-2.4-4.9-3.3-8.3-3.3
		c-39.7,0.1-79.3,0.1-119,0.1c-17.2,0-25.8-8.6-25.8-25.8C5.3,200.1,5.3,175.5,5.3,150.8z M134,60.4c-34.8,0-69.6,0-104.5,0
		c-10.2,0-15.3,5.2-15.4,15.4c0,14.7,0,29.3,0,44c0,15.7,8.8,24.5,24.3,24.6c19.2,0,38.3,0,57.5,0c10.9,0,10.9,0,11-11
		c0-0.5,0-1,0-1.5c0.1-3.2,1.6-5,4.9-5c14.5,0,29,0,43.5,0c3,0,4.6,1.7,4.7,4.7c0.1,3.3,0,6.7,0,10c0,1.3-0.3,2.9,1.8,2.8
		c7.3-0.4,14.7,1.2,21.8-1c13.2-4.2,26.7-5,39.8-0.2c13.9,5.1,29.9-5.4,29.6-21.9c-0.3-14.8-0.1-29.7-0.1-44.5
		c0-11.5-4.8-16.2-16.5-16.2C202.3,60.4,168.2,60.4,134,60.4z M14.2,144.2c0,2.4,0,3.6,0,4.9c0,25.5,0,51,0,76.5
		c0,11.2,4.9,16.2,16.1,16.2c37.7,0,75.3,0,113,0c1.4,0,3,0.6,4.2-0.5c-16.8-33.3-11.4-62.5,16.5-88c-31.7,0-62.6,0-93.6,0
		c-2.4,0-3.2,0.7-3.2,3.1c0.2,4.3-0.1,8.7,0.1,13c0.2,4.2-1.6,6.2-5.9,6.1c-6.3-0.1-12.7-0.2-19,0c-4.6,0.1-6.3-2-6.2-6.4
		c0.1-4.3,0-8.7,0-13c0-1.6-0.1-2.8-2.3-2.9C26.6,152.8,20.5,149.6,14.2,144.2z M261.2,199.3c0-0.3-0.1-0.7-0.1-1
		c-2.2-24-25.6-47.1-49.5-49.1c-3.7-0.3-2.8,2-2.7,3.7c0.3,3.4-0.3,5.1-4.4,5c-3.7-0.1-5.2-1-4.6-4.7c0.7-3.8-1-4.2-4.4-3.6
		c-24.8,4.3-43.4,22.7-47.8,47.4c-0.7,3.9-0.3,5.5,4.1,5c1.3-0.2,3.4-1.1,4.1,1.5c1.3,4.9-0.3,7.3-5.3,7.3c-2.4,0-3.5,0.3-3.1,3.3
		c3.1,24.5,23.9,45.7,47.9,49c3.5,0.5,5.5,0.2,4.7-4c-0.7-3.8,1.2-4.2,4.5-4.2s5.1,0.6,4.5,4.3c-0.6,3.5,0.6,4.4,4.3,4
		c23.6-3.1,44.8-24.2,48-47.9c0.5-3.4-0.1-5.1-3.8-4.4c-3.5,0.6-4.4-0.8-4.5-4.3c0-3.6,0.7-5.2,4.6-4.7
		C259,202,261.9,203,261.2,199.3z M133.7,16.2c-8.8,0-17.7-0.1-26.5,0c-7.8,0.1-13.2,5.5-13.4,13.2c-0.1,6.3,0.2,12.7-0.1,19
		c-0.2,4,2.3,3.2,4.5,3.2c2.3,0,4.7,0.5,4.5-3.3c-0.3-5.6,0.1-11.3-0.1-17c-0.1-4.4,1.7-6.3,6.2-6.3c16.5,0.1,33,0.1,49.5,0
		c4.5,0,6.4,1.9,6.3,6.3c-0.1,5.7,0.2,11.3-0.1,17c-0.2,3.8,2,3.4,4.4,3.4s4.6,0.4,4.4-3.4c-0.3-5.8,0-11.7-0.1-17.5
		c-0.1-9.3-5.3-14.5-14.5-14.6C150.4,16.1,142.1,16.2,133.7,16.2z M133.9,33.9c-6.1,0-12.3,0.1-18.4-0.1c-2.9-0.1-4.3,0.4-4,3.7
		c0.3,3.5,0.2,7,0,10.5c-0.2,3,1,3.6,3.7,3.6c9-0.1,17.9,0.1,26.9-0.1c4.4-0.1,10.5,2,12.8-0.9c2.2-2.7,0.5-8.5,0.9-13
		c0.3-3.3-1.1-3.9-4-3.8C145.8,34.1,139.9,33.9,133.9,33.9z M133.6,144.3c4.8,0,9.6-0.2,14.4,0.1c3.4,0.2,3.4-1.7,3.1-4
		c-0.3-1.9,1.5-4.9-2.7-4.8c-9.9,0.2-19.9,0.1-29.8,0c-3.9-0.1-2.5,2.7-2.5,4.5c-0.1,1.9-1.1,4.5,2.7,4.3
		C123.7,144.2,128.6,144.3,133.6,144.3z M45.1,160.6c-0.3,3.1-0.9,6.7,5.7,6.1c8.6-0.8,7.5,0.8,7.5-5.8c0.1-7.7,0-7.7-5.9-7.7
		C45.1,153.2,45.1,153.2,45.1,160.6z M241.9,151.4c3.6,3.1,7,6,10.6,9.1c0-5.4,0-10.5,0-16C249.1,147.6,245.7,149.6,241.9,151.4z"/>
	<path class="st0" d="M226.3,126.8c1,3.7-0.8,4.3-4.1,4.4c-3.8,0.1-4.8-0.9-4.7-4.7c0.1-3.4,0.8-4.5,4.4-4.5
		C225.6,122.1,227.2,123,226.3,126.8z"/>
	<path class="st0" d="M191,127c1.3,4.6-1.8,3.9-4.7,4.2c-3.7,0.4-4.1-1.3-4.2-4.5c-0.2-3.9,1.2-4.5,4.7-4.6
		C190.8,122,191.7,123.6,191,127z"/>
	<path class="st0" d="M204.3,122.3c3.9-1,4.5,1,4.7,4.5c0.2,4.1-1.6,4.3-4.9,4.4c-3.5,0.1-4.4-1-4.3-4.4
		C199.8,123.4,200.3,121.3,204.3,122.3z"/>
	<path class="st0" d="M208.8,188.2c-3.6,11.5,2.6,21.4,13.2,29.7c3.6,2.8,6.5,6.7,10,9.8c2.9,2.6,0.4,3.7-1,4.9s-2.2,4.7-5.3,1.5
		c-7.9-8.1-16-16.1-24-24c-1.6-1.6-1.9-3.4-1.9-5.4c0-11.5,0.2-23-0.1-34.5c-0.1-4.1,2-3.6,4.6-3.7c2.7,0,4.8-0.2,4.5,3.8
		C208.5,175.4,208.8,180.6,208.8,188.2z"/>
</g>
</svg>
