<?xml version="1.0" encoding="utf-8"?>
<!-- Generator: Adobe Illustrator 19.1.0, SVG Export Plug-In . SVG Version: 6.00 Build 0)  -->
<svg version="1.1" id="Layer_1" xmlns="http://www.w3.org/2000/svg" xmlns:xlink="http://www.w3.org/1999/xlink" x="0px" y="0px"
	 viewBox="0 0 946 584" style="enable-background:new 0 0 946 584;" xml:space="preserve">
<style type="text/css">
	.st0{fill:#CACACA;}
	.st1{clip-path:url(#SVGID_2_);fill:#D7D7D7;}
	.st2{clip-path:url(#SVGID_2_);}
	.st3{fill:#A09F9F;}
	.st4{fill:#FFFFFF;stroke:#C3C3C3;stroke-miterlimit:10;}
	.st5{fill:#818181;}
	.st6{fill:#FFFFFF;stroke:#67A5A8;stroke-miterlimit:10;}
	.st7{fill:none;stroke:#67A5A8;stroke-miterlimit:10;}
	.st8{fill:#FFFFFF;stroke:#98C8C8;stroke-width:0.7375;stroke-miterlimit:10;}
	.st9{fill:#98C8C8;stroke:#FFFFFF;stroke-width:0.7375;stroke-miterlimit:10;}
	.st10{fill:#FFFFFF;}
	.st11{fill:none;stroke:#797979;stroke-width:1.3191;stroke-miterlimit:10;}
	.st12{fill:#797979;}
	.st13{fill:#F2A73B;}
	.st14{fill:url(#XMLID_2_);}
	.st15{fill:#F1A640;}
	.st16{opacity:0.6;}
	.st17{fill:url(#XMLID_3_);}
	.st18{fill:url(#XMLID_4_);}
	.st19{fill:url(#XMLID_5_);}
	.st20{fill:url(#XMLID_6_);}
	.st21{fill:url(#XMLID_7_);}
	.st22{fill:url(#XMLID_8_);}
	.st23{fill:url(#XMLID_9_);}
	.st24{fill:url(#XMLID_10_);}
	.st25{fill:url(#XMLID_11_);}
	.st26{fill:#87B25E;}
	.st27{fill:none;stroke:#C7C8C9;stroke-linecap:round;stroke-miterlimit:10;}
	.st28{fill:#575757;}
	.st29{fill:#DFDCDA;stroke:#C7C9CA;stroke-width:1.0389;stroke-miterlimit:10;}
	.st30{fill:#6E7071;}
	.st31{clip-path:url(#SVGID_6_);fill:#D7D7D7;}
	.st32{clip-path:url(#SVGID_6_);}
	.st33{font-family:'Roboto-Medium';}
	.st34{font-size:9.7266px;}
	.st35{font-family:'Roboto-Regular';}
	.st36{font-family:'FontAwesome';}
	.st37{fill:url(#XMLID_12_);}
	.st38{fill:url(#XMLID_13_);}
	.st39{fill:url(#XMLID_14_);}
	.st40{fill:url(#XMLID_15_);}
	.st41{fill:url(#XMLID_16_);}
	.st42{fill:url(#XMLID_17_);}
	.st43{fill:url(#XMLID_18_);}
	.st44{fill:url(#XMLID_19_);}
	.st45{fill:url(#XMLID_20_);}
	.st46{fill:url(#XMLID_21_);}
	.st47{font-family:'Roboto-Bold';}
	.st48{font-size:8.4297px;}
	.st49{fill:#F69321;}
	.st50{fill:#F9C88E;}
	.st51{font-size:8.6742px;}
	.st52{fill:#FFFFFF;stroke:#E0E0DF;stroke-width:1.2736;stroke-miterlimit:10;}
	.st53{fill:#474547;}
	.st54{font-size:12.0543px;}
	.st55{fill:#F4F4F4;}
	.st56{fill:#F19644;stroke:#E68324;stroke-miterlimit:10;}
	.st57{fill:none;}
	.st58{font-family:'FranklinGothic-Book';}
	.st59{font-size:11.3226px;}
	.st60{fill:#FFFFFF;stroke:#B0B0B0;stroke-width:0.25;stroke-miterlimit:10;}
	.st61{fill:#EEEBE7;}
	.st62{fill:none;stroke:#686969;stroke-width:0.3528;stroke-miterlimit:10;}
	.st63{fill:none;stroke:#686969;stroke-width:0.5383;stroke-miterlimit:10;}
	.st64{fill:#595A5C;}
	.st65{font-size:13px;}
	.st66{fill:#454545;}
	.st67{font-size:14px;}
	.st68{fill:#555555;}
	.st69{font-family:'ITCFranklinGothicStd-Demi';}
	.st70{font-size:12.2362px;}
	.st71{fill:none;stroke:#6B6C6C;stroke-width:0.5;stroke-miterlimit:10;}
	.st72{fill:none;stroke:#6B6C6C;stroke-width:0.5411;stroke-miterlimit:10;}
	.st73{fill:none;stroke:#6B6C6C;stroke-width:0.3974;stroke-miterlimit:10;}
	.st74{fill:#848484;}
	.st75{font-family:'Roboto-Italic';}
	.st76{font-size:12px;}
	.st77{clip-path:url(#SVGID_8_);fill:#D7D7D7;}
	.st78{clip-path:url(#SVGID_8_);}
	.st79{fill:url(#XMLID_22_);}
	.st80{fill:url(#XMLID_23_);}
	.st81{fill:url(#XMLID_24_);}
	.st82{fill:url(#XMLID_25_);}
	.st83{fill:url(#XMLID_26_);}
	.st84{fill:url(#XMLID_27_);}
	.st85{fill:url(#XMLID_28_);}
	.st86{fill:url(#XMLID_29_);}
	.st87{fill:url(#XMLID_30_);}
	.st88{fill:url(#XMLID_31_);}
	.st89{fill:#EFEFF0;}
	.st90{fill:#68A8AB;}
	.st91{fill:#454646;}
	.st92{fill:#8B8E91;}
	.st93{fill:#6E6D6E;}
	.st94{fill:#FFFFFF;stroke:#E0E0DF;stroke-width:0.7553;stroke-miterlimit:10;}
	.st95{fill:#E0EDEC;}
	.st96{fill:#6E6F72;}
	.st97{fill:#C9CBCC;}
	.st98{clip-path:url(#SVGID_10_);fill:#D7D7D7;}
	.st99{clip-path:url(#SVGID_10_);}
	.st100{fill:url(#XMLID_32_);}
	.st101{fill:url(#XMLID_33_);}
	.st102{fill:url(#XMLID_34_);}
	.st103{fill:url(#XMLID_35_);}
	.st104{fill:url(#XMLID_36_);}
	.st105{fill:url(#XMLID_37_);}
	.st106{fill:url(#XMLID_38_);}
	.st107{fill:url(#XMLID_39_);}
	.st108{fill:url(#XMLID_40_);}
	.st109{fill:url(#XMLID_41_);}
	.st110{opacity:0.87;}
	.st111{clip-path:url(#SVGID_12_);fill:#4A4A4A;}
	.st112{fill:#FFFFFF;stroke:#D7D7D7;stroke-width:2;stroke-miterlimit:10;}
	.st113{fill:#E48125;}
	.st114{fill:#FFFFFF;stroke:#D1D2D3;stroke-width:1.0021;stroke-miterlimit:10;}
	.st115{fill:#FFFFFF;stroke:#D1D2D3;stroke-width:1.0734;stroke-miterlimit:10;}
	.st116{fill:none;stroke:#595A5C;stroke-width:1.1239;stroke-miterlimit:10;}
	.st117{fill:#FFFFFF;stroke:#D1D2D3;stroke-width:0.8975;stroke-miterlimit:10;}
	.st118{fill:#B4B4B4;}
	.st119{fill:#FFFFFF;stroke:#B3B3B3;stroke-width:0.75;stroke-miterlimit:10;}
	.st120{fill:none;stroke:#808080;stroke-width:0.25;stroke-miterlimit:10;}
	.st121{clip-path:url(#SVGID_14_);fill:#D7D7D7;}
	.st122{clip-path:url(#SVGID_14_);}
	.st123{fill:#67A5A8;}
	.st124{fill:url(#XMLID_42_);}
	.st125{fill:url(#XMLID_43_);}
	.st126{fill:url(#XMLID_44_);}
	.st127{fill:url(#XMLID_45_);}
	.st128{fill:url(#XMLID_46_);}
	.st129{fill:url(#XMLID_47_);}
	.st130{fill:url(#XMLID_48_);}
	.st131{fill:url(#XMLID_49_);}
	.st132{fill:url(#XMLID_50_);}
	.st133{fill:url(#XMLID_51_);}
	.st134{clip-path:url(#SVGID_18_);fill:#D7D7D7;}
	.st135{clip-path:url(#SVGID_18_);}
	.st136{fill:url(#XMLID_52_);}
	.st137{fill:url(#XMLID_53_);}
	.st138{fill:url(#XMLID_54_);}
	.st139{fill:url(#XMLID_55_);}
	.st140{fill:url(#XMLID_56_);}
	.st141{fill:url(#XMLID_57_);}
	.st142{fill:url(#XMLID_58_);}
	.st143{fill:url(#XMLID_59_);}
	.st144{fill:url(#XMLID_60_);}
	.st145{fill:url(#XMLID_61_);}
	.st146{fill:#69B9BD;}
	.st147{fill:none;stroke:#B4B6B8;stroke-width:1.7593;stroke-miterlimit:10;}
	.st148{fill:#5A5A5D;}
	.st149{fill:none;stroke:#D2D3D3;stroke-width:0.7618;stroke-miterlimit:10;}
	.st150{fill:#67ADB1;}
	.st151{clip-path:url(#SVGID_24_);}
	.st152{clip-path:url(#SVGID_24_);fill:none;stroke:#D2D3D3;stroke-width:0.8871;stroke-miterlimit:10;}
	.st153{fill:#F59222;}
	.st154{fill:#DFDCDA;stroke:#C7C9CA;stroke-width:0.8921;stroke-miterlimit:10;}
	.st155{clip-path:url(#SVGID_26_);fill:#D7D7D7;}
	.st156{clip-path:url(#SVGID_26_);}
	.st157{fill:url(#XMLID_62_);}
	.st158{fill:url(#XMLID_63_);}
	.st159{fill:url(#XMLID_64_);}
	.st160{fill:url(#XMLID_65_);}
	.st161{fill:url(#XMLID_66_);}
	.st162{fill:url(#XMLID_67_);}
	.st163{fill:url(#XMLID_68_);}
	.st164{fill:url(#XMLID_69_);}
	.st165{fill:url(#XMLID_70_);}
	.st166{fill:url(#XMLID_71_);}
	.st167{clip-path:url(#SVGID_30_);}
	.st168{fill:#F5F6F7;}
	.st169{fill:#FFFFFF;stroke:#E6E6E5;stroke-miterlimit:10;}
	.st170{fill:#FFEFDD;}
	.st171{fill:#898989;}
	.st172{fill:#676767;stroke:#E6E6E5;stroke-width:1.1239;stroke-miterlimit:10;}
	.st173{fill:#68BBBE;}
	.st174{fill:none;stroke:#D34550;stroke-width:1.1239;stroke-miterlimit:10;}
	.st175{fill:#67AEB2;}
	.st176{fill:#FFFFFF;stroke:#D1D2D3;stroke-width:1.1239;stroke-miterlimit:10;}
	.st177{fill:none;stroke:#818181;stroke-width:1.1239;stroke-miterlimit:10;}
	.st178{fill:#CFCFCE;}
	.st179{fill:none;stroke:#989798;stroke-width:2.2477;stroke-miterlimit:10;}
	.st180{fill:#EC704F;}
	.st181{fill:#FFFFFF;stroke:#B3B3B3;stroke-miterlimit:10;}
	.st182{fill:#989898;}
	.st183{fill:#D34550;}
	.st184{fill:#85C442;}
	.st185{fill:none;stroke:#FFFFFF;stroke-width:2.2477;stroke-miterlimit:10;}
	.st186{fill:#D1D2D3;}
	.st187{fill:none;stroke:#D1D2D3;stroke-width:2.2477;stroke-miterlimit:10;}
	.st188{fill:#FFFFFF;stroke:#E6E6E5;stroke-width:3;stroke-miterlimit:10;}
	.st189{clip-path:url(#SVGID_34_);fill:#D7D7D7;}
	.st190{clip-path:url(#SVGID_34_);}
	.st191{fill:url(#XMLID_72_);}
	.st192{fill:url(#XMLID_73_);}
	.st193{fill:url(#XMLID_74_);}
	.st194{fill:url(#XMLID_75_);}
	.st195{fill:url(#XMLID_76_);}
	.st196{fill:url(#XMLID_77_);}
	.st197{fill:url(#XMLID_78_);}
	.st198{fill:url(#XMLID_79_);}
	.st199{fill:url(#XMLID_80_);}
	.st200{fill:url(#XMLID_81_);}
	.st201{fill:#676868;}
	.st202{fill:none;stroke:#CDCBCA;stroke-miterlimit:10;}
	.st203{fill:none;stroke:#CDCBCA;stroke-width:0.907;stroke-miterlimit:10;}
	.st204{fill:#5590CC;}
	.st205{fill:none;stroke:#FFFFFF;stroke-width:1.748;stroke-linecap:round;stroke-miterlimit:10;}
	.st206{fill:#F4F5F6;}
	.st207{fill:#D1D2D2;}
	.st208{fill:#969696;}
	.st209{fill:none;stroke:#DDDDDC;stroke-miterlimit:10;}
	.st210{fill:none;stroke:#D1D2D2;stroke-miterlimit:10;}
	.st211{fill:#454647;}
	.st212{fill:#49A3A7;}
	.st213{opacity:0.5;}
	.st214{fill:none;stroke:#010101;stroke-width:1.3195;stroke-miterlimit:10;}
	.st215{fill:none;stroke:#E09FBF;stroke-width:1.3195;stroke-miterlimit:10;}
	.st216{fill:#E09FBF;}
	.st217{opacity:0.75;}
	.st218{opacity:0.75;fill:#E09FBF;}
	.st219{fill:none;stroke:#A2D7BC;stroke-width:1.3195;stroke-miterlimit:10;}
	.st220{fill:#A2D7BC;}
	.st221{opacity:0.75;fill:#A2D7BC;}
	.st222{opacity:0.75;fill:#BC9FCB;}
	.st223{fill:none;stroke:#BC9FCB;stroke-width:1.3195;stroke-miterlimit:10;}
	.st224{fill:#BC9FCB;}
	.st225{fill:none;stroke:#C0DE9F;stroke-width:1.3195;stroke-miterlimit:10;}
	.st226{fill:#C0DE9F;}
	.st227{opacity:0.75;fill:#C0DE9F;}
	.st228{opacity:0.75;fill:#9EBEDC;}
	.st229{fill:none;stroke:#9EBEDC;stroke-width:1.3195;stroke-miterlimit:10;}
	.st230{fill:#9EBEDC;}
	.st231{opacity:0.75;fill:#DEBE9E;}
	.st232{fill:none;stroke:#DEBE9E;stroke-width:1.3195;stroke-miterlimit:10;}
	.st233{fill:#DEBE9E;}
	.st234{opacity:0.75;fill:#010101;}
	.st235{fill:none;stroke:#010101;stroke-miterlimit:10;}
	.st236{clip-path:url(#SVGID_40_);fill:#FFFFFF;}
	.st237{clip-path:url(#SVGID_40_);fill:none;stroke:#CDCBCA;stroke-width:0.662;stroke-miterlimit:10;}
	.st238{clip-path:url(#SVGID_40_);}
	.st239{fill:#CDCBCA;}
	.st240{clip-path:url(#SVGID_40_);fill:#454647;}
	.st241{clip-path:url(#SVGID_40_);fill:none;stroke:#676868;stroke-width:0.662;stroke-miterlimit:10;}
	.st242{fill:none;stroke:#D1D2D2;stroke-width:0.6639;stroke-miterlimit:10;}
	.st243{fill:none;stroke:#676868;stroke-width:0.662;stroke-miterlimit:10;}
	.st244{clip-path:url(#SVGID_40_);fill:none;stroke:#D1D2D2;stroke-width:0.6639;stroke-miterlimit:10;}
</style>
<g>
	<defs>
		<path id="SVGID_1_" d="M-78.6,582.6h-934.2c-1.7,0-3-1.3-3-3V5.3c0-1.7,1.3-3,3-3h934.2c1.7,0,3,1.3,3,3v574.3
			C-75.6,581.3-77,582.6-78.6,582.6z"/>
	</defs>
	<use xlink:href="#SVGID_1_"  style="overflow:visible;fill:#FFFFFF;"/>
	<clipPath id="SVGID_2_">
		<use xlink:href="#SVGID_1_"  style="overflow:visible;"/>
	</clipPath>
	<rect x="-609.5" y="539" class="st1" width="975.2" height="34.9"/>
	<use xlink:href="#SVGID_1_"  style="overflow:visible;fill:none;stroke:#D3D3D3;stroke-width:1.1757;stroke-miterlimit:10;"/>
</g>
<g>
	<defs>
		<path id="SVGID_5_" d="M939.4,582.6H5.2c-1.7,0-3-1.3-3-3V5.3c0-1.7,1.3-3,3-3h934.2c1.7,0,3,1.3,3,3v574.3
			C942.4,581.3,941,582.6,939.4,582.6z"/>
	</defs>
	<use xlink:href="#SVGID_5_"  style="overflow:visible;fill:#FFFFFF;"/>
	<clipPath id="SVGID_4_">
		<use xlink:href="#SVGID_5_"  style="overflow:visible;"/>
	</clipPath>
	<rect x="-15.5" y="-1" style="clip-path:url(#SVGID_4_);fill:#D7D7D7;" width="975.2" height="34.9"/>
	<g style="clip-path:url(#SVGID_4_);">
		<circle class="st3" cx="23.1" cy="18.3" r="4.1"/>
		<circle class="st3" cx="38.8" cy="18.3" r="4.1"/>
		<circle class="st3" cx="54.4" cy="18.3" r="4.1"/>
	</g>
	<use xlink:href="#SVGID_5_"  style="overflow:visible;fill:none;stroke:#D3D3D3;stroke-width:1.1757;stroke-miterlimit:10;"/>
</g>
<rect x="2" y="75" class="st5" width="941" height="0"/>
<g>
	<line class="st11" x1="47.8" y1="55" x2="54.4" y2="55"/>
	<line class="st11" x1="47.8" y1="60.2" x2="54.4" y2="60.2"/>
	<line class="st11" x1="47.8" y1="57.6" x2="54.4" y2="57.6"/>
</g>
<text transform="matrix(1 0 0 1 63.9673 61.2451)" class="st12 st33 st34">Dashboard</text>
<text transform="matrix(1 0 0 1 752.1167 60.5947)" class="st12 st35 st34">Help</text>
<text transform="matrix(1 0 0 1 814.144 60.5947)"><tspan x="0" y="0" class="st12 st35 st34">yourpeopledemo </tspan><tspan x="75" y="0" class="st12 st36 st34"></tspan></text>
<g>
	<g id="XMLID_267_">
		<polygon id="XMLID_268_" class="st13" points="475.5,57.1 479.3,45.4 473.5,48.4 468.2,56.2 474.7,58.5 		"/>
	</g>
	<g id="XMLID_265_">
		<linearGradient id="XMLID_2_" gradientUnits="userSpaceOnUse" x1="477.1544" y1="57.2257" x2="472.6818" y2="48.814">
			<stop  offset="0" style="stop-color:#F2A73B"/>
			<stop  offset="1" style="stop-color:#FFFFFF"/>
		</linearGradient>
		<polygon id="XMLID_266_" class="st14" points="475.5,57.1 479.3,45.4 473.5,48.4 468.2,56.2 474.7,58.5 		"/>
	</g>
	<g id="XMLID_260_">
		<polygon id="XMLID_264_" class="st15" points="475.1,63.7 479.9,63.7 481.4,68.2 486.2,68.2 482,63 482.2,62.6 478.7,58.2 
			478.7,58.3 478.9,56.9 487.9,46.8 480.7,47.3 471.9,55 		"/>
		<g id="XMLID_261_" class="st16">
			
				<linearGradient id="XMLID_3_" gradientUnits="userSpaceOnUse" x1="-7845.7886" y1="703.8598" x2="-7844.9531" y2="703.1586" gradientTransform="matrix(0.9287 -0.3707 0.3707 0.9287 7505.8804 -3497.7539)">
				<stop  offset="8.510050e-02" style="stop-color:#FFFFFF"/>
				<stop  offset="1" style="stop-color:#EC8923"/>
			</linearGradient>
			<polygon id="XMLID_263_" class="st17" points="479.9,63.7 481.6,63.7 480,64.1 			"/>
			
				<linearGradient id="XMLID_4_" gradientUnits="userSpaceOnUse" x1="-7846.3496" y1="705.4963" x2="-7843.5962" y2="705.4963" gradientTransform="matrix(0.9287 -0.3707 0.3707 0.9287 7505.8804 -3497.7539)">
				<stop  offset="0" style="stop-color:#EC8923"/>
				<stop  offset="9.893174e-02" style="stop-color:#ED8F2F"/>
				<stop  offset="0.2785" style="stop-color:#F0A14F"/>
				<stop  offset="0.5183" style="stop-color:#F4BD84"/>
				<stop  offset="0.8059" style="stop-color:#FAE3CB"/>
				<stop  offset="1" style="stop-color:#FFFFFF"/>
			</linearGradient>
			<polygon id="XMLID_262_" class="st18" points="481.4,68.2 482.4,63.4 482,63 			"/>
		</g>
	</g>
	<g id="XMLID_253_">
		<polygon id="XMLID_259_" class="st15" points="475.1,63.7 468.6,60.8 467.1,57.7 461.3,55.9 456.9,55.3 462.2,55.3 464.9,53.1 
			471.9,55 		"/>
		
			<linearGradient id="XMLID_5_" gradientUnits="userSpaceOnUse" x1="1077.6215" y1="183.6612" x2="1078.4532" y2="183.9804" gradientTransform="matrix(-0.9973 7.380000e-02 7.380000e-02 0.9973 1523.299 -207.3709)">
			<stop  offset="0" style="stop-color:#FFFFFF"/>
			<stop  offset="1" style="stop-color:#EC8923"/>
		</linearGradient>
		<polygon id="XMLID_257_" class="st19" points="461.4,55.8 461.7,55.4 462.1,55.3 		"/>
		
			<linearGradient id="XMLID_6_" gradientUnits="userSpaceOnUse" x1="1073.6354" y1="186.4343" x2="1073.9617" y2="181.768" gradientTransform="matrix(-0.9973 7.380000e-02 7.380000e-02 0.9973 1523.299 -207.3709)">
			<stop  offset="0" style="stop-color:#FFFFFF"/>
			<stop  offset="1" style="stop-color:#F2A73B"/>
		</linearGradient>
		<polygon id="XMLID_255_" class="st20" points="466.5,57.5 464.9,53.3 467.1,57.7 		"/>
		
			<linearGradient id="XMLID_7_" gradientUnits="userSpaceOnUse" x1="1068.6035" y1="183.8213" x2="1070.8027" y2="189.8638" gradientTransform="matrix(-0.9973 7.380000e-02 7.380000e-02 0.9973 1523.299 -207.3709)">
			<stop  offset="0" style="stop-color:#FFFFFF;stop-opacity:0.3"/>
			<stop  offset="1" style="stop-color:#EC8923"/>
		</linearGradient>
		<polygon id="XMLID_254_" class="st21" points="471.9,55 468.6,60.8 471.3,54.9 		"/>
	</g>
	
		<linearGradient id="XMLID_8_" gradientUnits="userSpaceOnUse" x1="468.3175" y1="181.8809" x2="467.0706" y2="181.4271" gradientTransform="matrix(0.9973 -7.380000e-02 7.380000e-02 0.9973 0.1427 -94.3044)">
		<stop  offset="0" style="stop-color:#FFFFFF"/>
		<stop  offset="1" style="stop-color:#EC8923"/>
	</linearGradient>
	<polygon id="XMLID_252_" class="st22" points="478.9,56.9 480.6,47.6 479.6,56.2 	"/>
	
		<linearGradient id="XMLID_9_" gradientUnits="userSpaceOnUse" x1="-7847.9141" y1="699.1821" x2="-7847.1826" y2="700.0462" gradientTransform="matrix(0.9287 -0.3707 0.3707 0.9287 7505.8804 -3497.7539)">
		<stop  offset="0" style="stop-color:#EC8923"/>
		<stop  offset="0.8995" style="stop-color:#FFFFFF"/>
	</linearGradient>
	<polygon id="XMLID_251_" class="st23" points="475.2,63.6 479.1,58.7 478.7,58.2 	"/>
</g>
<circle class="st26" cx="793.9" cy="57.2" r="10.7"/>
<text transform="matrix(1 0 0 1 788.1743 60.5947)" class="st10 st47 st48">YD</text>
<rect x="2.3" y="75" class="st49" width="940" height="31.4"/>
<text transform="matrix(1 0 0 1 103.7114 95.6455)" class="st50 st33 st51">Overview</text>
<text transform="matrix(1 0 0 1 185.2773 95.6455)" class="st50 st33 st51">Insurance Cards</text>
<text transform="matrix(1 0 0 1 296.1138 95.6455)" class="st50 st33 st51">Dependents</text>
<polygon class="st10" points="586.3,109 579.7,103.2 573,109 "/>
<text transform="matrix(1 0 0 1 379.0449 95.6455)" class="st50 st33 st51">Change Plan</text>
<text transform="matrix(1 0 0 1 466.1465 95.6455)" class="st50 st33 st51">Cancel Coverage</text>
<text transform="matrix(1 0 0 1 565.5215 95.6455)" class="st50 st33 st51">Apply</text>
<g>
	<line class="st52" x1="112.3" y1="168.9" x2="833.1" y2="168.9"/>
</g>
<g>
	<text transform="matrix(1 0 0 1 133.0576 150.1836)" class="st53 st33 st54">REVIEW YOUR OFFER LETTER </text>
</g>
<rect x="584" y="187" class="st55" width="250" height="300.9"/>
<path class="st56" d="M768.8,417.7H648.4c-1.1,0-2-0.9-2-2V387c0-1.1,0.9-2,2-2h120.4c1.1,0,2,0.9,2,2v28.6
	C770.8,416.8,769.9,417.7,768.8,417.7z"/>
<rect x="646.8" y="397.7" class="st57" width="123.4" height="14.3"/>
<text transform="matrix(1 0 0 1 695.1606 405.2686)" class="st10 st58 st59">SIGN</text>
<rect x="610" y="271" class="st60" width="201" height="92"/>
<rect x="117" y="186" class="st61" width="423.1" height="395.9"/>
<rect x="136.1" y="204.9" class="st10" width="384" height="376.9"/>
<line class="st62" x1="618.3" y1="328.7" x2="805.3" y2="328.7"/>
<path class="st63" d="M669.7,332c-21.7,2.4-11.2-23.3-7.7-34.1c0.4,10.5,0.7,20.9,1.1,31.4c0.2,6.4,2.8,19.3-4.4,23
	c-1.3,0.7-3.1,0.8-4-0.3c-0.4-0.5-0.6-1.2-0.7-1.9c-1.6-9.8,1.7-19.7,6-28.6c1.7-3.5,3.7-7.1,7.1-8.8c-2.2,5.2-3.3,10.7-3.5,16.3
	c3-2.4,4.9-6,5.2-9.8c-1,0.8-1.6,2.2-1.4,3.5c5.2-5.1,7.6-12.9,6.2-20c-1.5,0.6-2.1,2.4-2.3,4c-1.4,7.8-1.7,15.9-0.9,23.8
	c2.4-4.4,4.4-9,5.9-13.7c0.7,2.9,1.4,5.8,2.1,8.7c2.2-3.1,3.5-6.9,3.8-10.7c-0.3,3.7-0.5,8,0.2,11.6c1.9-2.6,3.1-5.7,4.7-8.6
	c0.7,1.5,0.7,3.1,0.9,4.7c0.2,1.6,0.9,3.3,2.3,4.1c5.5,2.8,6.2-14.6,5.6-17.5c0,0,0,0,0,0c-2-9-12.6,5.4-12.5,9.6
	c1.2-1,2.4-2.1,3.6-3.1"/>
<path class="st63" d="M716,295.6c0,12.6,0.8,25.3,2.4,37.8c0.3,2.5,9.3-3.9,10.1-5c2.9-4.5,2-10.3,0.3-15.1
	c-2.9-8.1-7.9-15.5-14.4-21.2c-2.1-1.9-4.4-3.6-7.1-4.5c-2.7-0.9-5.8-0.8-8.2,0.7c-8.1,5.2-10.7,24.2-6.2,31.9
	c4.9,8.3,16.2,10.2,24.9,8.6c6.3-1.2,15.1-4.8,16.6-11.8c-6-0.5-12,5.7-14,11c7.2,2.9,16.4-1.3,18.9-8.7c-1.8,3-1.9,7.1-0.2,10.2
	c0.4,0.7,0.9,1.4,1.7,1.7c0.6,0.2,1.2,0.2,1.9,0.1c6.7-0.7,13.6-5.9,16.2-12.5"/>
<rect x="584" y="187" class="st61" width="250" height="44"/>
<g>
	<text transform="matrix(1 0 0 1 643.8953 213.7051)" class="st64 st35 st65">E-sign your offer letter</text>
</g>
<rect x="163" y="270" class="st57" width="334" height="43"/>
<text transform="matrix(1 0 0 1 163 280.5)"><tspan x="0" y="0" class="st66 st35 st67">The Company is pleased to offer you employment on </tspan><tspan x="0" y="21" class="st66 st35 st67">the following terms:</tspan></text>
<rect x="167" y="335.3" class="st57" width="237" height="21.7"/>
<text transform="matrix(1 0 0 1 166.9653 347.5723)" class="st68 st69 st70">POSITION AND START DATE</text>
<rect x="163" y="364" class="st57" width="334" height="131"/>
<text transform="matrix(1 0 0 1 163 373.75)"><tspan x="0" y="0" class="st66 st35 st65">Beginning August 28, 2015, you will serve in full time </tspan><tspan x="0" y="19" class="st66 st35 st65">capacity as Account Manager. </tspan></text>
<line class="st71" x1="165" y1="355" x2="317" y2="355"/>
<rect x="167" y="415.3" class="st57" width="237" height="21.7"/>
<text transform="matrix(1 0 0 1 166.9653 427.5723)" class="st68 st69 st70">compensation and benefits</text>
<rect x="163" y="444" class="st57" width="334" height="131"/>
<text transform="matrix(1 0 0 1 163 453.75)"><tspan x="0" y="0" class="st66 st35 st65">You will be paid a starting salary of $70,000 per year. plus </tspan><tspan x="0" y="19" class="st66 st35 st65">a number of company sponsored benefits.</tspan></text>
<line class="st72" x1="165" y1="435" x2="343" y2="435"/>
<rect x="167" y="495.3" class="st57" width="237" height="21.7"/>
<text transform="matrix(1 0 0 1 166.9653 507.5723)" class="st68 st69 st70">STOCK OPTIONS</text>
<rect x="163" y="524" class="st57" width="334" height="131"/>
<text transform="matrix(1 0 0 1 163 533.75)"><tspan x="0" y="0" class="st66 st35 st65">You will be granted an option to purchase 1,000 shares of </tspan><tspan x="0" y="19" class="st66 st35 st65">Company’s Common Stock.</tspan></text>
<line class="st73" x1="165" y1="515" x2="261" y2="515"/>
<rect x="163" y="223" class="st57" width="334" height="43"/>
<text transform="matrix(1 0 0 1 304.1328 232)" class="st74 st75 st76">sent via email to john.doe@mail.com</text>
</svg>
