<?xml version="1.0" encoding="utf-8"?>
<!-- Generator: Adobe Illustrator 19.1.0, SVG Export Plug-In . SVG Version: 6.00 Build 0)  -->
<svg version="1.1" id="Layer_1" xmlns="http://www.w3.org/2000/svg" xmlns:xlink="http://www.w3.org/1999/xlink" x="0px" y="0px"
	 viewBox="0 0 946 584" style="enable-background:new 0 0 946 584;" xml:space="preserve">
<style type="text/css">
	.st0{fill:#CACACA;}
	.st1{clip-path:url(#SVGID_2_);fill:#D7D7D7;}
	.st2{clip-path:url(#SVGID_2_);}
	.st3{fill:#A09F9F;}
	.st4{fill:#FFFFFF;stroke:#C3C3C3;stroke-miterlimit:10;}
	.st5{fill:#818181;}
	.st6{fill:#FFFFFF;stroke:#67A5A8;stroke-miterlimit:10;}
	.st7{fill:none;stroke:#67A5A8;stroke-miterlimit:10;}
	.st8{fill:#FFFFFF;stroke:#98C8C8;stroke-width:0.7375;stroke-miterlimit:10;}
	.st9{fill:#98C8C8;stroke:#FFFFFF;stroke-width:0.7375;stroke-miterlimit:10;}
	.st10{fill:#FFFFFF;}
	.st11{fill:none;stroke:#797979;stroke-width:1.3191;stroke-miterlimit:10;}
	.st12{fill:#797979;}
	.st13{fill:#F2A73B;}
	.st14{fill:url(#XMLID_2_);}
	.st15{fill:#F1A640;}
	.st16{opacity:0.6;}
	.st17{fill:url(#XMLID_3_);}
	.st18{fill:url(#XMLID_4_);}
	.st19{fill:url(#XMLID_5_);}
	.st20{fill:url(#XMLID_6_);}
	.st21{fill:url(#XMLID_7_);}
	.st22{fill:url(#XMLID_8_);}
	.st23{fill:url(#XMLID_9_);}
	.st24{fill:url(#XMLID_10_);}
	.st25{fill:url(#XMLID_11_);}
	.st26{fill:#87B25E;}
	.st27{fill:none;stroke:#C7C8C9;stroke-linecap:round;stroke-miterlimit:10;}
	.st28{fill:#575757;}
	.st29{fill:#DFDCDA;stroke:#C7C9CA;stroke-width:1.0389;stroke-miterlimit:10;}
	.st30{fill:#6E7071;}
	.st31{clip-path:url(#SVGID_6_);fill:#D7D7D7;}
	.st32{clip-path:url(#SVGID_6_);}
	.st33{fill:url(#XMLID_12_);}
	.st34{fill:url(#XMLID_13_);}
	.st35{fill:url(#XMLID_14_);}
	.st36{fill:url(#XMLID_15_);}
	.st37{fill:url(#XMLID_16_);}
	.st38{fill:url(#XMLID_17_);}
	.st39{fill:url(#XMLID_18_);}
	.st40{fill:url(#XMLID_19_);}
	.st41{fill:url(#XMLID_20_);}
	.st42{fill:url(#XMLID_21_);}
	.st43{fill:#F69321;}
	.st44{fill:#F9C88E;}
	.st45{fill:#FFFFFF;stroke:#E0E0DF;stroke-width:1.2736;stroke-miterlimit:10;}
	.st46{fill:#474547;}
	.st47{fill:#F4F4F4;}
	.st48{fill:#F19644;stroke:#E68324;stroke-miterlimit:10;}
	.st49{fill:#FFFFFF;stroke:#B0B0B0;stroke-width:0.25;stroke-miterlimit:10;}
	.st50{fill:#EEEBE7;}
	.st51{fill:none;stroke:#686969;stroke-width:0.3528;stroke-miterlimit:10;}
	.st52{fill:none;stroke:#686969;stroke-width:0.5383;stroke-miterlimit:10;}
	.st53{fill:#595A5C;}
	.st54{fill:#454545;}
	.st55{fill:#555555;}
	.st56{fill:none;stroke:#6B6C6C;stroke-width:0.5;stroke-miterlimit:10;}
	.st57{fill:none;stroke:#6B6C6C;stroke-width:0.5411;stroke-miterlimit:10;}
	.st58{fill:none;stroke:#6B6C6C;stroke-width:0.3974;stroke-miterlimit:10;}
	.st59{fill:#848484;}
	.st60{clip-path:url(#SVGID_8_);fill:#D7D7D7;}
	.st61{clip-path:url(#SVGID_8_);}
	.st62{fill:url(#XMLID_22_);}
	.st63{fill:url(#XMLID_23_);}
	.st64{fill:url(#XMLID_24_);}
	.st65{fill:url(#XMLID_25_);}
	.st66{fill:url(#XMLID_26_);}
	.st67{fill:url(#XMLID_27_);}
	.st68{fill:url(#XMLID_28_);}
	.st69{fill:url(#XMLID_29_);}
	.st70{fill:url(#XMLID_30_);}
	.st71{fill:url(#XMLID_31_);}
	.st72{fill:#EFEFF0;}
	.st73{fill:#68A8AB;}
	.st74{fill:#454646;}
	.st75{fill:#8B8E91;}
	.st76{fill:#6E6D6E;}
	.st77{fill:#FFFFFF;stroke:#E0E0DF;stroke-width:0.7553;stroke-miterlimit:10;}
	.st78{fill:#E0EDEC;}
	.st79{fill:#6E6F72;}
	.st80{fill:#C9CBCC;}
	.st81{clip-path:url(#SVGID_10_);fill:#D7D7D7;}
	.st82{clip-path:url(#SVGID_10_);}
	.st83{fill:url(#XMLID_32_);}
	.st84{fill:url(#XMLID_33_);}
	.st85{fill:url(#XMLID_34_);}
	.st86{fill:url(#XMLID_35_);}
	.st87{fill:url(#XMLID_36_);}
	.st88{fill:url(#XMLID_37_);}
	.st89{fill:url(#XMLID_38_);}
	.st90{fill:url(#XMLID_39_);}
	.st91{fill:url(#XMLID_40_);}
	.st92{fill:url(#XMLID_41_);}
	.st93{opacity:0.87;}
	.st94{clip-path:url(#SVGID_12_);fill:#4A4A4A;}
	.st95{fill:#FFFFFF;stroke:#D7D7D7;stroke-width:2;stroke-miterlimit:10;}
	.st96{fill:#E48125;}
	.st97{fill:#FFFFFF;stroke:#D1D2D3;stroke-width:1.0021;stroke-miterlimit:10;}
	.st98{fill:#FFFFFF;stroke:#D1D2D3;stroke-width:1.0734;stroke-miterlimit:10;}
	.st99{fill:none;stroke:#595A5C;stroke-width:1.1239;stroke-miterlimit:10;}
	.st100{fill:#FFFFFF;stroke:#D1D2D3;stroke-width:0.8975;stroke-miterlimit:10;}
	.st101{fill:#B4B4B4;}
	.st102{fill:#FFFFFF;stroke:#B3B3B3;stroke-width:0.75;stroke-miterlimit:10;}
	.st103{fill:none;stroke:#808080;stroke-width:0.25;stroke-miterlimit:10;}
	.st104{clip-path:url(#SVGID_14_);fill:#D7D7D7;}
	.st105{clip-path:url(#SVGID_14_);}
	.st106{fill:#67A5A8;}
	.st107{fill:url(#XMLID_42_);}
	.st108{fill:url(#XMLID_43_);}
	.st109{fill:url(#XMLID_44_);}
	.st110{fill:url(#XMLID_45_);}
	.st111{fill:url(#XMLID_46_);}
	.st112{fill:url(#XMLID_47_);}
	.st113{fill:url(#XMLID_48_);}
	.st114{fill:url(#XMLID_49_);}
	.st115{fill:url(#XMLID_50_);}
	.st116{fill:url(#XMLID_51_);}
	.st117{clip-path:url(#SVGID_18_);fill:#D7D7D7;}
	.st118{clip-path:url(#SVGID_18_);}
	.st119{fill:url(#XMLID_52_);}
	.st120{fill:url(#XMLID_53_);}
	.st121{fill:url(#XMLID_54_);}
	.st122{fill:url(#XMLID_55_);}
	.st123{fill:url(#XMLID_56_);}
	.st124{fill:url(#XMLID_57_);}
	.st125{fill:url(#XMLID_58_);}
	.st126{fill:url(#XMLID_59_);}
	.st127{fill:url(#XMLID_60_);}
	.st128{fill:url(#XMLID_61_);}
	.st129{fill:#69B9BD;}
	.st130{fill:none;stroke:#B4B6B8;stroke-width:1.7593;stroke-miterlimit:10;}
	.st131{fill:#5A5A5D;}
	.st132{fill:none;stroke:#D2D3D3;stroke-width:0.7618;stroke-miterlimit:10;}
	.st133{fill:#67ADB1;}
	.st134{clip-path:url(#SVGID_24_);}
	.st135{clip-path:url(#SVGID_24_);fill:none;stroke:#D2D3D3;stroke-width:0.8871;stroke-miterlimit:10;}
	.st136{fill:#F59222;}
	.st137{fill:#DFDCDA;stroke:#C7C9CA;stroke-width:0.8921;stroke-miterlimit:10;}
	.st138{clip-path:url(#SVGID_26_);fill:#D7D7D7;}
	.st139{clip-path:url(#SVGID_26_);}
	.st140{font-family:'Roboto-Medium';}
	.st141{font-size:9.7266px;}
	.st142{font-family:'Roboto-Regular';}
	.st143{font-family:'FontAwesome';}
	.st144{fill:url(#XMLID_62_);}
	.st145{fill:url(#XMLID_63_);}
	.st146{fill:url(#XMLID_64_);}
	.st147{fill:url(#XMLID_65_);}
	.st148{fill:url(#XMLID_66_);}
	.st149{fill:url(#XMLID_67_);}
	.st150{fill:url(#XMLID_68_);}
	.st151{fill:url(#XMLID_69_);}
	.st152{fill:url(#XMLID_70_);}
	.st153{fill:url(#XMLID_71_);}
	.st154{font-family:'Roboto-Bold';}
	.st155{font-size:8.4297px;}
	.st156{font-family:'ITCFranklinGothicStd-Book';}
	.st157{font-size:13.195px;}
	.st158{clip-path:url(#SVGID_30_);}
	.st159{fill:#F5F6F7;}
	.st160{fill:#FFFFFF;stroke:#E6E6E5;stroke-miterlimit:10;}
	.st161{fill:#FFEFDD;}
	.st162{fill:none;}
	.st163{font-size:24.025px;}
	.st164{fill:#898989;}
	.st165{font-size:10.0104px;}
	.st166{font-size:9.343px;}
	.st167{fill:#676767;stroke:#E6E6E5;stroke-width:1.1239;stroke-miterlimit:10;}
	.st168{fill:#68BBBE;}
	.st169{fill:none;stroke:#D34550;stroke-width:1.1239;stroke-miterlimit:10;}
	.st170{fill:#67AEB2;}
	.st171{font-size:8.6757px;}
	.st172{fill:#FFFFFF;stroke:#D1D2D3;stroke-width:1.1239;stroke-miterlimit:10;}
	.st173{fill:none;stroke:#818181;stroke-width:1.1239;stroke-miterlimit:10;}
	.st174{fill:#CFCFCE;}
	.st175{fill:none;stroke:#989798;stroke-width:2.2477;stroke-miterlimit:10;}
	.st176{fill:#EC704F;}
	.st177{fill:#FFFFFF;stroke:#B3B3B3;stroke-miterlimit:10;}
	.st178{fill:#989898;}
	.st179{fill:#D34550;}
	.st180{fill:#85C442;}
	.st181{fill:none;stroke:#FFFFFF;stroke-width:2.2477;stroke-miterlimit:10;}
	.st182{fill:#D1D2D3;}
	.st183{fill:none;stroke:#D1D2D3;stroke-width:2.2477;stroke-miterlimit:10;}
	.st184{fill:#FFFFFF;stroke:#E6E6E5;stroke-width:3;stroke-miterlimit:10;}
	.st185{clip-path:url(#SVGID_34_);fill:#D7D7D7;}
	.st186{clip-path:url(#SVGID_34_);}
	.st187{fill:url(#XMLID_72_);}
	.st188{fill:url(#XMLID_73_);}
	.st189{fill:url(#XMLID_74_);}
	.st190{fill:url(#XMLID_75_);}
	.st191{fill:url(#XMLID_76_);}
	.st192{fill:url(#XMLID_77_);}
	.st193{fill:url(#XMLID_78_);}
	.st194{fill:url(#XMLID_79_);}
	.st195{fill:url(#XMLID_80_);}
	.st196{fill:url(#XMLID_81_);}
	.st197{fill:#676868;}
	.st198{fill:none;stroke:#CDCBCA;stroke-miterlimit:10;}
	.st199{fill:none;stroke:#CDCBCA;stroke-width:0.907;stroke-miterlimit:10;}
	.st200{fill:#5590CC;}
	.st201{fill:none;stroke:#FFFFFF;stroke-width:1.748;stroke-linecap:round;stroke-miterlimit:10;}
	.st202{fill:#F4F5F6;}
	.st203{fill:#D1D2D2;}
	.st204{fill:#969696;}
	.st205{fill:none;stroke:#DDDDDC;stroke-miterlimit:10;}
	.st206{fill:none;stroke:#D1D2D2;stroke-miterlimit:10;}
	.st207{fill:#454647;}
	.st208{fill:#49A3A7;}
	.st209{opacity:0.5;}
	.st210{fill:none;stroke:#010101;stroke-width:1.3195;stroke-miterlimit:10;}
	.st211{fill:none;stroke:#E09FBF;stroke-width:1.3195;stroke-miterlimit:10;}
	.st212{fill:#E09FBF;}
	.st213{opacity:0.75;}
	.st214{opacity:0.75;fill:#E09FBF;}
	.st215{fill:none;stroke:#A2D7BC;stroke-width:1.3195;stroke-miterlimit:10;}
	.st216{fill:#A2D7BC;}
	.st217{opacity:0.75;fill:#A2D7BC;}
	.st218{opacity:0.75;fill:#BC9FCB;}
	.st219{fill:none;stroke:#BC9FCB;stroke-width:1.3195;stroke-miterlimit:10;}
	.st220{fill:#BC9FCB;}
	.st221{fill:none;stroke:#C0DE9F;stroke-width:1.3195;stroke-miterlimit:10;}
	.st222{fill:#C0DE9F;}
	.st223{opacity:0.75;fill:#C0DE9F;}
	.st224{opacity:0.75;fill:#9EBEDC;}
	.st225{fill:none;stroke:#9EBEDC;stroke-width:1.3195;stroke-miterlimit:10;}
	.st226{fill:#9EBEDC;}
	.st227{opacity:0.75;fill:#DEBE9E;}
	.st228{fill:none;stroke:#DEBE9E;stroke-width:1.3195;stroke-miterlimit:10;}
	.st229{fill:#DEBE9E;}
	.st230{opacity:0.75;fill:#010101;}
	.st231{fill:none;stroke:#010101;stroke-miterlimit:10;}
	.st232{clip-path:url(#SVGID_40_);fill:#FFFFFF;}
	.st233{clip-path:url(#SVGID_40_);fill:none;stroke:#CDCBCA;stroke-width:0.662;stroke-miterlimit:10;}
	.st234{clip-path:url(#SVGID_40_);}
	.st235{fill:#CDCBCA;}
	.st236{clip-path:url(#SVGID_40_);fill:#454647;}
	.st237{clip-path:url(#SVGID_40_);fill:none;stroke:#676868;stroke-width:0.662;stroke-miterlimit:10;}
	.st238{fill:none;stroke:#D1D2D2;stroke-width:0.6639;stroke-miterlimit:10;}
	.st239{fill:none;stroke:#676868;stroke-width:0.662;stroke-miterlimit:10;}
	.st240{clip-path:url(#SVGID_40_);fill:none;stroke:#D1D2D2;stroke-width:0.6639;stroke-miterlimit:10;}
</style>
<g>
	<defs>
		<path id="SVGID_17_" d="M-78.6,582.6h-934.2c-1.7,0-3-1.3-3-3V5.3c0-1.7,1.3-3,3-3h934.2c1.7,0,3,1.3,3,3v574.3
			C-75.6,581.3-77,582.6-78.6,582.6z"/>
	</defs>
	<use xlink:href="#SVGID_17_"  style="overflow:visible;fill:#FFFFFF;"/>
	<clipPath id="SVGID_2_">
		<use xlink:href="#SVGID_17_"  style="overflow:visible;"/>
	</clipPath>
	<rect x="-609.5" y="539" class="st1" width="975.2" height="34.9"/>
	<use xlink:href="#SVGID_17_"  style="overflow:visible;fill:none;stroke:#D3D3D3;stroke-width:1.1757;stroke-miterlimit:10;"/>
</g>
<path class="st0" d="M940.7,583H6.5c-1.7,0-3-1.3-3-3V5.7c0-1.7,1.3-3,3-3h934.2c1.7,0,3,1.3,3,3V580
	C943.7,581.7,942.4,583,940.7,583z"/>
<g>
	<defs>
		<path id="SVGID_25_" d="M939.4,582.6H5.2c-1.7,0-3-1.3-3-3V5.3c0-1.7,1.3-3,3-3h934.2c1.7,0,3,1.3,3,3v574.3
			C942.4,581.3,941,582.6,939.4,582.6z"/>
	</defs>
	<use xlink:href="#SVGID_25_"  style="overflow:visible;fill:#FFFFFF;"/>
	<clipPath id="SVGID_4_">
		<use xlink:href="#SVGID_25_"  style="overflow:visible;"/>
	</clipPath>
	<rect x="-15.5" y="-1" style="clip-path:url(#SVGID_4_);fill:#D7D7D7;" width="975.2" height="34.9"/>
	<g style="clip-path:url(#SVGID_4_);">
		<circle class="st3" cx="23.1" cy="18.3" r="4.1"/>
		<circle class="st3" cx="38.8" cy="18.3" r="4.1"/>
		<circle class="st3" cx="54.4" cy="18.3" r="4.1"/>
	</g>
	<rect x="408.5" y="539" style="clip-path:url(#SVGID_4_);fill:#D7D7D7;" width="975.2" height="34.9"/>
	<g style="clip-path:url(#SVGID_4_);">
		<circle class="st3" cx="447.1" cy="558.3" r="4.1"/>
		<circle class="st3" cx="462.8" cy="558.3" r="4.1"/>
		<circle class="st3" cx="478.4" cy="558.3" r="4.1"/>
	</g>
	<use xlink:href="#SVGID_25_"  style="overflow:visible;fill:none;stroke:#D3D3D3;stroke-width:1.1757;stroke-miterlimit:10;"/>
</g>
<g>
	<defs>
		<rect id="SVGID_27_" x="3.2" y="35.1" width="939.2" height="545.2"/>
	</defs>
	<use xlink:href="#SVGID_27_"  style="overflow:visible;fill:#FFFFFF;"/>
	<clipPath id="SVGID_6_">
		<use xlink:href="#SVGID_27_"  style="overflow:visible;"/>
	</clipPath>
</g>
<rect x="2" y="75" class="st5" width="941" height="0"/>
<g>
	<line class="st11" x1="47.8" y1="55" x2="54.4" y2="55"/>
	<line class="st11" x1="47.8" y1="60.2" x2="54.4" y2="60.2"/>
	<line class="st11" x1="47.8" y1="57.6" x2="54.4" y2="57.6"/>
</g>
<text transform="matrix(1 0 0 1 63.9673 61.2451)" class="st12 st140 st141">Dashboard</text>
<text transform="matrix(1 0 0 1 752.1167 60.5947)" class="st12 st142 st141">Help</text>
<text transform="matrix(1 0 0 1 814.144 60.5947)"><tspan x="0" y="0" class="st12 st142 st141">yourpeopledemo </tspan><tspan x="75" y="0" class="st12 st143 st141"></tspan></text>
<g>
	<g id="XMLID_393_">
		<polygon id="XMLID_394_" class="st13" points="475.5,57.1 479.3,45.4 473.5,48.4 468.2,56.2 474.7,58.5 		"/>
	</g>
	<g id="XMLID_391_">
		<linearGradient id="XMLID_2_" gradientUnits="userSpaceOnUse" x1="477.1544" y1="57.2257" x2="472.6818" y2="48.814">
			<stop  offset="0" style="stop-color:#F2A73B"/>
			<stop  offset="1" style="stop-color:#FFFFFF"/>
		</linearGradient>
		<polygon id="XMLID_392_" class="st14" points="475.5,57.1 479.3,45.4 473.5,48.4 468.2,56.2 474.7,58.5 		"/>
	</g>
	<g id="XMLID_386_">
		<polygon id="XMLID_390_" class="st15" points="475.1,63.7 479.9,63.7 481.4,68.2 486.2,68.2 482,63 482.2,62.6 478.7,58.2 
			478.7,58.3 478.9,56.9 487.9,46.8 480.7,47.3 471.9,55 		"/>
		<g id="XMLID_387_" class="st16">
			
				<linearGradient id="XMLID_3_" gradientUnits="userSpaceOnUse" x1="-8208.2432" y1="2590.9075" x2="-8207.4072" y2="2590.2061" gradientTransform="matrix(0.9287 -0.3707 0.3707 0.9287 7142.9634 -5384.6172)">
				<stop  offset="8.510050e-02" style="stop-color:#FFFFFF"/>
				<stop  offset="1" style="stop-color:#EC8923"/>
			</linearGradient>
			<polygon id="XMLID_389_" class="st17" points="479.9,63.7 481.6,63.7 480,64.1 			"/>
			
				<linearGradient id="XMLID_4_" gradientUnits="userSpaceOnUse" x1="-8208.8037" y1="2592.5439" x2="-8206.0508" y2="2592.5439" gradientTransform="matrix(0.9287 -0.3707 0.3707 0.9287 7142.9634 -5384.6172)">
				<stop  offset="0" style="stop-color:#EC8923"/>
				<stop  offset="9.893174e-02" style="stop-color:#ED8F2F"/>
				<stop  offset="0.2785" style="stop-color:#F0A14F"/>
				<stop  offset="0.5183" style="stop-color:#F4BD84"/>
				<stop  offset="0.8059" style="stop-color:#FAE3CB"/>
				<stop  offset="1" style="stop-color:#FFFFFF"/>
			</linearGradient>
			<polygon id="XMLID_388_" class="st18" points="481.4,68.2 482.4,63.4 482,63 			"/>
		</g>
	</g>
	<g id="XMLID_379_">
		<polygon id="XMLID_385_" class="st15" points="475.1,63.7 468.6,60.8 467.1,57.7 461.3,55.9 456.9,55.3 462.2,55.3 464.9,53.1 
			471.9,55 		"/>
		
			<linearGradient id="XMLID_5_" gradientUnits="userSpaceOnUse" x1="-9088.3633" y1="559.283" x2="-9087.5312" y2="559.6022" gradientTransform="matrix(-0.9973 7.380000e-02 7.380000e-02 0.9973 -8642.958 168.2711)">
			<stop  offset="0" style="stop-color:#FFFFFF"/>
			<stop  offset="1" style="stop-color:#EC8923"/>
		</linearGradient>
		<polygon id="XMLID_383_" class="st19" points="461.4,55.8 461.7,55.4 462.1,55.3 		"/>
		
			<linearGradient id="XMLID_6_" gradientUnits="userSpaceOnUse" x1="-9092.3486" y1="562.0561" x2="-9092.0225" y2="557.3898" gradientTransform="matrix(-0.9973 7.380000e-02 7.380000e-02 0.9973 -8642.958 168.2711)">
			<stop  offset="0" style="stop-color:#FFFFFF"/>
			<stop  offset="1" style="stop-color:#F2A73B"/>
		</linearGradient>
		<polygon id="XMLID_381_" class="st20" points="466.5,57.5 464.9,53.3 467.1,57.7 		"/>
		
			<linearGradient id="XMLID_7_" gradientUnits="userSpaceOnUse" x1="-9097.3809" y1="559.4431" x2="-9095.1816" y2="565.4856" gradientTransform="matrix(-0.9973 7.380000e-02 7.380000e-02 0.9973 -8642.958 168.2711)">
			<stop  offset="0" style="stop-color:#FFFFFF;stop-opacity:0.3"/>
			<stop  offset="1" style="stop-color:#EC8923"/>
		</linearGradient>
		<polygon id="XMLID_380_" class="st21" points="471.9,55 468.6,60.8 471.3,54.9 		"/>
	</g>
	
		<linearGradient id="XMLID_8_" gradientUnits="userSpaceOnUse" x1="454.3017" y1="557.5027" x2="453.0548" y2="557.0489" gradientTransform="matrix(0.9973 -7.380000e-02 7.380000e-02 0.9973 -13.6003 -469.9464)">
		<stop  offset="0" style="stop-color:#FFFFFF"/>
		<stop  offset="1" style="stop-color:#EC8923"/>
	</linearGradient>
	<polygon id="XMLID_378_" class="st22" points="478.9,56.9 480.6,47.6 479.6,56.2 	"/>
	
		<linearGradient id="XMLID_9_" gradientUnits="userSpaceOnUse" x1="-8210.3682" y1="2586.2297" x2="-8209.6377" y2="2587.0938" gradientTransform="matrix(0.9287 -0.3707 0.3707 0.9287 7142.9634 -5384.6172)">
		<stop  offset="0" style="stop-color:#EC8923"/>
		<stop  offset="0.8995" style="stop-color:#FFFFFF"/>
	</linearGradient>
	<polygon id="XMLID_377_" class="st23" points="475.2,63.6 479.1,58.7 478.7,58.2 	"/>
</g>
<circle class="st26" cx="793.9" cy="57.2" r="10.7"/>
<text transform="matrix(1 0 0 1 788.1743 60.5947)" class="st10 st154 st155">YD</text>
<g>
	<text transform="matrix(1 0 0 1 138.1357 103.0146)" class="st129 st156 st157">Time &amp; Attendance</text>
</g>
<g>
	<text transform="matrix(1 0 0 1 48.04 103.0146)" class="st129 st156 st157">Dashboard</text>
</g>
<polyline class="st130" points="122.5,94.2 126.9,98.2 122.5,102.1 "/>
<g>
	<text transform="matrix(1 0 0 1 279.1357 103.0146)" class="st131 st156 st157">Approve Hours</text>
</g>
<polyline class="st130" points="259.8,94.2 264.2,98.2 259.8,102.1 "/>
<g>
	<defs>
		<rect id="SVGID_29_" x="50" y="116" width="859" height="467"/>
	</defs>
	<clipPath id="SVGID_8_">
		<use xlink:href="#SVGID_29_"  style="overflow:visible;"/>
	</clipPath>
	<g class="st61">
		<g>
			<defs>
				<rect id="SVGID_31_" x="104.4" y="139.9" width="222.8" height="132.5"/>
			</defs>
			<clipPath id="SVGID_10_">
				<use xlink:href="#SVGID_31_"  style="overflow:visible;"/>
			</clipPath>
		</g>
		<g>
			<g>
				<path class="st159" d="M859.8,440c0,0.7-0.7,1.3-1.5,1.3H261.1c-0.8,0-1.5-0.6-1.5-1.3v-29.4c0-0.7,0.7-1.3,1.5-1.3h597.2
					c0.8,0,1.5,0.6,1.5,1.3V440z"/>
			</g>
		</g>
		<rect x="107.5" y="228.5" class="st160" width="754" height="471"/>
		<g>
			<rect x="107" y="183" class="st161" width="754" height="34"/>
		</g>
		<rect x="108" y="305.8" class="st159" width="752.9" height="28.1"/>
		<g>
			<rect x="107.4" y="143.7" class="st162" width="180.2" height="40"/>
			<text transform="matrix(0.9759 0 0 1 107.3569 163.6748)" class="st43 st142 st163">Approve Hours</text>
		</g>
		<g>
			<rect x="112" y="376.6" class="st162" width="120.1" height="420.4"/>
			<text transform="matrix(1 0 0 1 118.7021 397.9189)"><tspan x="0" y="0" class="st164 st142 st165">Casey Patrick</tspan><tspan x="0" y="32" class="st164 st142 st165">Walter Duncan</tspan><tspan x="0" y="64.1" class="st164 st142 st165">Curtis Barnett</tspan><tspan x="0" y="96.1" class="st164 st142 st165">Nina Weaver</tspan><tspan x="0" y="128.1" class="st164 st142 st165">Derek Benson</tspan><tspan x="0" y="160.2" class="st164 st142 st165">Pam Holt</tspan><tspan x="0" y="192.2" class="st164 st142 st165">Aubrey Griffin</tspan><tspan x="0" y="224.2" class="st164 st142 st165">Lindsey Brewer</tspan><tspan x="0" y="256.3" class="st164 st142 st165">Ellis Neal</tspan><tspan x="0" y="288.3" class="st164 st142 st165">Linda Chavez</tspan></text>
		</g>
		<rect x="117.4" y="309.2" class="st162" width="73.4" height="30"/>
		<text transform="matrix(1 0 0 1 117.3677 322.5078)" class="st5 st140 st166">Employee</text>
		<g>
			<rect x="276.9" y="302.5" class="st162" width="40" height="30"/>
			<text transform="matrix(1 0 0 1 280.8589 322.5068)" class="st5 st140 st166">Regular</text>
		</g>
		<g>
			<g>
				<path class="st159" d="M859.8,407.9c0,0.7-0.7,1.3-1.5,1.3H261.1c-0.8,0-1.5-0.6-1.5-1.3v-29.4c0-0.7,0.7-1.3,1.5-1.3h597.2
					c0.8,0,1.5,0.6,1.5,1.3V407.9z"/>
			</g>
		</g>
		<g>
			<rect x="505.2" y="302.5" class="st162" width="33.4" height="30"/>
			<text transform="matrix(1 0 0 1 515.7847 322.5068)" class="st5 st140 st166">OT</text>
		</g>
		<g>
			<rect x="578.9" y="302.5" class="st162" width="33.4" height="30"/>
			<text transform="matrix(1 0 0 1 586.8843 322.5068)" class="st5 st140 st166">2OT</text>
		</g>
		<g>
			<rect x="356.7" y="302.5" class="st162" width="33.4" height="30"/>
			<text transform="matrix(1 0 0 1 364.3735 322.5068)" class="st5 st140 st166">PTO</text>
		</g>
		<g>
			<g>
				<path class="st159" d="M859.8,472.7c0,0.7-0.7,1.3-1.5,1.3H261.1c-0.8,0-1.5-0.6-1.5-1.3v-29.4c0-0.7,0.7-1.3,1.5-1.3h597.2
					c0.8,0,1.5,0.6,1.5,1.3V472.7z"/>
			</g>
		</g>
		<g>
			<rect x="426.8" y="302.5" class="st162" width="40" height="30"/>
			<text transform="matrix(1 0 0 1 430.9878 322.5068)" class="st5 st140 st166">Holiday</text>
		</g>
		<g>
			<g>
				<path class="st159" d="M859.8,504.7c0,0.7-0.7,1.3-1.5,1.3H261.1c-0.8,0-1.5-0.6-1.5-1.3v-29.4c0-0.7,0.7-1.3,1.5-1.3h597.2
					c0.8,0,1.5,0.6,1.5,1.3V504.7z"/>
			</g>
		</g>
		<g>
			<rect x="724.8" y="309.2" class="st162" width="40" height="30"/>
			<text transform="matrix(1 0 0 1 735.0249 322.5078)" class="st5 st140 st166">Daily</text>
		</g>
		<g>
			<g>
				<path class="st159" d="M859.8,536.7c0,0.7-0.7,1.3-1.5,1.3H261.1c-0.8,0-1.5-0.6-1.5-1.3v-29.4c0-0.7,0.7-1.3,1.5-1.3h597.2
					c0.8,0,1.5,0.6,1.5,1.3V536.7z"/>
			</g>
		</g>
		<g>
			<rect x="798.5" y="309.2" class="st162" width="46.7" height="30"/>
			<text transform="matrix(1 0 0 1 802.5854 322.5078)" class="st5 st140 st166">Approved</text>
		</g>
		<g>
			<g>
				<path class="st159" d="M859.8,569.4c0,0.7-0.7,1.3-1.5,1.3H261.1c-0.8,0-1.5-0.6-1.5-1.3v-29.4c0-0.7,0.7-1.3,1.5-1.3h597.2
					c0.8,0,1.5,0.6,1.5,1.3V569.4z"/>
			</g>
		</g>
		<rect x="107.4" y="228.6" class="st167" width="754.1" height="76.2"/>
		<g>
			<g>
				<path class="st159" d="M859.8,601.5c0,0.7-0.7,1.3-1.5,1.3H261.1c-0.8,0-1.5-0.6-1.5-1.3v-29.4c0-0.7,0.7-1.3,1.5-1.3h597.2
					c0.8,0,1.5,0.6,1.5,1.3V601.5z"/>
			</g>
		</g>
		<g>
			<line class="st160" x1="107" y1="304.5" x2="781" y2="304.5"/>
		</g>
		<g>
			<line class="st160" x1="107" y1="333.5" x2="781" y2="333.5"/>
		</g>
		<g>
			<line class="st160" x1="107" y1="408.5" x2="860" y2="408.5"/>
		</g>
		<g>
			<line class="st160" x1="107" y1="441.5" x2="861" y2="441.5"/>
		</g>
		<g>
			<line class="st160" x1="107" y1="473.5" x2="861" y2="473.5"/>
		</g>
		<g>
			<line class="st160" x1="107" y1="506.5" x2="861" y2="506.5"/>
		</g>
		<g>
			<line class="st160" x1="107" y1="536.5" x2="861" y2="536.5"/>
		</g>
		<g>
			<line class="st160" x1="107" y1="570.5" x2="861" y2="570.5"/>
		</g>
		<g>
			<rect x="117.4" y="337.9" class="st162" width="120.1" height="37.4"/>
			<text transform="matrix(1 0 0 1 117.3677 359.8789)" class="st74 st140 st166">Total (23)</text>
		</g>
		<g>
			<rect x="276.9" y="337.9" class="st162" width="40" height="26.7"/>
			<text transform="matrix(1 0 0 1 281.2812 359.8789)" class="st74 st140 st166">1,600.0</text>
		</g>
		<g>
			<rect x="356.7" y="337.9" class="st162" width="33.4" height="26.7"/>
			<text transform="matrix(1 0 0 1 364.1499 359.8789)" class="st74 st140 st166">24.0</text>
		</g>
		<g>
			<rect x="426.8" y="337.9" class="st162" width="40" height="26.7"/>
			<text transform="matrix(1 0 0 1 440.1758 359.8789)" class="st74 st140 st166">0.0</text>
		</g>
		<g>
			<rect x="651.4" y="337.2" class="st162" width="40" height="26.7"/>
			<text transform="matrix(1 0 0 1 663.4824 359.2119)" class="st74 st140 st166">335</text>
		</g>
		<g>
			<rect x="505.2" y="337.9" class="st162" width="33.4" height="26.7"/>
			<text transform="matrix(1 0 0 1 512.5752 359.8789)" class="st74 st140 st166">40.0</text>
		</g>
		<rect x="781.5" y="348.2" class="st162" width="80.8" height="12"/>
		<text transform="matrix(1 0 0 1 798.1504 358.2109)" class="st168 st142 st166">Approve All</text>
		<g>
			<g>
				<g>
					<line class="st169" x1="843.4" y1="198.7" x2="848.1" y2="203.4"/>
				</g>
				<g>
					<line class="st169" x1="843.4" y1="198.7" x2="848.1" y2="203.4"/>
				</g>
				<g>
					<line class="st169" x1="843.4" y1="203.4" x2="848.1" y2="198.7"/>
				</g>
			</g>
		</g>
		<g>
			<path class="st170" d="M850.3,255.3h-89.4c-1.1,0-2-0.9-2-2v-15.7c0-1.1,0.9-2,2-2h89.4c1.1,0,2,0.9,2,2v15.7
				C852.3,254.4,851.4,255.3,850.3,255.3z"/>
			<text transform="matrix(1 0 0 1 776.4707 248.6016)" class="st10 st142 st171">Download .XLS</text>
		</g>
		<g>
			<path class="st172" d="M266.5,296H118.6c-1.7,0-3-1.3-3-3v-19c0-1.7,1.3-3,3-3h147.9c1.7,0,3,1.3,3,3v19
				C269.5,294.7,268.2,296,266.5,296z"/>
			<g>
				<text transform="matrix(1 0 0 1 126.7119 286.7051)" class="st53 st142 st166">Filter by type of hours</text>
			</g>
			<polyline class="st99" points="256.2,282.6 259.2,285.5 262,282.6 			"/>
		</g>
		<g>
			<g>
				<rect x="649.9" y="302.5" class="st162" width="40" height="30"/>
				<text transform="matrix(1 0 0 1 659.1216 322.5068)" class="st5 st140 st166">Total</text>
			</g>
			<polyline class="st173" points="687.2,317.9 690.3,320.9 693,317.9 			"/>
		</g>
		<g>
			<text transform="matrix(1 0 0 1 117.3682 249.2686)" class="st174 st140 st165">Employee Hours for Sep 1 — Sep 30 </text>
		</g>
		<g>
			<path class="st172" d="M847.6,296.3H686.5c-1.7,0-3-1.3-3-3v-19.3c0-1.7,1.3-3,3-3h161.1c1.7,0,3,1.3,3,3v19.3
				C850.6,295,849.2,296.3,847.6,296.3z"/>
			<text transform="matrix(1 0 0 1 709.5181 286.3965)" class="st101 st142 st171">Find Employee</text>
			<g>
				<circle class="st175" cx="696.4" cy="282.6" r="3.5"/>
				<line class="st175" x1="698.5" y1="285.7" x2="701" y2="289.1"/>
			</g>
		</g>
		<text transform="matrix(1 0 0 1 120.7051 205.0518)" class="st176 st142 st165">Employee hours will push to Payroll in 2 days (Sep 27)</text>
		<line class="st177" x1="107" y1="262.5" x2="861" y2="262.5"/>
		<g>
			<g>
				<rect x="276.9" y="576.8" class="st162" width="40" height="20"/>
				<text transform="matrix(1 0 0 1 283.1538 589.4512)" class="st74 st142 st166">160.0*</text>
			</g>
			<g>
				<rect x="276.9" y="544.5" class="st162" width="40" height="20"/>
				<text transform="matrix(1 0 0 1 283.1538 557.1953)" class="st74 st142 st166">160.0*</text>
			</g>
			<g>
				<rect x="276.9" y="512.3" class="st162" width="40" height="20"/>
				<text transform="matrix(1 0 0 1 283.1538 524.9395)" class="st74 st142 st166">160.0*</text>
			</g>
			<g>
				<rect x="276.9" y="480" class="st162" width="40" height="20"/>
				<text transform="matrix(1 0 0 1 283.1538 492.6836)" class="st74 st142 st166">160.0*</text>
			</g>
			<g>
				<rect x="276.9" y="447.7" class="st162" width="40" height="20"/>
				<text transform="matrix(1 0 0 1 283.1538 460.4277)" class="st74 st142 st166">160.0*</text>
			</g>
			<g>
				<rect x="276.9" y="415.5" class="st162" width="40" height="20"/>
				<text transform="matrix(1 0 0 1 283.1538 428.1719)" class="st74 st142 st166">160.0*</text>
			</g>
			<g>
				<rect x="276.9" y="383.2" class="st162" width="40" height="20"/>
				<text transform="matrix(1 0 0 1 283.1538 395.916)" class="st74 st142 st166">160.0*</text>
			</g>
		</g>
		<g>
			<g>
				<rect x="651.4" y="576.8" class="st162" width="40" height="20"/>
				<text transform="matrix(1 0 0 1 657.7134 589.4512)" class="st74 st142 st166">160.0*</text>
			</g>
			<g>
				<rect x="651.4" y="544.5" class="st162" width="40" height="20"/>
				<text transform="matrix(1 0 0 1 660.3369 557.1953)" class="st74 st142 st166">16.0*</text>
			</g>
			<g>
				<rect x="651.4" y="512.3" class="st162" width="40" height="20"/>
				<text transform="matrix(1 0 0 1 657.7134 524.9395)" class="st74 st142 st166">160.0*</text>
			</g>
			<g>
				<rect x="651.4" y="480" class="st162" width="40" height="20"/>
				<text transform="matrix(1 0 0 1 657.7134 492.6836)" class="st74 st142 st166">168.0*</text>
			</g>
			<g>
				<rect x="651.4" y="447.7" class="st162" width="40" height="20"/>
				<text transform="matrix(1 0 0 1 657.7134 460.4277)" class="st74 st142 st166">176.0*</text>
			</g>
			<g>
				<rect x="651.4" y="415.5" class="st162" width="40" height="20"/>
				<text transform="matrix(1 0 0 1 657.7134 428.1719)" class="st74 st142 st166">152.0*</text>
			</g>
			<g>
				<rect x="651.4" y="383.2" class="st162" width="40" height="20"/>
				<text transform="matrix(1 0 0 1 657.7134 395.916)" class="st74 st142 st166">160.0*</text>
			</g>
		</g>
		<g>
			<g>
				<rect x="353.4" y="576.8" class="st162" width="40" height="20"/>
				<text transform="matrix(1 0 0 1 364.3213 589.4512)" class="st74 st142 st166">16.0</text>
			</g>
			<g>
				<rect x="353.4" y="544.5" class="st162" width="40" height="20"/>
				<text transform="matrix(1 0 0 1 366.9443 557.1953)" class="st178 st142 st166">0.0</text>
			</g>
			<g>
				<rect x="353.4" y="512.3" class="st162" width="40" height="20"/>
				<text transform="matrix(1 0 0 1 366.9443 524.9395)" class="st178 st142 st166">0.0</text>
			</g>
			<g>
				<rect x="353.4" y="480" class="st162" width="40" height="20"/>
				<text transform="matrix(1 0 0 1 366.9443 492.6836)" class="st178 st142 st166">0.0</text>
			</g>
			<g>
				<rect x="353.4" y="447.7" class="st162" width="40" height="20"/>
				<text transform="matrix(1 0 0 1 366.9443 460.4277)" class="st178 st142 st166">0.0</text>
			</g>
			<g>
				<rect x="353.4" y="415.5" class="st162" width="40" height="20"/>
				<text transform="matrix(1 0 0 1 366.9443 428.1719)" class="st74 st142 st166">8.0</text>
			</g>
			<g>
				<rect x="353.4" y="383.2" class="st162" width="40" height="20"/>
				<text transform="matrix(1 0 0 1 366.9443 395.916)" class="st178 st142 st166">0.0</text>
			</g>
		</g>
		<g>
			<g>
				<g>
					<rect x="501.8" y="576.8" class="st162" width="40" height="20"/>
					<text transform="matrix(1 0 0 1 512.7466 589.4512)" class="st179 st142 st166">16.0</text>
				</g>
			</g>
			<g>
				<rect x="501.8" y="544.5" class="st162" width="40" height="20"/>
				<text transform="matrix(1 0 0 1 518.1982 557.1953)" class="st178 st142 st166">—</text>
			</g>
			<g>
				<rect x="501.8" y="512.3" class="st162" width="40" height="20"/>
				<text transform="matrix(1 0 0 1 518.1982 524.9395)" class="st178 st142 st166">—</text>
			</g>
			<g>
				<g>
					<rect x="501.8" y="480" class="st162" width="40" height="20"/>
					<text transform="matrix(1 0 0 1 515.3696 492.6836)" class="st179 st142 st166">8.0</text>
				</g>
			</g>
			<g>
				<rect x="501.8" y="447.7" class="st162" width="40" height="20"/>
				<text transform="matrix(1 0 0 1 512.7466 460.4277)" class="st179 st142 st166">16.0</text>
			</g>
			<g>
				<rect x="501.8" y="415.5" class="st162" width="40" height="20"/>
				<text transform="matrix(1 0 0 1 518.1982 428.1719)" class="st178 st142 st166">—</text>
			</g>
			<g>
				<rect x="501.8" y="383.2" class="st162" width="40" height="20"/>
				<text transform="matrix(1 0 0 1 518.1982 395.916)" class="st178 st142 st166">—</text>
			</g>
		</g>
		<g>
			<g>
				<g>
					<rect x="575.6" y="576.8" class="st162" width="40" height="20"/>
					<text transform="matrix(1 0 0 1 591.9526 589.4512)" class="st178 st142 st166">—</text>
				</g>
			</g>
			<g>
				<rect x="575.6" y="544.5" class="st162" width="40" height="20"/>
				<text transform="matrix(1 0 0 1 591.9526 557.1953)" class="st178 st142 st166">—</text>
			</g>
			<g>
				<rect x="575.6" y="512.3" class="st162" width="40" height="20"/>
				<text transform="matrix(1 0 0 1 591.9526 524.9395)" class="st178 st142 st166">—</text>
			</g>
			<g>
				<g>
					<rect x="575.6" y="480" class="st162" width="40" height="20"/>
					<text transform="matrix(1 0 0 1 591.9526 492.6836)" class="st178 st142 st166">—</text>
				</g>
			</g>
			<g>
				<rect x="575.6" y="447.7" class="st162" width="40" height="20"/>
				<text transform="matrix(1 0 0 1 591.9526 460.4277)" class="st178 st142 st166">—</text>
			</g>
			<g>
				<rect x="575.6" y="415.5" class="st162" width="40" height="20"/>
				<text transform="matrix(1 0 0 1 591.9526 428.1719)" class="st178 st142 st166">—</text>
			</g>
			<g>
				<rect x="575.6" y="383.2" class="st162" width="40" height="20"/>
				<text transform="matrix(1 0 0 1 591.9526 395.916)" class="st178 st142 st166">—</text>
			</g>
		</g>
		<g>
			<g>
				<rect x="426.8" y="576.8" class="st162" width="40" height="20"/>
				<text transform="matrix(1 0 0 1 440.3149 589.4512)" class="st178 st142 st166">0.0</text>
			</g>
			<g>
				<rect x="426.8" y="544.5" class="st162" width="40" height="20"/>
				<text transform="matrix(1 0 0 1 440.3149 557.1953)" class="st178 st142 st166">0.0</text>
			</g>
			<g>
				<rect x="426.8" y="512.3" class="st162" width="40" height="20"/>
				<text transform="matrix(1 0 0 1 440.3149 524.9395)" class="st178 st142 st166">0.0</text>
			</g>
			<g>
				<rect x="426.8" y="480" class="st162" width="40" height="20"/>
				<text transform="matrix(1 0 0 1 440.3149 492.6836)" class="st178 st142 st166">0.0</text>
			</g>
			<g>
				<rect x="426.8" y="447.7" class="st162" width="40" height="20"/>
				<text transform="matrix(1 0 0 1 440.3149 460.4277)" class="st178 st142 st166">0.0</text>
			</g>
			<g>
				<rect x="426.8" y="415.5" class="st162" width="40" height="20"/>
				<text transform="matrix(1 0 0 1 440.3149 428.1719)" class="st178 st142 st166">0.0</text>
			</g>
			<g>
				<rect x="426.8" y="383.2" class="st162" width="40" height="20"/>
				<text transform="matrix(1 0 0 1 440.3149 395.916)" class="st178 st142 st166">0.0</text>
			</g>
		</g>
		<g>
			<g>
				<circle class="st180" cx="821.8" cy="426.4" r="8.2"/>
				<polyline class="st181" points="818.5,426.4 820.7,428.5 825,424.2 				"/>
			</g>
			<g>
				<g>
					<path class="st182" d="M822,386.5c4.2,0,7.7,3.4,7.7,7.7c0,4.2-3.4,7.7-7.7,7.7s-7.7-3.4-7.7-7.7
						C814.4,389.9,817.8,386.5,822,386.5 M822,385.9c-4.5,0-8.2,3.7-8.2,8.2s3.7,8.2,8.2,8.2s8.2-3.7,8.2-8.2S826.6,385.9,822,385.9
						L822,385.9z"/>
				</g>
				<polyline class="st183" points="818.7,394.1 820.9,396.3 825.3,391.9 				"/>
			</g>
			<g>
				<g>
					<path class="st182" d="M822,450.9c4.2,0,7.7,3.4,7.7,7.7c0,4.2-3.4,7.7-7.7,7.7s-7.7-3.4-7.7-7.7
						C814.4,454.4,817.8,450.9,822,450.9 M822,450.4c-4.5,0-8.2,3.7-8.2,8.2s3.7,8.2,8.2,8.2s8.2-3.7,8.2-8.2S826.6,450.4,822,450.4
						L822,450.4z"/>
				</g>
				<polyline class="st183" points="818.7,458.6 820.9,460.8 825.3,456.4 				"/>
			</g>
			<g>
				<g>
					<path class="st182" d="M822,547.6c4.2,0,7.7,3.4,7.7,7.7s-3.4,7.7-7.7,7.7s-7.7-3.4-7.7-7.7S817.8,547.6,822,547.6 M822,547.1
						c-4.5,0-8.2,3.7-8.2,8.2s3.7,8.2,8.2,8.2s8.2-3.7,8.2-8.2S826.6,547.1,822,547.1L822,547.1z"/>
				</g>
				<polyline class="st183" points="818.7,555.3 820.9,557.5 825.3,553.1 				"/>
			</g>
			<g>
				<circle class="st180" cx="821.8" cy="523.1" r="8.2"/>
				<polyline class="st181" points="818.5,523.1 820.7,525.2 825,520.9 				"/>
			</g>
			<g>
				<circle class="st180" cx="821.8" cy="587.5" r="8.2"/>
			</g>
			<g>
				<circle class="st180" cx="821.8" cy="489.7" r="8.2"/>
				<polyline class="st181" points="818.5,489.7 820.7,491.9 825,487.5 				"/>
			</g>
		</g>
		<line class="st160" x1="260.5" y1="305" x2="260.5" y2="698"/>
		<line class="st160" x1="334.5" y1="305" x2="334.5" y2="698"/>
		<line class="st160" x1="409.5" y1="305" x2="409.5" y2="698"/>
		<line class="st160" x1="484.5" y1="305" x2="484.5" y2="698"/>
		<line class="st160" x1="558.5" y1="305" x2="558.5" y2="698"/>
		<line class="st160" x1="632.5" y1="305" x2="632.5" y2="698"/>
		<line class="st160" x1="707.5" y1="305" x2="707.5" y2="698"/>
		<line class="st160" x1="781.5" y1="305" x2="781.5" y2="698"/>
		<g>
			<line class="st184" x1="107" y1="378.5" x2="781" y2="378.5"/>
		</g>
		<g>
			<g>
				<g>
					<path class="st174" d="M750,581c0-0.6-0.4-1-1-1h-11c-0.6,0-1,0.4-1,1v11c0,0.6,0.4,1,1,1h11c0.6,0,1-0.4,1-1V581z M748.7,591
						h-11.4c-0.2,0-0.3,1.5-0.3,1.3V585h12v7.3C749,592.5,748.9,591,748.7,591z"/>
				</g>
				<path class="st10" d="M740.3,581.8H740c-0.5,0-0.8-0.4-0.8-0.8v-1.4c0-0.5,0.4-0.8,0.8-0.8h0.4c0.5,0,0.8,0.4,0.8,0.8v1.4
					C741.2,581.4,740.8,581.8,740.3,581.8z"/>
				<path class="st174" d="M740.5,582.1h-0.7c-0.6,0-1-0.4-1-1v-1.7c0-0.6,0.4-1,1-1h0.7c0.6,0,1,0.4,1,1v1.7
					C741.5,581.7,741,582.1,740.5,582.1z M739.8,579.1c-0.2,0-0.3,0.1-0.3,0.3v1.7c0,0.2,0.1,0.3,0.3,0.3h0.7c0.2,0,0.3-0.1,0.3-0.3
					v-1.7c0-0.2-0.1-0.3-0.3-0.3H739.8z"/>
				<path class="st10" d="M746.2,581.8h-0.4c-0.5,0-0.8-0.4-0.8-0.8v-1.4c0-0.5,0.4-0.8,0.8-0.8h0.4c0.5,0,0.8,0.4,0.8,0.8v1.4
					C747,581.4,746.7,581.8,746.2,581.8z"/>
				<path class="st174" d="M746.4,582.1h-0.7c-0.6,0-1-0.4-1-1v-1.7c0-0.6,0.4-1,1-1h0.7c0.6,0,1,0.4,1,1v1.7
					C747.4,581.7,746.9,582.1,746.4,582.1z M745.7,579.1c-0.2,0-0.3,0.1-0.3,0.3v1.7c0,0.2,0.1,0.3,0.3,0.3h0.7
					c0.2,0,0.3-0.1,0.3-0.3v-1.7c0-0.2-0.1-0.3-0.3-0.3H745.7z"/>
			</g>
			<g>
				<g>
					<path class="st174" d="M752,550c0-0.6-0.4-1-1-1h-11c-0.6,0-1,0.4-1,1v11c0,0.6,0.4,1,1,1h11c0.6,0,1-0.4,1-1V550z M750.7,561
						h-11.4c-0.2,0,0.7-0.6,0.7-0.8V553h11v7.2C751,560.4,750.9,561,750.7,561z"/>
					<rect x="740.3" y="553.1" class="st174" width="1.3" height="1.3"/>
					<rect x="743" y="553.1" class="st174" width="1.3" height="1.3"/>
					<rect x="745.6" y="553.1" class="st174" width="1.3" height="1.3"/>
					<rect x="748.3" y="553.1" class="st174" width="1.3" height="1.3"/>
					<rect x="740.3" y="555.8" class="st174" width="1.3" height="1.3"/>
					<rect x="743" y="555.8" class="st174" width="1.3" height="1.3"/>
					<rect x="745.6" y="555.8" class="st174" width="1.3" height="1.3"/>
					<rect x="748.3" y="555.8" class="st174" width="1.3" height="1.3"/>
					<rect x="740.3" y="558.5" class="st174" width="1.3" height="1.3"/>
					<rect x="743" y="558.5" class="st174" width="1.3" height="1.3"/>
					<rect x="745.6" y="558.5" class="st174" width="1.3" height="1.3"/>
					<rect x="748.3" y="558.5" class="st174" width="1.3" height="1.3"/>
				</g>
				<path class="st10" d="M742.3,549.7H742c-0.5,0-0.8-0.4-0.8-0.8v-1.4c0-0.5,0.4-0.8,0.8-0.8h0.4c0.5,0,0.8,0.4,0.8,0.8v1.4
					C743.2,549.3,742.8,549.7,742.3,549.7z"/>
				<path class="st174" d="M742.5,550h-0.7c-0.6,0-1-0.4-1-1v-1.7c0-0.6,0.4-1,1-1h0.7c0.6,0,1,0.4,1,1v1.7
					C743.5,549.6,743,550,742.5,550z M741.8,547c-0.2,0-0.3,0.1-0.3,0.3v1.7c0,0.2,0.1,0.3,0.3,0.3h0.7c0.2,0,0.3-0.1,0.3-0.3v-1.7
					c0-0.2-0.1-0.3-0.3-0.3H741.8z"/>
				<path class="st10" d="M748.2,549.7h-0.4c-0.5,0-0.8-0.4-0.8-0.8v-1.4c0-0.5,0.4-0.8,0.8-0.8h0.4c0.5,0,0.8,0.4,0.8,0.8v1.4
					C749,549.3,748.7,549.7,748.2,549.7z"/>
				<path class="st174" d="M748.4,550h-0.7c-0.6,0-1-0.4-1-1v-1.7c0-0.6,0.4-1,1-1h0.7c0.6,0,1,0.4,1,1v1.7
					C749.4,549.6,748.9,550,748.4,550z M747.7,547c-0.2,0-0.3,0.1-0.3,0.3v1.7c0,0.2,0.1,0.3,0.3,0.3h0.7c0.2,0,0.3-0.1,0.3-0.3
					v-1.7c0-0.2-0.1-0.3-0.3-0.3H747.7z"/>
			</g>
			<g>
				<g>
					<path class="st174" d="M752,516c0-0.6-0.4-1-1-1h-11c-0.6,0-1,0.4-1,1v11c0,0.6,0.4,1,1,1h11c0.6,0,1-0.4,1-1V516z M750.7,528
						h-11.4c-0.2,0,0.7,0.3,0.7,0.1V519h11v9.1C751,528.3,750.9,528,750.7,528z"/>
					<rect x="740.3" y="521" class="st174" width="1.3" height="1.3"/>
					<rect x="743" y="521" class="st174" width="1.3" height="1.3"/>
					<rect x="745.6" y="521" class="st174" width="1.3" height="1.3"/>
					<rect x="748.3" y="521" class="st174" width="1.3" height="1.3"/>
					<rect x="740.3" y="523.7" class="st174" width="1.3" height="1.3"/>
					<rect x="743" y="523.7" class="st174" width="1.3" height="1.3"/>
					<rect x="745.6" y="523.7" class="st174" width="1.3" height="1.3"/>
					<rect x="748.3" y="523.7" class="st174" width="1.3" height="1.3"/>
					<rect x="740.3" y="526.3" class="st174" width="1.3" height="1.3"/>
					<rect x="743" y="526.3" class="st174" width="1.3" height="1.3"/>
					<rect x="745.6" y="526.3" class="st174" width="1.3" height="1.3"/>
					<rect x="748.3" y="526.3" class="st174" width="1.3" height="1.3"/>
				</g>
				<path class="st10" d="M742.3,517.6H742c-0.5,0-0.8-0.4-0.8-0.8v-1.4c0-0.5,0.4-0.8,0.8-0.8h0.4c0.5,0,0.8,0.4,0.8,0.8v1.4
					C743.2,517.2,742.8,517.6,742.3,517.6z"/>
				<path class="st174" d="M742.5,517.9h-0.7c-0.6,0-1-0.4-1-1v-1.7c0-0.6,0.4-1,1-1h0.7c0.6,0,1,0.4,1,1v1.7
					C743.5,517.5,743,517.9,742.5,517.9z M741.8,514.9c-0.2,0-0.3,0.1-0.3,0.3v1.7c0,0.2,0.1,0.3,0.3,0.3h0.7c0.2,0,0.3-0.1,0.3-0.3
					v-1.7c0-0.2-0.1-0.3-0.3-0.3H741.8z"/>
				<path class="st10" d="M748.2,517.6h-0.4c-0.5,0-0.8-0.4-0.8-0.8v-1.4c0-0.5,0.4-0.8,0.8-0.8h0.4c0.5,0,0.8,0.4,0.8,0.8v1.4
					C749,517.2,748.7,517.6,748.2,517.6z"/>
				<path class="st174" d="M748.4,517.9h-0.7c-0.6,0-1-0.4-1-1v-1.7c0-0.6,0.4-1,1-1h0.7c0.6,0,1,0.4,1,1v1.7
					C749.4,517.5,748.9,517.9,748.4,517.9z M747.7,514.9c-0.2,0-0.3,0.1-0.3,0.3v1.7c0,0.2,0.1,0.3,0.3,0.3h0.7
					c0.2,0,0.3-0.1,0.3-0.3v-1.7c0-0.2-0.1-0.3-0.3-0.3H747.7z"/>
			</g>
			<g>
				<g>
					<path class="st174" d="M752,483c0-0.6-0.4-1-1-1h-11c-0.6,0-1,0.4-1,1v11c0,0.6,0.4,1,1,1h11c0.6,0,1-0.4,1-1V483z M750.7,496
						h-11.4c-0.2,0,0.7,0,0.7,0v-7h11v7C751,496,750.9,496,750.7,496z"/>
					<rect x="740.3" y="488.9" class="st174" width="1.3" height="1.3"/>
					<rect x="743" y="488.9" class="st174" width="1.3" height="1.3"/>
					<rect x="745.6" y="488.9" class="st174" width="1.3" height="1.3"/>
					<rect x="748.3" y="488.9" class="st174" width="1.3" height="1.3"/>
					<rect x="740.3" y="491.6" class="st174" width="1.3" height="1.3"/>
					<rect x="743" y="491.6" class="st174" width="1.3" height="1.3"/>
					<rect x="745.6" y="491.6" class="st174" width="1.3" height="1.3"/>
					<rect x="748.3" y="491.6" class="st174" width="1.3" height="1.3"/>
					<rect x="740.3" y="494.2" class="st174" width="1.3" height="1.3"/>
					<rect x="743" y="494.2" class="st174" width="1.3" height="1.3"/>
					<rect x="745.6" y="494.2" class="st174" width="1.3" height="1.3"/>
					<rect x="748.3" y="494.2" class="st174" width="1.3" height="1.3"/>
				</g>
				<path class="st10" d="M742.3,485.5H742c-0.5,0-0.8-0.4-0.8-0.8v-1.4c0-0.5,0.4-0.8,0.8-0.8h0.4c0.5,0,0.8,0.4,0.8,0.8v1.4
					C743.2,485.1,742.8,485.5,742.3,485.5z"/>
				<path class="st174" d="M742.5,485.8h-0.7c-0.6,0-1-0.4-1-1v-1.7c0-0.6,0.4-1,1-1h0.7c0.6,0,1,0.4,1,1v1.7
					C743.5,485.4,743,485.8,742.5,485.8z M741.8,482.8c-0.2,0-0.3,0.1-0.3,0.3v1.7c0,0.2,0.1,0.3,0.3,0.3h0.7c0.2,0,0.3-0.1,0.3-0.3
					v-1.7c0-0.2-0.1-0.3-0.3-0.3H741.8z"/>
				<path class="st10" d="M748.2,485.5h-0.4c-0.5,0-0.8-0.4-0.8-0.8v-1.4c0-0.5,0.4-0.8,0.8-0.8h0.4c0.5,0,0.8,0.4,0.8,0.8v1.4
					C749,485.1,748.7,485.5,748.2,485.5z"/>
				<path class="st174" d="M748.4,485.8h-0.7c-0.6,0-1-0.4-1-1v-1.7c0-0.6,0.4-1,1-1h0.7c0.6,0,1,0.4,1,1v1.7
					C749.4,485.4,748.9,485.8,748.4,485.8z M747.7,482.8c-0.2,0-0.3,0.1-0.3,0.3v1.7c0,0.2,0.1,0.3,0.3,0.3h0.7
					c0.2,0,0.3-0.1,0.3-0.3v-1.7c0-0.2-0.1-0.3-0.3-0.3H747.7z"/>
			</g>
			<g>
				<g>
					<path class="st174" d="M752,453c0-0.6-0.4-1-1-1h-11c-0.6,0-1,0.4-1,1v11c0,0.6,0.4,1,1,1h11c0.6,0,1-0.4,1-1V453z M750.7,463
						h-11.4c-0.2,0,0.7,1.1,0.7,0.9V456h11v7.9C751,464.1,750.9,463,750.7,463z"/>
					<rect x="740.3" y="456.8" class="st174" width="1.3" height="1.3"/>
					<rect x="743" y="456.8" class="st174" width="1.3" height="1.3"/>
					<rect x="745.6" y="456.8" class="st174" width="1.3" height="1.3"/>
					<rect x="748.3" y="456.8" class="st174" width="1.3" height="1.3"/>
					<rect x="740.3" y="459.5" class="st174" width="1.3" height="1.3"/>
					<rect x="743" y="459.5" class="st174" width="1.3" height="1.3"/>
					<rect x="745.6" y="459.5" class="st174" width="1.3" height="1.3"/>
					<rect x="748.3" y="459.5" class="st174" width="1.3" height="1.3"/>
					<rect x="740.3" y="462.1" class="st174" width="1.3" height="1.3"/>
					<rect x="743" y="462.1" class="st174" width="1.3" height="1.3"/>
					<rect x="745.6" y="462.1" class="st174" width="1.3" height="1.3"/>
					<rect x="748.3" y="462.1" class="st174" width="1.3" height="1.3"/>
				</g>
				<path class="st10" d="M742.3,453.4H742c-0.5,0-0.8-0.4-0.8-0.8v-1.4c0-0.5,0.4-0.8,0.8-0.8h0.4c0.5,0,0.8,0.4,0.8,0.8v1.4
					C743.2,453,742.8,453.4,742.3,453.4z"/>
				<path class="st174" d="M742.5,453.7h-0.7c-0.6,0-1-0.4-1-1V451c0-0.6,0.4-1,1-1h0.7c0.6,0,1,0.4,1,1v1.7
					C743.5,453.3,743,453.7,742.5,453.7z M741.8,450.7c-0.2,0-0.3,0.1-0.3,0.3v1.7c0,0.2,0.1,0.3,0.3,0.3h0.7c0.2,0,0.3-0.1,0.3-0.3
					V451c0-0.2-0.1-0.3-0.3-0.3H741.8z"/>
				<path class="st10" d="M748.2,453.4h-0.4c-0.5,0-0.8-0.4-0.8-0.8v-1.4c0-0.5,0.4-0.8,0.8-0.8h0.4c0.5,0,0.8,0.4,0.8,0.8v1.4
					C749,453,748.7,453.4,748.2,453.4z"/>
				<path class="st174" d="M748.4,453.7h-0.7c-0.6,0-1-0.4-1-1V451c0-0.6,0.4-1,1-1h0.7c0.6,0,1,0.4,1,1v1.7
					C749.4,453.3,748.9,453.7,748.4,453.7z M747.7,450.7c-0.2,0-0.3,0.1-0.3,0.3v1.7c0,0.2,0.1,0.3,0.3,0.3h0.7
					c0.2,0,0.3-0.1,0.3-0.3V451c0-0.2-0.1-0.3-0.3-0.3H747.7z"/>
			</g>
			<g>
				<g>
					<path class="st174" d="M752,420c0-0.6-0.4-1-1-1h-11c-0.6,0-1,0.4-1,1v11c0,0.6,0.4,1,1,1h11c0.6,0,1-0.4,1-1V420z M750.7,431
						h-11.4c-0.2,0,0.7,0.9,0.7,0.7V424h11v7.7C751,431.9,750.9,431,750.7,431z"/>
					<rect x="740.3" y="424.6" class="st174" width="1.3" height="1.3"/>
					<rect x="743" y="424.6" class="st174" width="1.3" height="1.3"/>
					<rect x="745.6" y="424.6" class="st174" width="1.3" height="1.3"/>
					<rect x="748.3" y="424.6" class="st174" width="1.3" height="1.3"/>
					<rect x="740.3" y="427.3" class="st174" width="1.3" height="1.3"/>
					<rect x="743" y="427.3" class="st174" width="1.3" height="1.3"/>
					<rect x="745.6" y="427.3" class="st174" width="1.3" height="1.3"/>
					<rect x="748.3" y="427.3" class="st174" width="1.3" height="1.3"/>
					<rect x="740.3" y="430" class="st174" width="1.3" height="1.3"/>
					<rect x="743" y="430" class="st174" width="1.3" height="1.3"/>
					<rect x="745.6" y="430" class="st174" width="1.3" height="1.3"/>
					<rect x="748.3" y="430" class="st174" width="1.3" height="1.3"/>
				</g>
				<path class="st10" d="M742.3,421.3H742c-0.5,0-0.8-0.4-0.8-0.8v-1.4c0-0.5,0.4-0.8,0.8-0.8h0.4c0.5,0,0.8,0.4,0.8,0.8v1.4
					C743.2,420.9,742.8,421.3,742.3,421.3z"/>
				<path class="st174" d="M742.5,421.6h-0.7c-0.6,0-1-0.4-1-1v-1.7c0-0.6,0.4-1,1-1h0.7c0.6,0,1,0.4,1,1v1.7
					C743.5,421.2,743,421.6,742.5,421.6z M741.8,418.6c-0.2,0-0.3,0.1-0.3,0.3v1.7c0,0.2,0.1,0.3,0.3,0.3h0.7c0.2,0,0.3-0.1,0.3-0.3
					v-1.7c0-0.2-0.1-0.3-0.3-0.3H741.8z"/>
				<path class="st10" d="M748.2,421.3h-0.4c-0.5,0-0.8-0.4-0.8-0.8v-1.4c0-0.5,0.4-0.8,0.8-0.8h0.4c0.5,0,0.8,0.4,0.8,0.8v1.4
					C749,420.9,748.7,421.3,748.2,421.3z"/>
				<path class="st174" d="M748.4,421.6h-0.7c-0.6,0-1-0.4-1-1v-1.7c0-0.6,0.4-1,1-1h0.7c0.6,0,1,0.4,1,1v1.7
					C749.4,421.2,748.9,421.6,748.4,421.6z M747.7,418.6c-0.2,0-0.3,0.1-0.3,0.3v1.7c0,0.2,0.1,0.3,0.3,0.3h0.7
					c0.2,0,0.3-0.1,0.3-0.3v-1.7c0-0.2-0.1-0.3-0.3-0.3H747.7z"/>
			</g>
			<g>
				<g>
					<path class="st174" d="M752,389c0-0.6-0.4-1-1-1h-11c-0.6,0-1,0.4-1,1v11c0,0.6,0.4,1,1,1h11c0.6,0,1-0.4,1-1V389z M750.7,401
						h-11.4c-0.2,0,0.7-0.5,0.7-0.6V392h11v8.4C751,400.5,750.9,401,750.7,401z"/>
					<rect x="740.3" y="393.2" class="st174" width="1.3" height="1.3"/>
					<rect x="743" y="393.2" class="st174" width="1.3" height="1.3"/>
					<rect x="745.6" y="393.2" class="st174" width="1.3" height="1.3"/>
					<rect x="748.3" y="393.2" class="st174" width="1.3" height="1.3"/>
					<rect x="740.3" y="395.9" class="st174" width="1.3" height="1.3"/>
					<rect x="743" y="395.9" class="st174" width="1.3" height="1.3"/>
					<rect x="745.6" y="395.9" class="st174" width="1.3" height="1.3"/>
					<rect x="748.3" y="395.9" class="st174" width="1.3" height="1.3"/>
					<rect x="740.3" y="398.6" class="st174" width="1.3" height="1.3"/>
					<rect x="743" y="398.6" class="st174" width="1.3" height="1.3"/>
					<rect x="745.6" y="398.6" class="st174" width="1.3" height="1.3"/>
					<rect x="748.3" y="398.6" class="st174" width="1.3" height="1.3"/>
				</g>
				<path class="st10" d="M742.3,389.8H742c-0.5,0-0.8-0.4-0.8-0.8v-1.4c0-0.5,0.4-0.8,0.8-0.8h0.4c0.5,0,0.8,0.4,0.8,0.8v1.4
					C743.2,389.5,742.8,389.8,742.3,389.8z"/>
				<path class="st174" d="M742.5,390.2h-0.7c-0.6,0-1-0.4-1-1v-1.7c0-0.6,0.4-1,1-1h0.7c0.6,0,1,0.4,1,1v1.7
					C743.5,389.7,743,390.2,742.5,390.2z M741.8,387.1c-0.2,0-0.3,0.1-0.3,0.3v1.7c0,0.2,0.1,0.3,0.3,0.3h0.7c0.2,0,0.3-0.1,0.3-0.3
					v-1.7c0-0.2-0.1-0.3-0.3-0.3H741.8z"/>
				<path class="st10" d="M748.2,389.8h-0.4c-0.5,0-0.8-0.4-0.8-0.8v-1.4c0-0.5,0.4-0.8,0.8-0.8h0.4c0.5,0,0.8,0.4,0.8,0.8v1.4
					C749,389.5,748.7,389.8,748.2,389.8z"/>
				<path class="st174" d="M748.4,390.2h-0.7c-0.6,0-1-0.4-1-1v-1.7c0-0.6,0.4-1,1-1h0.7c0.6,0,1,0.4,1,1v1.7
					C749.4,389.7,748.9,390.2,748.4,390.2z M747.7,387.1c-0.2,0-0.3,0.1-0.3,0.3v1.7c0,0.2,0.1,0.3,0.3,0.3h0.7
					c0.2,0,0.3-0.1,0.3-0.3v-1.7c0-0.2-0.1-0.3-0.3-0.3H747.7z"/>
			</g>
		</g>
	</g>
</g>
</svg>
