<?xml version="1.0" encoding="utf-8"?>
<!-- Generator: Adobe Illustrator 19.1.0, SVG Export Plug-In . SVG Version: 6.00 Build 0)  -->
<svg version="1.1" id="Layer_1" xmlns="http://www.w3.org/2000/svg" xmlns:xlink="http://www.w3.org/1999/xlink" x="0px" y="0px"
	 viewBox="0 0 946 584" style="enable-background:new 0 0 946 584;" xml:space="preserve">
<style type="text/css">
	.st0{fill:#CACACA;}
	.st1{clip-path:url(#SVGID_2_);fill:#D7D7D7;}
	.st2{clip-path:url(#SVGID_2_);}
	.st3{fill:#A09F9F;}
	.st4{fill:#FFFFFF;stroke:#C3C3C3;stroke-miterlimit:10;}
	.st5{fill:#818181;}
	.st6{fill:#FFFFFF;stroke:#67A5A8;stroke-miterlimit:10;}
	.st7{fill:none;stroke:#67A5A8;stroke-miterlimit:10;}
	.st8{fill:#FFFFFF;stroke:#98C8C8;stroke-width:0.7375;stroke-miterlimit:10;}
	.st9{fill:#98C8C8;stroke:#FFFFFF;stroke-width:0.7375;stroke-miterlimit:10;}
	.st10{fill:#FFFFFF;}
	.st11{fill:none;stroke:#797979;stroke-width:1.3191;stroke-miterlimit:10;}
	.st12{fill:#797979;}
	.st13{fill:#F2A73B;}
	.st14{fill:url(#XMLID_2_);}
	.st15{fill:#F1A640;}
	.st16{opacity:0.6;}
	.st17{fill:url(#XMLID_3_);}
	.st18{fill:url(#XMLID_4_);}
	.st19{fill:url(#XMLID_5_);}
	.st20{fill:url(#XMLID_6_);}
	.st21{fill:url(#XMLID_7_);}
	.st22{fill:url(#XMLID_8_);}
	.st23{fill:url(#XMLID_9_);}
	.st24{fill:url(#XMLID_10_);}
	.st25{fill:url(#XMLID_11_);}
	.st26{fill:#87B25E;}
	.st27{fill:none;stroke:#C7C8C9;stroke-linecap:round;stroke-miterlimit:10;}
	.st28{fill:#575757;}
	.st29{fill:#DFDCDA;stroke:#C7C9CA;stroke-width:1.0389;stroke-miterlimit:10;}
	.st30{fill:#6E7071;}
	.st31{clip-path:url(#SVGID_6_);fill:#D7D7D7;}
	.st32{clip-path:url(#SVGID_6_);}
	.st33{fill:url(#XMLID_12_);}
	.st34{fill:url(#XMLID_13_);}
	.st35{fill:url(#XMLID_14_);}
	.st36{fill:url(#XMLID_15_);}
	.st37{fill:url(#XMLID_16_);}
	.st38{fill:url(#XMLID_17_);}
	.st39{fill:url(#XMLID_18_);}
	.st40{fill:url(#XMLID_19_);}
	.st41{fill:url(#XMLID_20_);}
	.st42{fill:url(#XMLID_21_);}
	.st43{fill:#F69321;}
	.st44{fill:#F9C88E;}
	.st45{fill:#FFFFFF;stroke:#E0E0DF;stroke-width:1.2736;stroke-miterlimit:10;}
	.st46{fill:#474547;}
	.st47{fill:#F4F4F4;}
	.st48{fill:#F19644;stroke:#E68324;stroke-miterlimit:10;}
	.st49{fill:#FFFFFF;stroke:#B0B0B0;stroke-width:0.25;stroke-miterlimit:10;}
	.st50{fill:#EEEBE7;}
	.st51{fill:none;stroke:#686969;stroke-width:0.3528;stroke-miterlimit:10;}
	.st52{fill:none;stroke:#686969;stroke-width:0.5383;stroke-miterlimit:10;}
	.st53{fill:#595A5C;}
	.st54{fill:#454545;}
	.st55{fill:#555555;}
	.st56{fill:none;stroke:#6B6C6C;stroke-width:0.5;stroke-miterlimit:10;}
	.st57{fill:none;stroke:#6B6C6C;stroke-width:0.5411;stroke-miterlimit:10;}
	.st58{fill:none;stroke:#6B6C6C;stroke-width:0.3974;stroke-miterlimit:10;}
	.st59{fill:#848484;}
	.st60{clip-path:url(#SVGID_8_);fill:#D7D7D7;}
	.st61{clip-path:url(#SVGID_8_);}
	.st62{fill:url(#XMLID_22_);}
	.st63{fill:url(#XMLID_23_);}
	.st64{fill:url(#XMLID_24_);}
	.st65{fill:url(#XMLID_25_);}
	.st66{fill:url(#XMLID_26_);}
	.st67{fill:url(#XMLID_27_);}
	.st68{fill:url(#XMLID_28_);}
	.st69{fill:url(#XMLID_29_);}
	.st70{fill:url(#XMLID_30_);}
	.st71{fill:url(#XMLID_31_);}
	.st72{fill:#EFEFF0;}
	.st73{fill:#68A8AB;}
	.st74{fill:#454646;}
	.st75{fill:#8B8E91;}
	.st76{fill:#6E6D6E;}
	.st77{fill:#FFFFFF;stroke:#E0E0DF;stroke-width:0.7553;stroke-miterlimit:10;}
	.st78{fill:#E0EDEC;}
	.st79{fill:#6E6F72;}
	.st80{fill:#C9CBCC;}
	.st81{clip-path:url(#SVGID_10_);fill:#D7D7D7;}
	.st82{clip-path:url(#SVGID_10_);}
	.st83{font-family:'Roboto-Medium';}
	.st84{font-size:9.7266px;}
	.st85{font-family:'Roboto-Regular';}
	.st86{font-family:'FontAwesome';}
	.st87{fill:url(#XMLID_32_);}
	.st88{fill:url(#XMLID_33_);}
	.st89{fill:url(#XMLID_34_);}
	.st90{fill:url(#XMLID_35_);}
	.st91{fill:url(#XMLID_36_);}
	.st92{fill:url(#XMLID_37_);}
	.st93{fill:url(#XMLID_38_);}
	.st94{fill:url(#XMLID_39_);}
	.st95{fill:url(#XMLID_40_);}
	.st96{fill:url(#XMLID_41_);}
	.st97{font-family:'Roboto-Bold';}
	.st98{font-size:8.4297px;}
	.st99{font-size:8.6742px;}
	.st100{opacity:0.87;}
	.st101{clip-path:url(#SVGID_12_);fill:#4A4A4A;}
	.st102{fill:#FFFFFF;stroke:#D7D7D7;stroke-width:2;stroke-miterlimit:10;}
	.st103{fill:#E48125;}
	.st104{fill:none;}
	.st105{font-family:'FranklinGothic-Book';}
	.st106{font-size:20px;}
	.st107{font-size:11.3226px;}
	.st108{fill:#FFFFFF;stroke:#D1D2D3;stroke-width:1.0021;stroke-miterlimit:10;}
	.st109{fill:#FFFFFF;stroke:#D1D2D3;stroke-width:1.0734;stroke-miterlimit:10;}
	.st110{font-size:13px;}
	.st111{fill:none;stroke:#595A5C;stroke-width:1.1239;stroke-miterlimit:10;}
	.st112{font-size:15px;}
	.st113{fill:#FFFFFF;stroke:#D1D2D3;stroke-width:0.8975;stroke-miterlimit:10;}
	.st114{fill:#B4B4B4;}
	.st115{font-size:12px;}
	.st116{fill:#FFFFFF;stroke:#B3B3B3;stroke-width:0.75;stroke-miterlimit:10;}
	.st117{fill:none;stroke:#808080;stroke-width:0.25;stroke-miterlimit:10;}
	.st118{clip-path:url(#SVGID_14_);fill:#D7D7D7;}
	.st119{clip-path:url(#SVGID_14_);}
	.st120{fill:#67A5A8;}
	.st121{fill:url(#XMLID_42_);}
	.st122{fill:url(#XMLID_43_);}
	.st123{fill:url(#XMLID_44_);}
	.st124{fill:url(#XMLID_45_);}
	.st125{fill:url(#XMLID_46_);}
	.st126{fill:url(#XMLID_47_);}
	.st127{fill:url(#XMLID_48_);}
	.st128{fill:url(#XMLID_49_);}
	.st129{fill:url(#XMLID_50_);}
	.st130{fill:url(#XMLID_51_);}
	.st131{clip-path:url(#SVGID_18_);fill:#D7D7D7;}
	.st132{clip-path:url(#SVGID_18_);}
	.st133{fill:url(#XMLID_52_);}
	.st134{fill:url(#XMLID_53_);}
	.st135{fill:url(#XMLID_54_);}
	.st136{fill:url(#XMLID_55_);}
	.st137{fill:url(#XMLID_56_);}
	.st138{fill:url(#XMLID_57_);}
	.st139{fill:url(#XMLID_58_);}
	.st140{fill:url(#XMLID_59_);}
	.st141{fill:url(#XMLID_60_);}
	.st142{fill:url(#XMLID_61_);}
	.st143{fill:#69B9BD;}
	.st144{fill:none;stroke:#B4B6B8;stroke-width:1.7593;stroke-miterlimit:10;}
	.st145{fill:#5A5A5D;}
	.st146{fill:none;stroke:#D2D3D3;stroke-width:0.7618;stroke-miterlimit:10;}
	.st147{fill:#67ADB1;}
	.st148{clip-path:url(#SVGID_24_);}
	.st149{clip-path:url(#SVGID_24_);fill:none;stroke:#D2D3D3;stroke-width:0.8871;stroke-miterlimit:10;}
	.st150{fill:#F59222;}
	.st151{fill:#DFDCDA;stroke:#C7C9CA;stroke-width:0.8921;stroke-miterlimit:10;}
	.st152{clip-path:url(#SVGID_26_);fill:#D7D7D7;}
	.st153{clip-path:url(#SVGID_26_);}
	.st154{fill:url(#XMLID_62_);}
	.st155{fill:url(#XMLID_63_);}
	.st156{fill:url(#XMLID_64_);}
	.st157{fill:url(#XMLID_65_);}
	.st158{fill:url(#XMLID_66_);}
	.st159{fill:url(#XMLID_67_);}
	.st160{fill:url(#XMLID_68_);}
	.st161{fill:url(#XMLID_69_);}
	.st162{fill:url(#XMLID_70_);}
	.st163{fill:url(#XMLID_71_);}
	.st164{clip-path:url(#SVGID_30_);}
	.st165{fill:#F5F6F7;}
	.st166{fill:#FFFFFF;stroke:#E6E6E5;stroke-miterlimit:10;}
	.st167{fill:#FFEFDD;}
	.st168{fill:#898989;}
	.st169{fill:#676767;stroke:#E6E6E5;stroke-width:1.1239;stroke-miterlimit:10;}
	.st170{fill:#68BBBE;}
	.st171{fill:none;stroke:#D34550;stroke-width:1.1239;stroke-miterlimit:10;}
	.st172{fill:#67AEB2;}
	.st173{fill:#FFFFFF;stroke:#D1D2D3;stroke-width:1.1239;stroke-miterlimit:10;}
	.st174{fill:none;stroke:#818181;stroke-width:1.1239;stroke-miterlimit:10;}
	.st175{fill:#CFCFCE;}
	.st176{fill:none;stroke:#989798;stroke-width:2.2477;stroke-miterlimit:10;}
	.st177{fill:#EC704F;}
	.st178{fill:#FFFFFF;stroke:#B3B3B3;stroke-miterlimit:10;}
	.st179{fill:#989898;}
	.st180{fill:#D34550;}
	.st181{fill:#85C442;}
	.st182{fill:none;stroke:#FFFFFF;stroke-width:2.2477;stroke-miterlimit:10;}
	.st183{fill:#D1D2D3;}
	.st184{fill:none;stroke:#D1D2D3;stroke-width:2.2477;stroke-miterlimit:10;}
	.st185{fill:#FFFFFF;stroke:#E6E6E5;stroke-width:3;stroke-miterlimit:10;}
	.st186{clip-path:url(#SVGID_34_);fill:#D7D7D7;}
	.st187{clip-path:url(#SVGID_34_);}
	.st188{fill:url(#XMLID_72_);}
	.st189{fill:url(#XMLID_73_);}
	.st190{fill:url(#XMLID_74_);}
	.st191{fill:url(#XMLID_75_);}
	.st192{fill:url(#XMLID_76_);}
	.st193{fill:url(#XMLID_77_);}
	.st194{fill:url(#XMLID_78_);}
	.st195{fill:url(#XMLID_79_);}
	.st196{fill:url(#XMLID_80_);}
	.st197{fill:url(#XMLID_81_);}
	.st198{fill:#676868;}
	.st199{fill:none;stroke:#CDCBCA;stroke-miterlimit:10;}
	.st200{fill:none;stroke:#CDCBCA;stroke-width:0.907;stroke-miterlimit:10;}
	.st201{fill:#5590CC;}
	.st202{fill:none;stroke:#FFFFFF;stroke-width:1.748;stroke-linecap:round;stroke-miterlimit:10;}
	.st203{fill:#F4F5F6;}
	.st204{fill:#D1D2D2;}
	.st205{fill:#969696;}
	.st206{fill:none;stroke:#DDDDDC;stroke-miterlimit:10;}
	.st207{fill:none;stroke:#D1D2D2;stroke-miterlimit:10;}
	.st208{fill:#454647;}
	.st209{fill:#49A3A7;}
	.st210{opacity:0.5;}
	.st211{fill:none;stroke:#010101;stroke-width:1.3195;stroke-miterlimit:10;}
	.st212{fill:none;stroke:#E09FBF;stroke-width:1.3195;stroke-miterlimit:10;}
	.st213{fill:#E09FBF;}
	.st214{opacity:0.75;}
	.st215{opacity:0.75;fill:#E09FBF;}
	.st216{fill:none;stroke:#A2D7BC;stroke-width:1.3195;stroke-miterlimit:10;}
	.st217{fill:#A2D7BC;}
	.st218{opacity:0.75;fill:#A2D7BC;}
	.st219{opacity:0.75;fill:#BC9FCB;}
	.st220{fill:none;stroke:#BC9FCB;stroke-width:1.3195;stroke-miterlimit:10;}
	.st221{fill:#BC9FCB;}
	.st222{fill:none;stroke:#C0DE9F;stroke-width:1.3195;stroke-miterlimit:10;}
	.st223{fill:#C0DE9F;}
	.st224{opacity:0.75;fill:#C0DE9F;}
	.st225{opacity:0.75;fill:#9EBEDC;}
	.st226{fill:none;stroke:#9EBEDC;stroke-width:1.3195;stroke-miterlimit:10;}
	.st227{fill:#9EBEDC;}
	.st228{opacity:0.75;fill:#DEBE9E;}
	.st229{fill:none;stroke:#DEBE9E;stroke-width:1.3195;stroke-miterlimit:10;}
	.st230{fill:#DEBE9E;}
	.st231{opacity:0.75;fill:#010101;}
	.st232{fill:none;stroke:#010101;stroke-miterlimit:10;}
	.st233{clip-path:url(#SVGID_40_);fill:#FFFFFF;}
	.st234{clip-path:url(#SVGID_40_);fill:none;stroke:#CDCBCA;stroke-width:0.662;stroke-miterlimit:10;}
	.st235{clip-path:url(#SVGID_40_);}
	.st236{fill:#CDCBCA;}
	.st237{clip-path:url(#SVGID_40_);fill:#454647;}
	.st238{clip-path:url(#SVGID_40_);fill:none;stroke:#676868;stroke-width:0.662;stroke-miterlimit:10;}
	.st239{fill:none;stroke:#D1D2D2;stroke-width:0.6639;stroke-miterlimit:10;}
	.st240{fill:none;stroke:#676868;stroke-width:0.662;stroke-miterlimit:10;}
	.st241{clip-path:url(#SVGID_40_);fill:none;stroke:#D1D2D2;stroke-width:0.6639;stroke-miterlimit:10;}
</style>
<g>
	<defs>
		<path id="SVGID_9_" d="M939.4,582.6H5.2c-1.7,0-3-1.3-3-3V5.3c0-1.7,1.3-3,3-3h934.2c1.7,0,3,1.3,3,3v574.3
			C942.4,581.3,941,582.6,939.4,582.6z"/>
	</defs>
	<use xlink:href="#SVGID_9_"  style="overflow:visible;fill:#FFFFFF;"/>
	<clipPath id="SVGID_2_">
		<use xlink:href="#SVGID_9_"  style="overflow:visible;"/>
	</clipPath>
	<rect x="-15.5" y="-1" class="st1" width="975.2" height="34.9"/>
	<g class="st2">
		<circle class="st3" cx="23.1" cy="18.3" r="4.1"/>
		<circle class="st3" cx="38.8" cy="18.3" r="4.1"/>
		<circle class="st3" cx="54.4" cy="18.3" r="4.1"/>
	</g>
	<use xlink:href="#SVGID_9_"  style="overflow:visible;fill:none;stroke:#D3D3D3;stroke-width:1.1757;stroke-miterlimit:10;"/>
</g>
<rect x="2" y="75" class="st5" width="941" height="0"/>
<g>
	<line class="st11" x1="47.8" y1="55" x2="54.4" y2="55"/>
	<line class="st11" x1="47.8" y1="60.2" x2="54.4" y2="60.2"/>
	<line class="st11" x1="47.8" y1="57.6" x2="54.4" y2="57.6"/>
</g>
<text transform="matrix(1 0 0 1 63.9673 61.2451)" class="st12 st83 st84">Dashboard</text>
<text transform="matrix(1 0 0 1 752.1167 60.5947)" class="st12 st85 st84">Help</text>
<text transform="matrix(1 0 0 1 814.144 60.5947)"><tspan x="0" y="0" class="st12 st85 st84">yourpeopledemo </tspan><tspan x="75" y="0" class="st12 st86 st84"></tspan></text>
<g>
	<g id="XMLID_303_">
		<polygon id="XMLID_304_" class="st13" points="475.5,57.1 479.3,45.4 473.5,48.4 468.2,56.2 474.7,58.5 		"/>
	</g>
	<g id="XMLID_301_">
		<linearGradient id="XMLID_2_" gradientUnits="userSpaceOnUse" x1="477.1544" y1="57.2257" x2="472.6818" y2="48.814">
			<stop  offset="0" style="stop-color:#F2A73B"/>
			<stop  offset="1" style="stop-color:#FFFFFF"/>
		</linearGradient>
		<polygon id="XMLID_302_" class="st14" points="475.5,57.1 479.3,45.4 473.5,48.4 468.2,56.2 474.7,58.5 		"/>
	</g>
	<g id="XMLID_296_">
		<polygon id="XMLID_300_" class="st15" points="475.1,63.7 479.9,63.7 481.4,68.2 486.2,68.2 482,63 482.2,62.6 478.7,58.2 
			478.7,58.3 478.9,56.9 487.9,46.8 480.7,47.3 471.9,55 		"/>
		<g id="XMLID_297_" class="st16">
			
				<linearGradient id="XMLID_3_" gradientUnits="userSpaceOnUse" x1="-7990.7705" y1="1458.6788" x2="-7989.9346" y2="1457.9775" gradientTransform="matrix(0.9287 -0.3707 0.3707 0.9287 7360.7134 -4252.499)">
				<stop  offset="8.510050e-02" style="stop-color:#FFFFFF"/>
				<stop  offset="1" style="stop-color:#EC8923"/>
			</linearGradient>
			<polygon id="XMLID_299_" class="st17" points="479.9,63.7 481.6,63.7 480,64.1 			"/>
			
				<linearGradient id="XMLID_4_" gradientUnits="userSpaceOnUse" x1="-7991.3315" y1="1460.3153" x2="-7988.5781" y2="1460.3153" gradientTransform="matrix(0.9287 -0.3707 0.3707 0.9287 7360.7134 -4252.499)">
				<stop  offset="0" style="stop-color:#EC8923"/>
				<stop  offset="9.893174e-02" style="stop-color:#ED8F2F"/>
				<stop  offset="0.2785" style="stop-color:#F0A14F"/>
				<stop  offset="0.5183" style="stop-color:#F4BD84"/>
				<stop  offset="0.8059" style="stop-color:#FAE3CB"/>
				<stop  offset="1" style="stop-color:#FFFFFF"/>
			</linearGradient>
			<polygon id="XMLID_298_" class="st18" points="481.4,68.2 482.4,63.4 482,63 			"/>
		</g>
	</g>
	<g id="XMLID_289_">
		<polygon id="XMLID_295_" class="st15" points="475.1,63.7 468.6,60.8 467.1,57.7 461.3,55.9 456.9,55.3 462.2,55.3 464.9,53.1 
			471.9,55 		"/>
		
			<linearGradient id="XMLID_5_" gradientUnits="userSpaceOnUse" x1="-2988.7722" y1="333.9099" x2="-2987.9404" y2="334.2292" gradientTransform="matrix(-0.9973 7.380000e-02 7.380000e-02 0.9973 -2543.2039 -57.1141)">
			<stop  offset="0" style="stop-color:#FFFFFF"/>
			<stop  offset="1" style="stop-color:#EC8923"/>
		</linearGradient>
		<polygon id="XMLID_293_" class="st19" points="461.4,55.8 461.7,55.4 462.1,55.3 		"/>
		
			<linearGradient id="XMLID_6_" gradientUnits="userSpaceOnUse" x1="-2992.7583" y1="336.683" x2="-2992.4321" y2="332.0167" gradientTransform="matrix(-0.9973 7.380000e-02 7.380000e-02 0.9973 -2543.2039 -57.1141)">
			<stop  offset="0" style="stop-color:#FFFFFF"/>
			<stop  offset="1" style="stop-color:#F2A73B"/>
		</linearGradient>
		<polygon id="XMLID_291_" class="st20" points="466.5,57.5 464.9,53.3 467.1,57.7 		"/>
		
			<linearGradient id="XMLID_7_" gradientUnits="userSpaceOnUse" x1="-2997.7903" y1="334.07" x2="-2995.5908" y2="340.1125" gradientTransform="matrix(-0.9973 7.380000e-02 7.380000e-02 0.9973 -2543.2039 -57.1141)">
			<stop  offset="0" style="stop-color:#FFFFFF;stop-opacity:0.3"/>
			<stop  offset="1" style="stop-color:#EC8923"/>
		</linearGradient>
		<polygon id="XMLID_290_" class="st21" points="471.9,55 468.6,60.8 471.3,54.9 		"/>
	</g>
	
		<linearGradient id="XMLID_8_" gradientUnits="userSpaceOnUse" x1="462.7112" y1="332.1297" x2="461.4643" y2="331.6758" gradientTransform="matrix(0.9973 -7.380000e-02 7.380000e-02 0.9973 -5.3545 -244.5612)">
		<stop  offset="0" style="stop-color:#FFFFFF"/>
		<stop  offset="1" style="stop-color:#EC8923"/>
	</linearGradient>
	<polygon id="XMLID_288_" class="st22" points="478.9,56.9 480.6,47.6 479.6,56.2 	"/>
	
		<linearGradient id="XMLID_9_" gradientUnits="userSpaceOnUse" x1="-7992.896" y1="1454.0011" x2="-7992.1646" y2="1454.8652" gradientTransform="matrix(0.9287 -0.3707 0.3707 0.9287 7360.7134 -4252.499)">
		<stop  offset="0" style="stop-color:#EC8923"/>
		<stop  offset="0.8995" style="stop-color:#FFFFFF"/>
	</linearGradient>
	<polygon id="XMLID_287_" class="st23" points="475.2,63.6 479.1,58.7 478.7,58.2 	"/>
</g>
<circle class="st26" cx="793.9" cy="57.2" r="10.7"/>
<text transform="matrix(1 0 0 1 788.1743 60.5947)" class="st10 st97 st98">YD</text>
<rect x="2.3" y="75" class="st43" width="940" height="31.4"/>
<text transform="matrix(1 0 0 1 87.5215 95.6455)" class="st44 st83 st99">Request Time Off</text>
<text transform="matrix(1 0 0 1 198.0854 95.6455)" class="st44 st83 st99">My Policy</text>
<text transform="matrix(1 0 0 1 286.2285 95.6455)" class="st44 st83 st99">Holiday Calendar</text>
<polygon class="st10" points="127.3,109 120.7,103.2 114,109 "/>
<g class="st100">
	<defs>
		<path id="SVGID_11_" class="st100" d="M939.2,583H5.3c-1.9,0-3.4-1.5-3.4-3.4V18.4c0-1.9,1.5-3.4,3.4-3.4h933.9
			c1.9,0,3.4,1.5,3.4,3.4v561.1C942.7,581.4,941.1,583,939.2,583z"/>
	</defs>
	<clipPath id="SVGID_4_">
		<use xlink:href="#SVGID_11_"  style="overflow:visible;"/>
	</clipPath>
	<rect x="1.9" y="34.5" style="clip-path:url(#SVGID_4_);fill:#4A4A4A;" width="940.8" height="616"/>
</g>
<path class="st10" d="M708.7,455H235.2c-1.9,0-3.4-1.5-3.4-3.4V131.1c0-1.9,1.5-3.4,3.4-3.4h473.5c1.9,0,3.4,1.5,3.4,3.4v320.4
	C712.2,453.5,710.6,455,708.7,455z"/>
<circle class="st102" cx="709.4" cy="131.6" r="16.5"/>
<g>
	<path class="st103" d="M714.7,127.5l-8.5,8.5c-0.5,0.5-1.3,0.5-1.8,0l0,0c-0.5-0.5-0.5-1.3,0-1.8l8.5-8.5c0.5-0.5,1.3-0.5,1.8,0
		l0,0C715.2,126.1,715.2,127,714.7,127.5z"/>
	<path class="st103" d="M706.2,125.6l8.5,8.5c0.5,0.5,0.5,1.3,0,1.8l0,0c-0.5,0.5-1.3,0.5-1.8,0l-8.5-8.5c-0.5-0.5-0.5-1.3,0-1.8
		l0,0C704.9,125.1,705.7,125.1,706.2,125.6z"/>
</g>
<g>
	<rect x="265.6" y="162.4" class="st104" width="271.3" height="23.4"/>
	<text transform="matrix(1 0 0 1 265.6042 175.7139)" class="st103 st105 st106">Request Paid Time Off</text>
</g>
<path class="st48" d="M388.8,416.8H268.4c-1.1,0-2-0.9-2-2v-28.6c0-1.1,0.9-2,2-2h120.4c1.1,0,2,0.9,2,2v28.6
	C390.8,415.9,389.9,416.8,388.8,416.8z"/>
<rect x="266.8" y="396.8" class="st104" width="123.4" height="14.3"/>
<text transform="matrix(1 0 0 1 303.1792 404.3828)" class="st10 st105 st107">REQUEST</text>
<path class="st108" d="M399.3,261.2H270.5c-1.7,0-3-1.3-3-3v-23.1c0-1.7,1.3-3,3-3h128.9c1.7,0,3,1.3,3,3v23.1
	C402.3,259.9,401,261.2,399.3,261.2z"/>
<path class="st109" d="M568.3,364H270.6c-1.7,0-3-1.3-3-3v-22.8c0-1.7,1.3-3,3-3h297.8c1.7,0,3,1.3,3,3V361
	C571.3,362.7,570,364,568.3,364z"/>
<g>
	<text transform="matrix(1 0 0 1 275.7119 251.7051)" class="st53 st85 st110">Select</text>
</g>
<polyline class="st111" points="385.2,245.6 388.2,248.5 391,245.6 "/>
<g>
	<text transform="matrix(1 0 0 1 268.7119 329.2607)" class="st53 st83 st112">Reason</text>
</g>
<path class="st113" d="M521.7,261.2H419.5c-1.7,0-3-1.3-3-3v-23.1c0-1.7,1.3-3,3-3h102.2c1.7,0,3,1.3,3,3v23.1
	C524.7,259.9,523.4,261.2,521.7,261.2z"/>
<text transform="matrix(1 0 0 1 425.0054 251.3965)" class="st114 st85 st115">MM/DD/YYYY</text>
<g>
	<text transform="matrix(1 0 0 1 268.7119 222.2607)" class="st53 st83 st112">I’m taking</text>
</g>
<g>
	<text transform="matrix(1 0 0 1 418.7119 222.2607)" class="st53 st83 st112">Start Date</text>
</g>
<path class="st113" d="M647.7,261.2H545.5c-1.7,0-3-1.3-3-3v-23.1c0-1.7,1.3-3,3-3h102.2c1.7,0,3,1.3,3,3v23.1
	C650.7,259.9,649.4,261.2,647.7,261.2z"/>
<text transform="matrix(1 0 0 1 551.0054 251.3965)" class="st114 st85 st115">MM/DD/YYYY</text>
<g>
	<text transform="matrix(1 0 0 1 544.7119 222.2607)" class="st53 st83 st112">End Date</text>
</g>
<rect x="269" y="282" class="st116" width="12" height="12"/>
<g>
	<text transform="matrix(1 0 0 1 291.7119 291.7051)" class="st53 st85 st110">Request half day (4 hours)</text>
</g>
<rect x="476" y="282" class="st116" width="12" height="12"/>
<g>
	<text transform="matrix(1 0 0 1 498.7119 291.7051)" class="st53 st85 st110">Request custom hours</text>
</g>
<line class="st117" x1="268" y1="186" x2="675" y2="186"/>
</svg>
